G04 #@! TF.GenerationSoftware,KiCad,Pcbnew,(5.0.0-3-g5ebb6b6)*
G04 #@! TF.CreationDate,2018-09-25T19:29:36-07:00*
G04 #@! TF.ProjectId,christmas-board,6368726973746D61732D626F6172642E,rev?*
G04 #@! TF.SameCoordinates,Original*
G04 #@! TF.FileFunction,Copper,L1,Top,Signal*
G04 #@! TF.FilePolarity,Positive*
%FSLAX46Y46*%
G04 Gerber Fmt 4.6, Leading zero omitted, Abs format (unit mm)*
G04 Created by KiCad (PCBNEW (5.0.0-3-g5ebb6b6)) date Tuesday, September 25, 2018 at 07:29:36 PM*
%MOMM*%
%LPD*%
G01*
G04 APERTURE LIST*
G04 #@! TA.AperFunction,ComponentPad*
%ADD10C,2.000000*%
G04 #@! TD*
G04 #@! TA.AperFunction,ComponentPad*
%ADD11C,1.500000*%
G04 #@! TD*
G04 #@! TA.AperFunction,ComponentPad*
%ADD12R,1.200000X1.200000*%
G04 #@! TD*
G04 #@! TA.AperFunction,ComponentPad*
%ADD13C,1.200000*%
G04 #@! TD*
G04 #@! TA.AperFunction,ComponentPad*
%ADD14C,1.800000*%
G04 #@! TD*
G04 #@! TA.AperFunction,ComponentPad*
%ADD15R,1.800000X1.800000*%
G04 #@! TD*
G04 #@! TA.AperFunction,Conductor*
%ADD16C,0.100000*%
G04 #@! TD*
G04 #@! TA.AperFunction,ComponentPad*
%ADD17C,1.050000*%
G04 #@! TD*
G04 #@! TA.AperFunction,ComponentPad*
%ADD18R,1.500000X1.050000*%
G04 #@! TD*
G04 #@! TA.AperFunction,ComponentPad*
%ADD19C,1.400000*%
G04 #@! TD*
G04 #@! TA.AperFunction,ComponentPad*
%ADD20O,1.400000X1.400000*%
G04 #@! TD*
G04 #@! TA.AperFunction,ComponentPad*
%ADD21R,1.600000X1.600000*%
G04 #@! TD*
G04 #@! TA.AperFunction,ComponentPad*
%ADD22O,1.600000X1.600000*%
G04 #@! TD*
G04 #@! TA.AperFunction,ComponentPad*
%ADD23R,1.700000X1.700000*%
G04 #@! TD*
G04 #@! TA.AperFunction,ComponentPad*
%ADD24O,1.700000X1.700000*%
G04 #@! TD*
G04 #@! TA.AperFunction,ViaPad*
%ADD25C,0.800000*%
G04 #@! TD*
G04 #@! TA.AperFunction,Conductor*
%ADD26C,0.250000*%
G04 #@! TD*
G04 APERTURE END LIST*
D10*
G04 #@! TO.P,J1,1*
G04 #@! TO.N,Net-(J1-Pad1)*
X133350000Y-96520000D03*
G04 #@! TO.P,J1,2*
G04 #@! TO.N,GND*
X133350000Y-109220000D03*
G04 #@! TD*
D11*
G04 #@! TO.P,SW2,2*
G04 #@! TO.N,/PULL_HIGH*
X142950000Y-96810000D03*
X136450000Y-96810000D03*
G04 #@! TO.P,SW2,1*
G04 #@! TO.N,GND*
X136450000Y-101310000D03*
X142950000Y-101310000D03*
G04 #@! TD*
G04 #@! TO.P,SW1,2*
G04 #@! TO.N,/PULL_HIGH*
X89610000Y-100620000D03*
X83110000Y-100620000D03*
G04 #@! TO.P,SW1,1*
G04 #@! TO.N,VCC*
X83110000Y-105120000D03*
X89610000Y-105120000D03*
G04 #@! TD*
D12*
G04 #@! TO.P,C1,1*
G04 #@! TO.N,Net-(C1-Pad1)*
X127000000Y-100330000D03*
D13*
G04 #@! TO.P,C1,2*
G04 #@! TO.N,GND*
X127000000Y-101830000D03*
G04 #@! TD*
D14*
G04 #@! TO.P,D1,2*
G04 #@! TO.N,Net-(D1-Pad2)*
X82550000Y-59690000D03*
D15*
G04 #@! TO.P,D1,1*
G04 #@! TO.N,GND*
X80010000Y-59690000D03*
G04 #@! TD*
G04 #@! TO.P,D2,1*
G04 #@! TO.N,GND*
X67310000Y-88900000D03*
D14*
G04 #@! TO.P,D2,2*
G04 #@! TO.N,Net-(D2-Pad2)*
X69850000Y-88900000D03*
G04 #@! TD*
G04 #@! TO.P,D3,2*
G04 #@! TO.N,Net-(D3-Pad2)*
X82550000Y-118110000D03*
D15*
G04 #@! TO.P,D3,1*
G04 #@! TO.N,GND*
X80010000Y-118110000D03*
G04 #@! TD*
G04 #@! TO.P,D4,1*
G04 #@! TO.N,GND*
X109220000Y-130810000D03*
D14*
G04 #@! TO.P,D4,2*
G04 #@! TO.N,Net-(D4-Pad2)*
X111760000Y-130810000D03*
G04 #@! TD*
D15*
G04 #@! TO.P,D5,1*
G04 #@! TO.N,GND*
X138430000Y-119380000D03*
D14*
G04 #@! TO.P,D5,2*
G04 #@! TO.N,Net-(D5-Pad2)*
X140970000Y-119380000D03*
G04 #@! TD*
G04 #@! TO.P,D6,2*
G04 #@! TO.N,Net-(D6-Pad2)*
X153670000Y-88900000D03*
D15*
G04 #@! TO.P,D6,1*
G04 #@! TO.N,GND*
X151130000Y-88900000D03*
G04 #@! TD*
G04 #@! TO.P,D7,1*
G04 #@! TO.N,GND*
X138430000Y-59690000D03*
D14*
G04 #@! TO.P,D7,2*
G04 #@! TO.N,Net-(D7-Pad2)*
X140970000Y-59690000D03*
G04 #@! TD*
G04 #@! TO.P,D8,2*
G04 #@! TO.N,Net-(D8-Pad2)*
X111760000Y-46990000D03*
D15*
G04 #@! TO.P,D8,1*
G04 #@! TO.N,GND*
X109220000Y-46990000D03*
G04 #@! TD*
D16*
G04 #@! TO.N,Net-(Q1-Pad2)*
G04 #@! TO.C,Q1*
G36*
X102113229Y-64246264D02*
X102138711Y-64250044D01*
X102163700Y-64256303D01*
X102187954Y-64264982D01*
X102211242Y-64275996D01*
X102233337Y-64289239D01*
X102254028Y-64304585D01*
X102273116Y-64321884D01*
X102290415Y-64340972D01*
X102305761Y-64361663D01*
X102319004Y-64383758D01*
X102330018Y-64407046D01*
X102338697Y-64431300D01*
X102344956Y-64456289D01*
X102348736Y-64481771D01*
X102350000Y-64507500D01*
X102350000Y-65032500D01*
X102348736Y-65058229D01*
X102344956Y-65083711D01*
X102338697Y-65108700D01*
X102330018Y-65132954D01*
X102319004Y-65156242D01*
X102305761Y-65178337D01*
X102290415Y-65199028D01*
X102273116Y-65218116D01*
X102254028Y-65235415D01*
X102233337Y-65250761D01*
X102211242Y-65264004D01*
X102187954Y-65275018D01*
X102163700Y-65283697D01*
X102138711Y-65289956D01*
X102113229Y-65293736D01*
X102087500Y-65295000D01*
X101112500Y-65295000D01*
X101086771Y-65293736D01*
X101061289Y-65289956D01*
X101036300Y-65283697D01*
X101012046Y-65275018D01*
X100988758Y-65264004D01*
X100966663Y-65250761D01*
X100945972Y-65235415D01*
X100926884Y-65218116D01*
X100909585Y-65199028D01*
X100894239Y-65178337D01*
X100880996Y-65156242D01*
X100869982Y-65132954D01*
X100861303Y-65108700D01*
X100855044Y-65083711D01*
X100851264Y-65058229D01*
X100850000Y-65032500D01*
X100850000Y-64507500D01*
X100851264Y-64481771D01*
X100855044Y-64456289D01*
X100861303Y-64431300D01*
X100869982Y-64407046D01*
X100880996Y-64383758D01*
X100894239Y-64361663D01*
X100909585Y-64340972D01*
X100926884Y-64321884D01*
X100945972Y-64304585D01*
X100966663Y-64289239D01*
X100988758Y-64275996D01*
X101012046Y-64264982D01*
X101036300Y-64256303D01*
X101061289Y-64250044D01*
X101086771Y-64246264D01*
X101112500Y-64245000D01*
X102087500Y-64245000D01*
X102113229Y-64246264D01*
X102113229Y-64246264D01*
G37*
D17*
G04 #@! TD*
G04 #@! TO.P,Q1,2*
G04 #@! TO.N,Net-(Q1-Pad2)*
X101600000Y-64770000D03*
D16*
G04 #@! TO.N,Net-(Q1-Pad3)*
G04 #@! TO.C,Q1*
G36*
X102113229Y-62976264D02*
X102138711Y-62980044D01*
X102163700Y-62986303D01*
X102187954Y-62994982D01*
X102211242Y-63005996D01*
X102233337Y-63019239D01*
X102254028Y-63034585D01*
X102273116Y-63051884D01*
X102290415Y-63070972D01*
X102305761Y-63091663D01*
X102319004Y-63113758D01*
X102330018Y-63137046D01*
X102338697Y-63161300D01*
X102344956Y-63186289D01*
X102348736Y-63211771D01*
X102350000Y-63237500D01*
X102350000Y-63762500D01*
X102348736Y-63788229D01*
X102344956Y-63813711D01*
X102338697Y-63838700D01*
X102330018Y-63862954D01*
X102319004Y-63886242D01*
X102305761Y-63908337D01*
X102290415Y-63929028D01*
X102273116Y-63948116D01*
X102254028Y-63965415D01*
X102233337Y-63980761D01*
X102211242Y-63994004D01*
X102187954Y-64005018D01*
X102163700Y-64013697D01*
X102138711Y-64019956D01*
X102113229Y-64023736D01*
X102087500Y-64025000D01*
X101112500Y-64025000D01*
X101086771Y-64023736D01*
X101061289Y-64019956D01*
X101036300Y-64013697D01*
X101012046Y-64005018D01*
X100988758Y-63994004D01*
X100966663Y-63980761D01*
X100945972Y-63965415D01*
X100926884Y-63948116D01*
X100909585Y-63929028D01*
X100894239Y-63908337D01*
X100880996Y-63886242D01*
X100869982Y-63862954D01*
X100861303Y-63838700D01*
X100855044Y-63813711D01*
X100851264Y-63788229D01*
X100850000Y-63762500D01*
X100850000Y-63237500D01*
X100851264Y-63211771D01*
X100855044Y-63186289D01*
X100861303Y-63161300D01*
X100869982Y-63137046D01*
X100880996Y-63113758D01*
X100894239Y-63091663D01*
X100909585Y-63070972D01*
X100926884Y-63051884D01*
X100945972Y-63034585D01*
X100966663Y-63019239D01*
X100988758Y-63005996D01*
X101012046Y-62994982D01*
X101036300Y-62986303D01*
X101061289Y-62980044D01*
X101086771Y-62976264D01*
X101112500Y-62975000D01*
X102087500Y-62975000D01*
X102113229Y-62976264D01*
X102113229Y-62976264D01*
G37*
D17*
G04 #@! TD*
G04 #@! TO.P,Q1,3*
G04 #@! TO.N,Net-(Q1-Pad3)*
X101600000Y-63500000D03*
D18*
G04 #@! TO.P,Q1,1*
G04 #@! TO.N,GND*
X101600000Y-66040000D03*
G04 #@! TD*
D16*
G04 #@! TO.N,Net-(Q2-Pad2)*
G04 #@! TO.C,Q2*
G36*
X102113229Y-80756264D02*
X102138711Y-80760044D01*
X102163700Y-80766303D01*
X102187954Y-80774982D01*
X102211242Y-80785996D01*
X102233337Y-80799239D01*
X102254028Y-80814585D01*
X102273116Y-80831884D01*
X102290415Y-80850972D01*
X102305761Y-80871663D01*
X102319004Y-80893758D01*
X102330018Y-80917046D01*
X102338697Y-80941300D01*
X102344956Y-80966289D01*
X102348736Y-80991771D01*
X102350000Y-81017500D01*
X102350000Y-81542500D01*
X102348736Y-81568229D01*
X102344956Y-81593711D01*
X102338697Y-81618700D01*
X102330018Y-81642954D01*
X102319004Y-81666242D01*
X102305761Y-81688337D01*
X102290415Y-81709028D01*
X102273116Y-81728116D01*
X102254028Y-81745415D01*
X102233337Y-81760761D01*
X102211242Y-81774004D01*
X102187954Y-81785018D01*
X102163700Y-81793697D01*
X102138711Y-81799956D01*
X102113229Y-81803736D01*
X102087500Y-81805000D01*
X101112500Y-81805000D01*
X101086771Y-81803736D01*
X101061289Y-81799956D01*
X101036300Y-81793697D01*
X101012046Y-81785018D01*
X100988758Y-81774004D01*
X100966663Y-81760761D01*
X100945972Y-81745415D01*
X100926884Y-81728116D01*
X100909585Y-81709028D01*
X100894239Y-81688337D01*
X100880996Y-81666242D01*
X100869982Y-81642954D01*
X100861303Y-81618700D01*
X100855044Y-81593711D01*
X100851264Y-81568229D01*
X100850000Y-81542500D01*
X100850000Y-81017500D01*
X100851264Y-80991771D01*
X100855044Y-80966289D01*
X100861303Y-80941300D01*
X100869982Y-80917046D01*
X100880996Y-80893758D01*
X100894239Y-80871663D01*
X100909585Y-80850972D01*
X100926884Y-80831884D01*
X100945972Y-80814585D01*
X100966663Y-80799239D01*
X100988758Y-80785996D01*
X101012046Y-80774982D01*
X101036300Y-80766303D01*
X101061289Y-80760044D01*
X101086771Y-80756264D01*
X101112500Y-80755000D01*
X102087500Y-80755000D01*
X102113229Y-80756264D01*
X102113229Y-80756264D01*
G37*
D17*
G04 #@! TD*
G04 #@! TO.P,Q2,2*
G04 #@! TO.N,Net-(Q2-Pad2)*
X101600000Y-81280000D03*
D16*
G04 #@! TO.N,Net-(Q2-Pad3)*
G04 #@! TO.C,Q2*
G36*
X102113229Y-79486264D02*
X102138711Y-79490044D01*
X102163700Y-79496303D01*
X102187954Y-79504982D01*
X102211242Y-79515996D01*
X102233337Y-79529239D01*
X102254028Y-79544585D01*
X102273116Y-79561884D01*
X102290415Y-79580972D01*
X102305761Y-79601663D01*
X102319004Y-79623758D01*
X102330018Y-79647046D01*
X102338697Y-79671300D01*
X102344956Y-79696289D01*
X102348736Y-79721771D01*
X102350000Y-79747500D01*
X102350000Y-80272500D01*
X102348736Y-80298229D01*
X102344956Y-80323711D01*
X102338697Y-80348700D01*
X102330018Y-80372954D01*
X102319004Y-80396242D01*
X102305761Y-80418337D01*
X102290415Y-80439028D01*
X102273116Y-80458116D01*
X102254028Y-80475415D01*
X102233337Y-80490761D01*
X102211242Y-80504004D01*
X102187954Y-80515018D01*
X102163700Y-80523697D01*
X102138711Y-80529956D01*
X102113229Y-80533736D01*
X102087500Y-80535000D01*
X101112500Y-80535000D01*
X101086771Y-80533736D01*
X101061289Y-80529956D01*
X101036300Y-80523697D01*
X101012046Y-80515018D01*
X100988758Y-80504004D01*
X100966663Y-80490761D01*
X100945972Y-80475415D01*
X100926884Y-80458116D01*
X100909585Y-80439028D01*
X100894239Y-80418337D01*
X100880996Y-80396242D01*
X100869982Y-80372954D01*
X100861303Y-80348700D01*
X100855044Y-80323711D01*
X100851264Y-80298229D01*
X100850000Y-80272500D01*
X100850000Y-79747500D01*
X100851264Y-79721771D01*
X100855044Y-79696289D01*
X100861303Y-79671300D01*
X100869982Y-79647046D01*
X100880996Y-79623758D01*
X100894239Y-79601663D01*
X100909585Y-79580972D01*
X100926884Y-79561884D01*
X100945972Y-79544585D01*
X100966663Y-79529239D01*
X100988758Y-79515996D01*
X101012046Y-79504982D01*
X101036300Y-79496303D01*
X101061289Y-79490044D01*
X101086771Y-79486264D01*
X101112500Y-79485000D01*
X102087500Y-79485000D01*
X102113229Y-79486264D01*
X102113229Y-79486264D01*
G37*
D17*
G04 #@! TD*
G04 #@! TO.P,Q2,3*
G04 #@! TO.N,Net-(Q2-Pad3)*
X101600000Y-80010000D03*
D18*
G04 #@! TO.P,Q2,1*
G04 #@! TO.N,GND*
X101600000Y-82550000D03*
G04 #@! TD*
G04 #@! TO.P,Q3,1*
G04 #@! TO.N,GND*
X118110000Y-66040000D03*
D16*
G04 #@! TD*
G04 #@! TO.N,Net-(Q3-Pad3)*
G04 #@! TO.C,Q3*
G36*
X118623229Y-62976264D02*
X118648711Y-62980044D01*
X118673700Y-62986303D01*
X118697954Y-62994982D01*
X118721242Y-63005996D01*
X118743337Y-63019239D01*
X118764028Y-63034585D01*
X118783116Y-63051884D01*
X118800415Y-63070972D01*
X118815761Y-63091663D01*
X118829004Y-63113758D01*
X118840018Y-63137046D01*
X118848697Y-63161300D01*
X118854956Y-63186289D01*
X118858736Y-63211771D01*
X118860000Y-63237500D01*
X118860000Y-63762500D01*
X118858736Y-63788229D01*
X118854956Y-63813711D01*
X118848697Y-63838700D01*
X118840018Y-63862954D01*
X118829004Y-63886242D01*
X118815761Y-63908337D01*
X118800415Y-63929028D01*
X118783116Y-63948116D01*
X118764028Y-63965415D01*
X118743337Y-63980761D01*
X118721242Y-63994004D01*
X118697954Y-64005018D01*
X118673700Y-64013697D01*
X118648711Y-64019956D01*
X118623229Y-64023736D01*
X118597500Y-64025000D01*
X117622500Y-64025000D01*
X117596771Y-64023736D01*
X117571289Y-64019956D01*
X117546300Y-64013697D01*
X117522046Y-64005018D01*
X117498758Y-63994004D01*
X117476663Y-63980761D01*
X117455972Y-63965415D01*
X117436884Y-63948116D01*
X117419585Y-63929028D01*
X117404239Y-63908337D01*
X117390996Y-63886242D01*
X117379982Y-63862954D01*
X117371303Y-63838700D01*
X117365044Y-63813711D01*
X117361264Y-63788229D01*
X117360000Y-63762500D01*
X117360000Y-63237500D01*
X117361264Y-63211771D01*
X117365044Y-63186289D01*
X117371303Y-63161300D01*
X117379982Y-63137046D01*
X117390996Y-63113758D01*
X117404239Y-63091663D01*
X117419585Y-63070972D01*
X117436884Y-63051884D01*
X117455972Y-63034585D01*
X117476663Y-63019239D01*
X117498758Y-63005996D01*
X117522046Y-62994982D01*
X117546300Y-62986303D01*
X117571289Y-62980044D01*
X117596771Y-62976264D01*
X117622500Y-62975000D01*
X118597500Y-62975000D01*
X118623229Y-62976264D01*
X118623229Y-62976264D01*
G37*
D17*
G04 #@! TO.P,Q3,3*
G04 #@! TO.N,Net-(Q3-Pad3)*
X118110000Y-63500000D03*
D16*
G04 #@! TD*
G04 #@! TO.N,Net-(Q3-Pad2)*
G04 #@! TO.C,Q3*
G36*
X118623229Y-64246264D02*
X118648711Y-64250044D01*
X118673700Y-64256303D01*
X118697954Y-64264982D01*
X118721242Y-64275996D01*
X118743337Y-64289239D01*
X118764028Y-64304585D01*
X118783116Y-64321884D01*
X118800415Y-64340972D01*
X118815761Y-64361663D01*
X118829004Y-64383758D01*
X118840018Y-64407046D01*
X118848697Y-64431300D01*
X118854956Y-64456289D01*
X118858736Y-64481771D01*
X118860000Y-64507500D01*
X118860000Y-65032500D01*
X118858736Y-65058229D01*
X118854956Y-65083711D01*
X118848697Y-65108700D01*
X118840018Y-65132954D01*
X118829004Y-65156242D01*
X118815761Y-65178337D01*
X118800415Y-65199028D01*
X118783116Y-65218116D01*
X118764028Y-65235415D01*
X118743337Y-65250761D01*
X118721242Y-65264004D01*
X118697954Y-65275018D01*
X118673700Y-65283697D01*
X118648711Y-65289956D01*
X118623229Y-65293736D01*
X118597500Y-65295000D01*
X117622500Y-65295000D01*
X117596771Y-65293736D01*
X117571289Y-65289956D01*
X117546300Y-65283697D01*
X117522046Y-65275018D01*
X117498758Y-65264004D01*
X117476663Y-65250761D01*
X117455972Y-65235415D01*
X117436884Y-65218116D01*
X117419585Y-65199028D01*
X117404239Y-65178337D01*
X117390996Y-65156242D01*
X117379982Y-65132954D01*
X117371303Y-65108700D01*
X117365044Y-65083711D01*
X117361264Y-65058229D01*
X117360000Y-65032500D01*
X117360000Y-64507500D01*
X117361264Y-64481771D01*
X117365044Y-64456289D01*
X117371303Y-64431300D01*
X117379982Y-64407046D01*
X117390996Y-64383758D01*
X117404239Y-64361663D01*
X117419585Y-64340972D01*
X117436884Y-64321884D01*
X117455972Y-64304585D01*
X117476663Y-64289239D01*
X117498758Y-64275996D01*
X117522046Y-64264982D01*
X117546300Y-64256303D01*
X117571289Y-64250044D01*
X117596771Y-64246264D01*
X117622500Y-64245000D01*
X118597500Y-64245000D01*
X118623229Y-64246264D01*
X118623229Y-64246264D01*
G37*
D17*
G04 #@! TO.P,Q3,2*
G04 #@! TO.N,Net-(Q3-Pad2)*
X118110000Y-64770000D03*
G04 #@! TD*
D18*
G04 #@! TO.P,Q4,1*
G04 #@! TO.N,GND*
X128270000Y-87630000D03*
D16*
G04 #@! TD*
G04 #@! TO.N,Net-(Q4-Pad3)*
G04 #@! TO.C,Q4*
G36*
X128783229Y-84566264D02*
X128808711Y-84570044D01*
X128833700Y-84576303D01*
X128857954Y-84584982D01*
X128881242Y-84595996D01*
X128903337Y-84609239D01*
X128924028Y-84624585D01*
X128943116Y-84641884D01*
X128960415Y-84660972D01*
X128975761Y-84681663D01*
X128989004Y-84703758D01*
X129000018Y-84727046D01*
X129008697Y-84751300D01*
X129014956Y-84776289D01*
X129018736Y-84801771D01*
X129020000Y-84827500D01*
X129020000Y-85352500D01*
X129018736Y-85378229D01*
X129014956Y-85403711D01*
X129008697Y-85428700D01*
X129000018Y-85452954D01*
X128989004Y-85476242D01*
X128975761Y-85498337D01*
X128960415Y-85519028D01*
X128943116Y-85538116D01*
X128924028Y-85555415D01*
X128903337Y-85570761D01*
X128881242Y-85584004D01*
X128857954Y-85595018D01*
X128833700Y-85603697D01*
X128808711Y-85609956D01*
X128783229Y-85613736D01*
X128757500Y-85615000D01*
X127782500Y-85615000D01*
X127756771Y-85613736D01*
X127731289Y-85609956D01*
X127706300Y-85603697D01*
X127682046Y-85595018D01*
X127658758Y-85584004D01*
X127636663Y-85570761D01*
X127615972Y-85555415D01*
X127596884Y-85538116D01*
X127579585Y-85519028D01*
X127564239Y-85498337D01*
X127550996Y-85476242D01*
X127539982Y-85452954D01*
X127531303Y-85428700D01*
X127525044Y-85403711D01*
X127521264Y-85378229D01*
X127520000Y-85352500D01*
X127520000Y-84827500D01*
X127521264Y-84801771D01*
X127525044Y-84776289D01*
X127531303Y-84751300D01*
X127539982Y-84727046D01*
X127550996Y-84703758D01*
X127564239Y-84681663D01*
X127579585Y-84660972D01*
X127596884Y-84641884D01*
X127615972Y-84624585D01*
X127636663Y-84609239D01*
X127658758Y-84595996D01*
X127682046Y-84584982D01*
X127706300Y-84576303D01*
X127731289Y-84570044D01*
X127756771Y-84566264D01*
X127782500Y-84565000D01*
X128757500Y-84565000D01*
X128783229Y-84566264D01*
X128783229Y-84566264D01*
G37*
D17*
G04 #@! TO.P,Q4,3*
G04 #@! TO.N,Net-(Q4-Pad3)*
X128270000Y-85090000D03*
D16*
G04 #@! TD*
G04 #@! TO.N,Net-(Q4-Pad2)*
G04 #@! TO.C,Q4*
G36*
X128783229Y-85836264D02*
X128808711Y-85840044D01*
X128833700Y-85846303D01*
X128857954Y-85854982D01*
X128881242Y-85865996D01*
X128903337Y-85879239D01*
X128924028Y-85894585D01*
X128943116Y-85911884D01*
X128960415Y-85930972D01*
X128975761Y-85951663D01*
X128989004Y-85973758D01*
X129000018Y-85997046D01*
X129008697Y-86021300D01*
X129014956Y-86046289D01*
X129018736Y-86071771D01*
X129020000Y-86097500D01*
X129020000Y-86622500D01*
X129018736Y-86648229D01*
X129014956Y-86673711D01*
X129008697Y-86698700D01*
X129000018Y-86722954D01*
X128989004Y-86746242D01*
X128975761Y-86768337D01*
X128960415Y-86789028D01*
X128943116Y-86808116D01*
X128924028Y-86825415D01*
X128903337Y-86840761D01*
X128881242Y-86854004D01*
X128857954Y-86865018D01*
X128833700Y-86873697D01*
X128808711Y-86879956D01*
X128783229Y-86883736D01*
X128757500Y-86885000D01*
X127782500Y-86885000D01*
X127756771Y-86883736D01*
X127731289Y-86879956D01*
X127706300Y-86873697D01*
X127682046Y-86865018D01*
X127658758Y-86854004D01*
X127636663Y-86840761D01*
X127615972Y-86825415D01*
X127596884Y-86808116D01*
X127579585Y-86789028D01*
X127564239Y-86768337D01*
X127550996Y-86746242D01*
X127539982Y-86722954D01*
X127531303Y-86698700D01*
X127525044Y-86673711D01*
X127521264Y-86648229D01*
X127520000Y-86622500D01*
X127520000Y-86097500D01*
X127521264Y-86071771D01*
X127525044Y-86046289D01*
X127531303Y-86021300D01*
X127539982Y-85997046D01*
X127550996Y-85973758D01*
X127564239Y-85951663D01*
X127579585Y-85930972D01*
X127596884Y-85911884D01*
X127615972Y-85894585D01*
X127636663Y-85879239D01*
X127658758Y-85865996D01*
X127682046Y-85854982D01*
X127706300Y-85846303D01*
X127731289Y-85840044D01*
X127756771Y-85836264D01*
X127782500Y-85835000D01*
X128757500Y-85835000D01*
X128783229Y-85836264D01*
X128783229Y-85836264D01*
G37*
D17*
G04 #@! TO.P,Q4,2*
G04 #@! TO.N,Net-(Q4-Pad2)*
X128270000Y-86360000D03*
G04 #@! TD*
D16*
G04 #@! TO.N,Net-(Q5-Pad2)*
G04 #@! TO.C,Q5*
G36*
X136403229Y-71866264D02*
X136428711Y-71870044D01*
X136453700Y-71876303D01*
X136477954Y-71884982D01*
X136501242Y-71895996D01*
X136523337Y-71909239D01*
X136544028Y-71924585D01*
X136563116Y-71941884D01*
X136580415Y-71960972D01*
X136595761Y-71981663D01*
X136609004Y-72003758D01*
X136620018Y-72027046D01*
X136628697Y-72051300D01*
X136634956Y-72076289D01*
X136638736Y-72101771D01*
X136640000Y-72127500D01*
X136640000Y-72652500D01*
X136638736Y-72678229D01*
X136634956Y-72703711D01*
X136628697Y-72728700D01*
X136620018Y-72752954D01*
X136609004Y-72776242D01*
X136595761Y-72798337D01*
X136580415Y-72819028D01*
X136563116Y-72838116D01*
X136544028Y-72855415D01*
X136523337Y-72870761D01*
X136501242Y-72884004D01*
X136477954Y-72895018D01*
X136453700Y-72903697D01*
X136428711Y-72909956D01*
X136403229Y-72913736D01*
X136377500Y-72915000D01*
X135402500Y-72915000D01*
X135376771Y-72913736D01*
X135351289Y-72909956D01*
X135326300Y-72903697D01*
X135302046Y-72895018D01*
X135278758Y-72884004D01*
X135256663Y-72870761D01*
X135235972Y-72855415D01*
X135216884Y-72838116D01*
X135199585Y-72819028D01*
X135184239Y-72798337D01*
X135170996Y-72776242D01*
X135159982Y-72752954D01*
X135151303Y-72728700D01*
X135145044Y-72703711D01*
X135141264Y-72678229D01*
X135140000Y-72652500D01*
X135140000Y-72127500D01*
X135141264Y-72101771D01*
X135145044Y-72076289D01*
X135151303Y-72051300D01*
X135159982Y-72027046D01*
X135170996Y-72003758D01*
X135184239Y-71981663D01*
X135199585Y-71960972D01*
X135216884Y-71941884D01*
X135235972Y-71924585D01*
X135256663Y-71909239D01*
X135278758Y-71895996D01*
X135302046Y-71884982D01*
X135326300Y-71876303D01*
X135351289Y-71870044D01*
X135376771Y-71866264D01*
X135402500Y-71865000D01*
X136377500Y-71865000D01*
X136403229Y-71866264D01*
X136403229Y-71866264D01*
G37*
D17*
G04 #@! TD*
G04 #@! TO.P,Q5,2*
G04 #@! TO.N,Net-(Q5-Pad2)*
X135890000Y-72390000D03*
D16*
G04 #@! TO.N,/PULL_HIGH*
G04 #@! TO.C,Q5*
G36*
X136403229Y-70596264D02*
X136428711Y-70600044D01*
X136453700Y-70606303D01*
X136477954Y-70614982D01*
X136501242Y-70625996D01*
X136523337Y-70639239D01*
X136544028Y-70654585D01*
X136563116Y-70671884D01*
X136580415Y-70690972D01*
X136595761Y-70711663D01*
X136609004Y-70733758D01*
X136620018Y-70757046D01*
X136628697Y-70781300D01*
X136634956Y-70806289D01*
X136638736Y-70831771D01*
X136640000Y-70857500D01*
X136640000Y-71382500D01*
X136638736Y-71408229D01*
X136634956Y-71433711D01*
X136628697Y-71458700D01*
X136620018Y-71482954D01*
X136609004Y-71506242D01*
X136595761Y-71528337D01*
X136580415Y-71549028D01*
X136563116Y-71568116D01*
X136544028Y-71585415D01*
X136523337Y-71600761D01*
X136501242Y-71614004D01*
X136477954Y-71625018D01*
X136453700Y-71633697D01*
X136428711Y-71639956D01*
X136403229Y-71643736D01*
X136377500Y-71645000D01*
X135402500Y-71645000D01*
X135376771Y-71643736D01*
X135351289Y-71639956D01*
X135326300Y-71633697D01*
X135302046Y-71625018D01*
X135278758Y-71614004D01*
X135256663Y-71600761D01*
X135235972Y-71585415D01*
X135216884Y-71568116D01*
X135199585Y-71549028D01*
X135184239Y-71528337D01*
X135170996Y-71506242D01*
X135159982Y-71482954D01*
X135151303Y-71458700D01*
X135145044Y-71433711D01*
X135141264Y-71408229D01*
X135140000Y-71382500D01*
X135140000Y-70857500D01*
X135141264Y-70831771D01*
X135145044Y-70806289D01*
X135151303Y-70781300D01*
X135159982Y-70757046D01*
X135170996Y-70733758D01*
X135184239Y-70711663D01*
X135199585Y-70690972D01*
X135216884Y-70671884D01*
X135235972Y-70654585D01*
X135256663Y-70639239D01*
X135278758Y-70625996D01*
X135302046Y-70614982D01*
X135326300Y-70606303D01*
X135351289Y-70600044D01*
X135376771Y-70596264D01*
X135402500Y-70595000D01*
X136377500Y-70595000D01*
X136403229Y-70596264D01*
X136403229Y-70596264D01*
G37*
D17*
G04 #@! TD*
G04 #@! TO.P,Q5,3*
G04 #@! TO.N,/PULL_HIGH*
X135890000Y-71120000D03*
D18*
G04 #@! TO.P,Q5,1*
G04 #@! TO.N,GND*
X135890000Y-73660000D03*
G04 #@! TD*
D19*
G04 #@! TO.P,R1,1*
G04 #@! TO.N,/XOR_IN_A*
X86360000Y-63500000D03*
D20*
G04 #@! TO.P,R1,2*
G04 #@! TO.N,GND*
X93980000Y-63500000D03*
G04 #@! TD*
G04 #@! TO.P,R2,2*
G04 #@! TO.N,GND*
X93980000Y-76200000D03*
D19*
G04 #@! TO.P,R2,1*
G04 #@! TO.N,/LED_E*
X86360000Y-76200000D03*
G04 #@! TD*
G04 #@! TO.P,R3,1*
G04 #@! TO.N,Net-(Q1-Pad2)*
X93980000Y-67310000D03*
D20*
G04 #@! TO.P,R3,2*
G04 #@! TO.N,/XOR_IN_A*
X86360000Y-67310000D03*
G04 #@! TD*
D19*
G04 #@! TO.P,R4,1*
G04 #@! TO.N,Net-(Q2-Pad2)*
X93980000Y-80010000D03*
D20*
G04 #@! TO.P,R4,2*
G04 #@! TO.N,/LED_E*
X86360000Y-80010000D03*
G04 #@! TD*
G04 #@! TO.P,R5,2*
G04 #@! TO.N,VCC*
X106680000Y-57150000D03*
D19*
G04 #@! TO.P,R5,1*
G04 #@! TO.N,Net-(Q1-Pad3)*
X99060000Y-57150000D03*
G04 #@! TD*
D20*
G04 #@! TO.P,R6,2*
G04 #@! TO.N,VCC*
X105410000Y-76200000D03*
D19*
G04 #@! TO.P,R6,1*
G04 #@! TO.N,Net-(Q2-Pad3)*
X97790000Y-76200000D03*
G04 #@! TD*
D20*
G04 #@! TO.P,R7,2*
G04 #@! TO.N,Net-(Q1-Pad3)*
X105410000Y-69850000D03*
D19*
G04 #@! TO.P,R7,1*
G04 #@! TO.N,Net-(Q3-Pad2)*
X113030000Y-69850000D03*
G04 #@! TD*
D20*
G04 #@! TO.P,R8,2*
G04 #@! TO.N,Net-(Q2-Pad3)*
X107950000Y-73660000D03*
D19*
G04 #@! TO.P,R8,1*
G04 #@! TO.N,Net-(Q3-Pad2)*
X115570000Y-73660000D03*
G04 #@! TD*
G04 #@! TO.P,R9,1*
G04 #@! TO.N,Net-(Q4-Pad2)*
X113030000Y-87630000D03*
D20*
G04 #@! TO.P,R9,2*
G04 #@! TO.N,/XOR_IN_A*
X105410000Y-87630000D03*
G04 #@! TD*
G04 #@! TO.P,R10,2*
G04 #@! TO.N,/LED_E*
X105410000Y-85090000D03*
D19*
G04 #@! TO.P,R10,1*
G04 #@! TO.N,Net-(Q4-Pad2)*
X113030000Y-85090000D03*
G04 #@! TD*
D20*
G04 #@! TO.P,R11,2*
G04 #@! TO.N,VCC*
X120650000Y-57150000D03*
D19*
G04 #@! TO.P,R11,1*
G04 #@! TO.N,Net-(Q3-Pad3)*
X113030000Y-57150000D03*
G04 #@! TD*
G04 #@! TO.P,R12,1*
G04 #@! TO.N,Net-(Q4-Pad3)*
X125730000Y-81280000D03*
D20*
G04 #@! TO.P,R12,2*
G04 #@! TO.N,VCC*
X118110000Y-81280000D03*
G04 #@! TD*
D19*
G04 #@! TO.P,R13,1*
G04 #@! TO.N,Net-(Q5-Pad2)*
X128270000Y-72390000D03*
D20*
G04 #@! TO.P,R13,2*
G04 #@! TO.N,Net-(Q3-Pad3)*
X120650000Y-72390000D03*
G04 #@! TD*
G04 #@! TO.P,R14,2*
G04 #@! TO.N,Net-(Q4-Pad3)*
X120650000Y-76200000D03*
D19*
G04 #@! TO.P,R14,1*
G04 #@! TO.N,Net-(Q5-Pad2)*
X128270000Y-76200000D03*
G04 #@! TD*
D20*
G04 #@! TO.P,R15,2*
G04 #@! TO.N,VCC*
X137160000Y-67310000D03*
D19*
G04 #@! TO.P,R15,1*
G04 #@! TO.N,/PULL_HIGH*
X129540000Y-67310000D03*
G04 #@! TD*
G04 #@! TO.P,R16,1*
G04 #@! TO.N,/LED_A*
X77470000Y-59690000D03*
D20*
G04 #@! TO.P,R16,2*
G04 #@! TO.N,Net-(D1-Pad2)*
X85090000Y-59690000D03*
G04 #@! TD*
D19*
G04 #@! TO.P,R17,1*
G04 #@! TO.N,/LED_B*
X64770000Y-88900000D03*
D20*
G04 #@! TO.P,R17,2*
G04 #@! TO.N,Net-(D2-Pad2)*
X72390000Y-88900000D03*
G04 #@! TD*
G04 #@! TO.P,R18,2*
G04 #@! TO.N,Net-(D3-Pad2)*
X85090000Y-118110000D03*
D19*
G04 #@! TO.P,R18,1*
G04 #@! TO.N,/LED_C*
X77470000Y-118110000D03*
G04 #@! TD*
G04 #@! TO.P,R19,1*
G04 #@! TO.N,/LED_D*
X106680000Y-130810000D03*
D20*
G04 #@! TO.P,R19,2*
G04 #@! TO.N,Net-(D4-Pad2)*
X114300000Y-130810000D03*
G04 #@! TD*
G04 #@! TO.P,R20,2*
G04 #@! TO.N,Net-(D5-Pad2)*
X143510000Y-119380000D03*
D19*
G04 #@! TO.P,R20,1*
G04 #@! TO.N,/LED_E*
X135890000Y-119380000D03*
G04 #@! TD*
G04 #@! TO.P,R21,1*
G04 #@! TO.N,/LED_F*
X148590000Y-88900000D03*
D20*
G04 #@! TO.P,R21,2*
G04 #@! TO.N,Net-(D6-Pad2)*
X156210000Y-88900000D03*
G04 #@! TD*
G04 #@! TO.P,R22,2*
G04 #@! TO.N,Net-(D7-Pad2)*
X143510000Y-59690000D03*
D19*
G04 #@! TO.P,R22,1*
G04 #@! TO.N,/LED_G*
X135890000Y-59690000D03*
G04 #@! TD*
G04 #@! TO.P,R23,1*
G04 #@! TO.N,/LED_H*
X106680000Y-46990000D03*
D20*
G04 #@! TO.P,R23,2*
G04 #@! TO.N,Net-(D8-Pad2)*
X114300000Y-46990000D03*
G04 #@! TD*
D19*
G04 #@! TO.P,R24,1*
G04 #@! TO.N,Net-(R24-Pad1)*
X100330000Y-111760000D03*
D20*
G04 #@! TO.P,R24,2*
G04 #@! TO.N,VCC*
X92710000Y-111760000D03*
G04 #@! TD*
D19*
G04 #@! TO.P,R25,1*
G04 #@! TO.N,VCC*
X97790000Y-92710000D03*
D20*
G04 #@! TO.P,R25,2*
G04 #@! TO.N,Net-(R25-Pad2)*
X105410000Y-92710000D03*
G04 #@! TD*
D19*
G04 #@! TO.P,R26,1*
G04 #@! TO.N,Net-(R26-Pad1)*
X116840000Y-96520000D03*
D20*
G04 #@! TO.P,R26,2*
G04 #@! TO.N,Net-(C1-Pad1)*
X124460000Y-96520000D03*
G04 #@! TD*
G04 #@! TO.P,R27,2*
G04 #@! TO.N,/PULL_HIGH*
X139700000Y-77470000D03*
D19*
G04 #@! TO.P,R27,1*
G04 #@! TO.N,GND*
X147320000Y-77470000D03*
G04 #@! TD*
D20*
G04 #@! TO.P,R28,2*
G04 #@! TO.N,Net-(R26-Pad1)*
X109220000Y-96520000D03*
D19*
G04 #@! TO.P,R28,1*
G04 #@! TO.N,Net-(R25-Pad2)*
X101600000Y-96520000D03*
G04 #@! TD*
D21*
G04 #@! TO.P,U1,1*
G04 #@! TO.N,/LED_B*
X101600000Y-121920000D03*
D22*
G04 #@! TO.P,U1,9*
G04 #@! TO.N,/XOR_IN_A*
X119380000Y-114300000D03*
G04 #@! TO.P,U1,2*
G04 #@! TO.N,/LED_C*
X104140000Y-121920000D03*
G04 #@! TO.P,U1,10*
G04 #@! TO.N,VCC*
X116840000Y-114300000D03*
G04 #@! TO.P,U1,3*
G04 #@! TO.N,/LED_D*
X106680000Y-121920000D03*
G04 #@! TO.P,U1,11*
G04 #@! TO.N,/555_OUT*
X114300000Y-114300000D03*
G04 #@! TO.P,U1,4*
G04 #@! TO.N,/LED_E*
X109220000Y-121920000D03*
G04 #@! TO.P,U1,12*
G04 #@! TO.N,/555_OUT*
X111760000Y-114300000D03*
G04 #@! TO.P,U1,5*
G04 #@! TO.N,/LED_F*
X111760000Y-121920000D03*
G04 #@! TO.P,U1,13*
G04 #@! TO.N,GND*
X109220000Y-114300000D03*
G04 #@! TO.P,U1,6*
G04 #@! TO.N,/LED_G*
X114300000Y-121920000D03*
G04 #@! TO.P,U1,14*
G04 #@! TO.N,/PULL_HIGH*
X106680000Y-114300000D03*
G04 #@! TO.P,U1,7*
G04 #@! TO.N,/LED_H*
X116840000Y-121920000D03*
G04 #@! TO.P,U1,15*
G04 #@! TO.N,/LED_A*
X104140000Y-114300000D03*
G04 #@! TO.P,U1,8*
G04 #@! TO.N,GND*
X119380000Y-121920000D03*
G04 #@! TO.P,U1,16*
G04 #@! TO.N,Net-(R24-Pad1)*
X101600000Y-114300000D03*
G04 #@! TD*
D21*
G04 #@! TO.P,U2,1*
G04 #@! TO.N,GND*
X106680000Y-107950000D03*
D22*
G04 #@! TO.P,U2,5*
G04 #@! TO.N,Net-(U2-Pad5)*
X114300000Y-100330000D03*
G04 #@! TO.P,U2,2*
G04 #@! TO.N,Net-(C1-Pad1)*
X109220000Y-107950000D03*
G04 #@! TO.P,U2,6*
X111760000Y-100330000D03*
G04 #@! TO.P,U2,3*
G04 #@! TO.N,/555_OUT*
X111760000Y-107950000D03*
G04 #@! TO.P,U2,7*
G04 #@! TO.N,Net-(R26-Pad1)*
X109220000Y-100330000D03*
G04 #@! TO.P,U2,4*
G04 #@! TO.N,VCC*
X114300000Y-107950000D03*
G04 #@! TO.P,U2,8*
G04 #@! TO.N,Net-(R25-Pad2)*
X106680000Y-100330000D03*
G04 #@! TD*
D23*
G04 #@! TO.P,SW3,1*
G04 #@! TO.N,Net-(SW3-Pad1)*
X124460000Y-106680000D03*
D24*
G04 #@! TO.P,SW3,2*
G04 #@! TO.N,VCC*
X127000000Y-106680000D03*
G04 #@! TO.P,SW3,3*
G04 #@! TO.N,Net-(J1-Pad1)*
X129540000Y-106680000D03*
G04 #@! TD*
D25*
G04 #@! TO.N,/XOR_IN_A*
X121920000Y-100330000D03*
G04 #@! TD*
D26*
G04 #@! TO.N,Net-(C1-Pad1)*
X111760000Y-100330000D02*
X111760000Y-99060000D01*
X111760000Y-99060000D02*
X113030000Y-97790000D01*
X123190000Y-97790000D02*
X124460000Y-96520000D01*
X113030000Y-97790000D02*
X123190000Y-97790000D01*
X126150000Y-100330000D02*
X127000000Y-100330000D01*
X124460000Y-98640000D02*
X126150000Y-100330000D01*
X124460000Y-96520000D02*
X124460000Y-98640000D01*
X109220000Y-102870000D02*
X111760000Y-100330000D01*
X109220000Y-107950000D02*
X109220000Y-102870000D01*
G04 #@! TO.N,Net-(D1-Pad2)*
X82550000Y-59690000D02*
X85090000Y-59690000D01*
G04 #@! TO.N,Net-(D2-Pad2)*
X69850000Y-88900000D02*
X72390000Y-88900000D01*
G04 #@! TO.N,Net-(D3-Pad2)*
X82550000Y-118110000D02*
X85090000Y-118110000D01*
G04 #@! TO.N,Net-(D4-Pad2)*
X111760000Y-130810000D02*
X114300000Y-130810000D01*
G04 #@! TO.N,Net-(D5-Pad2)*
X140970000Y-119380000D02*
X143510000Y-119380000D01*
G04 #@! TO.N,Net-(D6-Pad2)*
X153670000Y-88900000D02*
X156210000Y-88900000D01*
G04 #@! TO.N,Net-(D7-Pad2)*
X140970000Y-59690000D02*
X143510000Y-59690000D01*
G04 #@! TO.N,Net-(D8-Pad2)*
X111760000Y-46990000D02*
X114300000Y-46990000D01*
G04 #@! TO.N,VCC*
X106680000Y-57150000D02*
X106680000Y-55880000D01*
X106680000Y-55880000D02*
X107950000Y-54610000D01*
X118110000Y-54610000D02*
X120650000Y-57150000D01*
X107950000Y-54610000D02*
X118110000Y-54610000D01*
X83110000Y-105120000D02*
X89610000Y-105120000D01*
X89610000Y-108660000D02*
X92710000Y-111760000D01*
X89610000Y-105120000D02*
X89610000Y-108660000D01*
X97790000Y-96940000D02*
X97790000Y-92710000D01*
X89610000Y-105120000D02*
X97790000Y-96940000D01*
X110490000Y-81280000D02*
X105410000Y-76200000D01*
X118110000Y-81280000D02*
X110490000Y-81280000D01*
X110490000Y-74930000D02*
X109220000Y-76200000D01*
X109220000Y-76200000D02*
X105410000Y-76200000D01*
X110490000Y-60960000D02*
X110490000Y-74930000D01*
X106680000Y-57150000D02*
X110490000Y-60960000D01*
X127000000Y-57150000D02*
X137160000Y-67310000D01*
X120650000Y-57150000D02*
X127000000Y-57150000D01*
X97790000Y-92710000D02*
X97790000Y-91440000D01*
X97790000Y-91440000D02*
X100330000Y-88900000D01*
X100330000Y-88900000D02*
X106680000Y-88900000D01*
X106680000Y-88900000D02*
X107950000Y-88900000D01*
X107950000Y-88900000D02*
X107950000Y-83820000D01*
X107950000Y-83820000D02*
X110490000Y-81280000D01*
X114300000Y-111760000D02*
X116840000Y-114300000D01*
X114300000Y-107950000D02*
X114300000Y-111760000D01*
X118110000Y-116840000D02*
X116840000Y-115570000D01*
X116840000Y-115570000D02*
X116840000Y-114300000D01*
X119380000Y-116840000D02*
X118110000Y-116840000D01*
X127000000Y-109220000D02*
X119380000Y-116840000D01*
X127000000Y-106680000D02*
X127000000Y-109220000D01*
G04 #@! TO.N,Net-(Q1-Pad2)*
X96520000Y-64770000D02*
X101600000Y-64770000D01*
X93980000Y-67310000D02*
X96520000Y-64770000D01*
G04 #@! TO.N,Net-(Q2-Pad2)*
X93980000Y-80010000D02*
X95250000Y-80010000D01*
X96520000Y-81280000D02*
X101600000Y-81280000D01*
X95250000Y-80010000D02*
X96520000Y-81280000D01*
G04 #@! TO.N,Net-(Q3-Pad2)*
X113030000Y-69850000D02*
X113030000Y-67310000D01*
X115570000Y-64770000D02*
X118110000Y-64770000D01*
X113030000Y-67310000D02*
X115570000Y-64770000D01*
X115570000Y-73660000D02*
X115570000Y-64770000D01*
G04 #@! TO.N,Net-(Q4-Pad2)*
X113030000Y-85090000D02*
X125730000Y-85090000D01*
X127000000Y-86360000D02*
X128270000Y-86360000D01*
X125730000Y-85090000D02*
X127000000Y-86360000D01*
X125730000Y-87630000D02*
X127000000Y-86360000D01*
X113030000Y-87630000D02*
X125730000Y-87630000D01*
G04 #@! TO.N,/PULL_HIGH*
X132080000Y-67310000D02*
X135890000Y-71120000D01*
X129540000Y-67310000D02*
X132080000Y-67310000D01*
X139700000Y-76480051D02*
X139700000Y-77470000D01*
X139700000Y-74080000D02*
X139700000Y-76480051D01*
X136740000Y-71120000D02*
X139700000Y-74080000D01*
X135890000Y-71120000D02*
X136740000Y-71120000D01*
X139700000Y-77470000D02*
X139700000Y-82550000D01*
X139700000Y-82550000D02*
X132080000Y-90170000D01*
X101600000Y-109220000D02*
X106680000Y-114300000D01*
X101600000Y-104140000D02*
X101600000Y-109220000D01*
X89610000Y-100620000D02*
X83110000Y-100620000D01*
X101600000Y-90170000D02*
X99060000Y-92710000D01*
X99060000Y-92710000D02*
X99060000Y-101600000D01*
X99060000Y-101600000D02*
X101600000Y-104140000D01*
X132080000Y-92440000D02*
X136450000Y-96810000D01*
X132080000Y-90170000D02*
X132080000Y-92440000D01*
X136450000Y-96810000D02*
X142950000Y-96810000D01*
X97790000Y-109220000D02*
X101600000Y-109220000D01*
X92710000Y-114300000D02*
X97790000Y-109220000D01*
X87630000Y-114300000D02*
X92710000Y-114300000D01*
X81280000Y-104140000D02*
X81280000Y-107950000D01*
X81280000Y-107950000D02*
X87630000Y-114300000D01*
X82360001Y-103059999D02*
X81280000Y-104140000D01*
X82360001Y-101369999D02*
X82360001Y-103059999D01*
X83110000Y-100620000D02*
X82360001Y-101369999D01*
X101600000Y-90170000D02*
X132080000Y-90170000D01*
G04 #@! TO.N,/XOR_IN_A*
X86360000Y-63500000D02*
X86360000Y-67310000D01*
X86360000Y-67310000D02*
X85090000Y-67310000D01*
X85090000Y-67310000D02*
X81280000Y-71120000D01*
X81280000Y-71120000D02*
X81280000Y-81280000D01*
X87630000Y-87630000D02*
X105410000Y-87630000D01*
X81280000Y-81280000D02*
X87630000Y-87630000D01*
X119380000Y-114300000D02*
X119380000Y-113030000D01*
X121920000Y-110490000D02*
X121920000Y-100330000D01*
X119380000Y-113030000D02*
X121920000Y-110490000D01*
G04 #@! TO.N,/LED_E*
X110490000Y-123190000D02*
X109220000Y-121920000D01*
X110490000Y-125730000D02*
X110490000Y-123190000D01*
X114300000Y-125730000D02*
X110490000Y-125730000D01*
X116840000Y-133350000D02*
X116840000Y-128270000D01*
X127000000Y-130810000D02*
X124460000Y-133350000D01*
X116840000Y-128270000D02*
X114300000Y-125730000D01*
X132080000Y-128270000D02*
X129540000Y-130810000D01*
X118110000Y-134620000D02*
X116840000Y-133350000D01*
X133350000Y-128270000D02*
X132080000Y-128270000D01*
X129540000Y-130810000D02*
X127000000Y-130810000D01*
X119380000Y-134620000D02*
X118110000Y-134620000D01*
X135890000Y-125730000D02*
X133350000Y-128270000D01*
X120650000Y-133350000D02*
X119380000Y-134620000D01*
X124460000Y-133350000D02*
X120650000Y-133350000D01*
X135890000Y-119380000D02*
X135890000Y-125730000D01*
X86360000Y-76200000D02*
X86360000Y-80010000D01*
X86360000Y-80010000D02*
X86360000Y-81280000D01*
X90170000Y-85090000D02*
X105410000Y-85090000D01*
X86360000Y-81280000D02*
X90170000Y-85090000D01*
G04 #@! TO.N,/LED_A*
X99060000Y-129540000D02*
X100330000Y-128270000D01*
X97790000Y-129540000D02*
X99060000Y-129540000D01*
X77470000Y-59690000D02*
X69850000Y-67310000D01*
X66084999Y-77425001D02*
X66084999Y-95294999D01*
X85090000Y-124460000D02*
X88900000Y-128270000D01*
X83820000Y-124460000D02*
X85090000Y-124460000D01*
X81324999Y-121964999D02*
X83820000Y-124460000D01*
X100330000Y-128270000D02*
X100330000Y-118110000D01*
X81324999Y-114344999D02*
X81324999Y-121964999D01*
X67310000Y-100330000D02*
X81324999Y-114344999D01*
X96520000Y-128270000D02*
X97790000Y-129540000D01*
X67310000Y-96520000D02*
X67310000Y-100330000D01*
X100330000Y-118110000D02*
X104140000Y-114300000D01*
X88900000Y-128270000D02*
X96520000Y-128270000D01*
X69850000Y-67310000D02*
X69850000Y-73660000D01*
X66084999Y-95294999D02*
X67310000Y-96520000D01*
X69850000Y-73660000D02*
X66084999Y-77425001D01*
G04 #@! TO.N,/LED_B*
X101600000Y-130810000D02*
X101600000Y-121920000D01*
X100330000Y-132080000D02*
X101600000Y-130810000D01*
X97790000Y-132080000D02*
X100330000Y-132080000D01*
X95250000Y-129540000D02*
X97790000Y-132080000D01*
X88900000Y-129540000D02*
X95250000Y-129540000D01*
X82550000Y-125730000D02*
X85090000Y-125730000D01*
X78784999Y-121964999D02*
X82550000Y-125730000D01*
X66040000Y-97790000D02*
X66040000Y-101600000D01*
X64770000Y-88900000D02*
X64770000Y-96520000D01*
X78784999Y-114344999D02*
X78784999Y-121964999D01*
X64770000Y-96520000D02*
X66040000Y-97790000D01*
X85090000Y-125730000D02*
X88900000Y-129540000D01*
X66040000Y-101600000D02*
X78784999Y-114344999D01*
G04 #@! TO.N,/LED_C*
X104140000Y-130810000D02*
X104140000Y-121920000D01*
X101600000Y-133350000D02*
X104140000Y-130810000D01*
X96520000Y-133350000D02*
X101600000Y-133350000D01*
X82550000Y-127000000D02*
X85090000Y-127000000D01*
X88900000Y-130810000D02*
X93980000Y-130810000D01*
X85090000Y-127000000D02*
X88900000Y-130810000D01*
X77470000Y-121920000D02*
X82550000Y-127000000D01*
X93980000Y-130810000D02*
X96520000Y-133350000D01*
X77470000Y-118110000D02*
X77470000Y-121920000D01*
G04 #@! TO.N,/LED_D*
X106680000Y-130810000D02*
X106680000Y-121920000D01*
G04 #@! TO.N,/LED_F*
X114300000Y-124460000D02*
X111760000Y-124460000D01*
X118110000Y-128270000D02*
X114300000Y-124460000D01*
X124460000Y-132080000D02*
X120650000Y-132080000D01*
X127000000Y-129540000D02*
X124460000Y-132080000D01*
X129540000Y-129540000D02*
X127000000Y-129540000D01*
X132080000Y-127000000D02*
X129540000Y-129540000D01*
X133350000Y-127000000D02*
X132080000Y-127000000D01*
X137160000Y-114300000D02*
X133350000Y-118110000D01*
X146050000Y-114300000D02*
X137160000Y-114300000D01*
X111760000Y-124460000D02*
X111760000Y-121920000D01*
X149860000Y-110490000D02*
X146050000Y-114300000D01*
X148590000Y-91440000D02*
X151130000Y-93980000D01*
X149860000Y-107950000D02*
X149860000Y-110490000D01*
X151130000Y-93980000D02*
X154940000Y-93980000D01*
X154940000Y-102870000D02*
X149860000Y-107950000D01*
X133350000Y-118110000D02*
X133350000Y-127000000D01*
X154940000Y-93980000D02*
X154940000Y-102870000D01*
X148590000Y-88900000D02*
X148590000Y-91440000D01*
X120650000Y-132080000D02*
X119380000Y-132080000D01*
X119380000Y-132080000D02*
X118110000Y-130810000D01*
X118110000Y-130810000D02*
X118110000Y-128270000D01*
G04 #@! TO.N,/LED_G*
X135890000Y-59690000D02*
X135890000Y-62230000D01*
X135890000Y-62230000D02*
X137160000Y-63500000D01*
X137160000Y-63500000D02*
X146050000Y-63500000D01*
X146050000Y-63500000D02*
X149860000Y-67310000D01*
X149860000Y-67310000D02*
X149860000Y-73660000D01*
X149860000Y-73660000D02*
X151130000Y-74930000D01*
X151130000Y-74930000D02*
X151130000Y-81280000D01*
X151130000Y-81280000D02*
X146050000Y-86360000D01*
X146050000Y-86360000D02*
X146050000Y-91440000D01*
X146050000Y-91440000D02*
X147320000Y-91440000D01*
X147320000Y-91440000D02*
X151130000Y-95250000D01*
X151130000Y-95250000D02*
X153670000Y-95250000D01*
X153670000Y-95250000D02*
X153670000Y-102870000D01*
X153670000Y-102870000D02*
X148590000Y-107950000D01*
X148590000Y-107950000D02*
X148590000Y-110490000D01*
X148590000Y-110490000D02*
X146050000Y-113030000D01*
X146050000Y-113030000D02*
X135890000Y-113030000D01*
X135890000Y-113030000D02*
X132080000Y-116840000D01*
X132080000Y-116840000D02*
X132080000Y-125730000D01*
X132080000Y-125730000D02*
X129540000Y-128270000D01*
X129540000Y-128270000D02*
X125730000Y-128270000D01*
X125730000Y-128270000D02*
X123190000Y-130810000D01*
X114300000Y-123190000D02*
X114300000Y-121920000D01*
X119380000Y-128270000D02*
X114300000Y-123190000D01*
X119380000Y-128270000D02*
X119380000Y-129540000D01*
X119380000Y-129540000D02*
X120650000Y-130810000D01*
X120650000Y-130810000D02*
X123190000Y-130810000D01*
G04 #@! TO.N,/LED_H*
X116840000Y-124460000D02*
X116840000Y-121920000D01*
X121920000Y-129540000D02*
X116840000Y-124460000D01*
X123190000Y-129540000D02*
X121920000Y-129540000D01*
X129540000Y-127000000D02*
X125730000Y-127000000D01*
X130810000Y-125730000D02*
X129540000Y-127000000D01*
X130810000Y-116840000D02*
X130810000Y-125730000D01*
X135890000Y-111760000D02*
X130810000Y-116840000D01*
X146050000Y-111760000D02*
X135890000Y-111760000D01*
X147320000Y-110490000D02*
X146050000Y-111760000D01*
X147320000Y-107950000D02*
X147320000Y-110490000D01*
X152400000Y-102870000D02*
X147320000Y-107950000D01*
X152400000Y-96520000D02*
X152400000Y-102870000D01*
X151130000Y-96520000D02*
X152400000Y-96520000D01*
X147320000Y-92710000D02*
X151130000Y-96520000D01*
X144780000Y-91440000D02*
X146050000Y-92710000D01*
X149860000Y-74930000D02*
X149860000Y-81280000D01*
X144780000Y-86360000D02*
X144780000Y-91440000D01*
X148590000Y-73660000D02*
X149860000Y-74930000D01*
X146050000Y-64770000D02*
X148590000Y-67310000D01*
X106680000Y-46990000D02*
X106680000Y-48260000D01*
X137160000Y-64770000D02*
X146050000Y-64770000D01*
X146050000Y-92710000D02*
X147320000Y-92710000D01*
X125730000Y-127000000D02*
X123190000Y-129540000D01*
X134620000Y-62230000D02*
X137160000Y-64770000D01*
X149860000Y-81280000D02*
X144780000Y-86360000D01*
X148590000Y-67310000D02*
X148590000Y-73660000D01*
X106680000Y-48260000D02*
X111760000Y-53340000D01*
X134620000Y-53340000D02*
X134620000Y-62230000D01*
X111760000Y-53340000D02*
X134620000Y-53340000D01*
G04 #@! TO.N,Net-(R24-Pad1)*
X100330000Y-113030000D02*
X101600000Y-114300000D01*
X100330000Y-111760000D02*
X100330000Y-113030000D01*
G04 #@! TO.N,Net-(R25-Pad2)*
X105410000Y-99060000D02*
X106680000Y-100330000D01*
X105410000Y-96520000D02*
X105410000Y-99060000D01*
X101600000Y-96520000D02*
X105410000Y-96520000D01*
X105410000Y-92710000D02*
X105410000Y-96520000D01*
G04 #@! TO.N,Net-(R26-Pad1)*
X109220000Y-96520000D02*
X109220000Y-100330000D01*
X109220000Y-96520000D02*
X116840000Y-96520000D01*
G04 #@! TO.N,/555_OUT*
X111760000Y-107950000D02*
X111760000Y-114300000D01*
X114300000Y-114300000D02*
X111760000Y-111760000D01*
G04 #@! TO.N,Net-(Q5-Pad2)*
X128270000Y-72390000D02*
X135890000Y-72390000D01*
X128270000Y-76200000D02*
X129540000Y-76200000D01*
X129540000Y-76200000D02*
X133350000Y-72390000D01*
G04 #@! TO.N,Net-(Q1-Pad3)*
X99060000Y-60960000D02*
X101600000Y-63500000D01*
X99060000Y-57150000D02*
X99060000Y-60960000D01*
X102450000Y-63500000D02*
X105410000Y-66460000D01*
X105410000Y-68860051D02*
X105410000Y-69850000D01*
X105410000Y-66460000D02*
X105410000Y-68860051D01*
X101600000Y-63500000D02*
X102450000Y-63500000D01*
G04 #@! TO.N,Net-(Q2-Pad3)*
X100330000Y-80010000D02*
X101600000Y-80010000D01*
X97790000Y-77470000D02*
X100330000Y-80010000D01*
X97790000Y-76200000D02*
X97790000Y-77470000D01*
X102870000Y-74930000D02*
X102870000Y-78740000D01*
X104140000Y-73660000D02*
X102870000Y-74930000D01*
X107950000Y-73660000D02*
X104140000Y-73660000D01*
X101600000Y-80010000D02*
X102870000Y-78740000D01*
G04 #@! TO.N,Net-(Q3-Pad3)*
X116840000Y-63500000D02*
X118110000Y-63500000D01*
X113030000Y-59690000D02*
X116840000Y-63500000D01*
X113030000Y-57150000D02*
X113030000Y-59690000D01*
X118110000Y-63500000D02*
X120650000Y-63500000D01*
X120650000Y-63500000D02*
X121920000Y-64770000D01*
X121920000Y-64770000D02*
X121920000Y-67310000D01*
X120650000Y-68580000D02*
X120650000Y-72390000D01*
X121920000Y-67310000D02*
X120650000Y-68580000D01*
G04 #@! TO.N,Net-(Q4-Pad3)*
X120650000Y-76200000D02*
X123190000Y-76200000D01*
X125730000Y-78740000D02*
X125730000Y-81280000D01*
X123190000Y-76200000D02*
X125730000Y-78740000D01*
X125730000Y-81280000D02*
X125730000Y-82550000D01*
X125730000Y-82550000D02*
X128270000Y-85090000D01*
G04 #@! TO.N,Net-(J1-Pad1)*
X133350000Y-102870000D02*
X129540000Y-106680000D01*
X133350000Y-96520000D02*
X133350000Y-102870000D01*
G04 #@! TD*
M02*
