G04 #@! TF.GenerationSoftware,KiCad,Pcbnew,(5.0.0-3-g5ebb6b6)*
G04 #@! TF.CreationDate,2018-09-25T19:29:36-07:00*
G04 #@! TF.ProjectId,christmas-board,6368726973746D61732D626F6172642E,rev?*
G04 #@! TF.SameCoordinates,Original*
G04 #@! TF.FileFunction,Soldermask,Bot*
G04 #@! TF.FilePolarity,Negative*
%FSLAX46Y46*%
G04 Gerber Fmt 4.6, Leading zero omitted, Abs format (unit mm)*
G04 Created by KiCad (PCBNEW (5.0.0-3-g5ebb6b6)) date Tuesday, September 25, 2018 at 07:29:36 PM*
%MOMM*%
%LPD*%
G01*
G04 APERTURE LIST*
%ADD10C,2.400000*%
%ADD11C,1.900000*%
%ADD12R,1.600000X1.600000*%
%ADD13C,1.600000*%
%ADD14C,2.200000*%
%ADD15R,2.200000X2.200000*%
%ADD16C,0.100000*%
%ADD17C,1.450000*%
%ADD18R,1.900000X1.450000*%
%ADD19C,1.800000*%
%ADD20O,1.800000X1.800000*%
%ADD21R,2.000000X2.000000*%
%ADD22O,2.000000X2.000000*%
%ADD23R,2.100000X2.100000*%
%ADD24O,2.100000X2.100000*%
G04 APERTURE END LIST*
D10*
G04 #@! TO.C,J1*
X133350000Y-96520000D03*
X133350000Y-109220000D03*
G04 #@! TD*
D11*
G04 #@! TO.C,SW2*
X142950000Y-96810000D03*
X136450000Y-96810000D03*
X136450000Y-101310000D03*
X142950000Y-101310000D03*
G04 #@! TD*
G04 #@! TO.C,SW1*
X89610000Y-100620000D03*
X83110000Y-100620000D03*
X83110000Y-105120000D03*
X89610000Y-105120000D03*
G04 #@! TD*
D12*
G04 #@! TO.C,C1*
X127000000Y-100330000D03*
D13*
X127000000Y-101830000D03*
G04 #@! TD*
D14*
G04 #@! TO.C,D1*
X82550000Y-59690000D03*
D15*
X80010000Y-59690000D03*
G04 #@! TD*
G04 #@! TO.C,D2*
X67310000Y-88900000D03*
D14*
X69850000Y-88900000D03*
G04 #@! TD*
G04 #@! TO.C,D3*
X82550000Y-118110000D03*
D15*
X80010000Y-118110000D03*
G04 #@! TD*
G04 #@! TO.C,D4*
X109220000Y-130810000D03*
D14*
X111760000Y-130810000D03*
G04 #@! TD*
D15*
G04 #@! TO.C,D5*
X138430000Y-119380000D03*
D14*
X140970000Y-119380000D03*
G04 #@! TD*
G04 #@! TO.C,D6*
X153670000Y-88900000D03*
D15*
X151130000Y-88900000D03*
G04 #@! TD*
G04 #@! TO.C,D7*
X138430000Y-59690000D03*
D14*
X140970000Y-59690000D03*
G04 #@! TD*
G04 #@! TO.C,D8*
X111760000Y-46990000D03*
D15*
X109220000Y-46990000D03*
G04 #@! TD*
D16*
G04 #@! TO.C,Q1*
G36*
X102223031Y-64046746D02*
X102258220Y-64051965D01*
X102292728Y-64060609D01*
X102326223Y-64072594D01*
X102358381Y-64087804D01*
X102388894Y-64106092D01*
X102417468Y-64127284D01*
X102443826Y-64151174D01*
X102467716Y-64177532D01*
X102488908Y-64206106D01*
X102507196Y-64236619D01*
X102522406Y-64268777D01*
X102534391Y-64302272D01*
X102543035Y-64336780D01*
X102548254Y-64371969D01*
X102550000Y-64407500D01*
X102550000Y-65132500D01*
X102548254Y-65168031D01*
X102543035Y-65203220D01*
X102534391Y-65237728D01*
X102522406Y-65271223D01*
X102507196Y-65303381D01*
X102488908Y-65333894D01*
X102467716Y-65362468D01*
X102443826Y-65388826D01*
X102417468Y-65412716D01*
X102388894Y-65433908D01*
X102358381Y-65452196D01*
X102326223Y-65467406D01*
X102292728Y-65479391D01*
X102258220Y-65488035D01*
X102223031Y-65493254D01*
X102187500Y-65495000D01*
X101012500Y-65495000D01*
X100976969Y-65493254D01*
X100941780Y-65488035D01*
X100907272Y-65479391D01*
X100873777Y-65467406D01*
X100841619Y-65452196D01*
X100811106Y-65433908D01*
X100782532Y-65412716D01*
X100756174Y-65388826D01*
X100732284Y-65362468D01*
X100711092Y-65333894D01*
X100692804Y-65303381D01*
X100677594Y-65271223D01*
X100665609Y-65237728D01*
X100656965Y-65203220D01*
X100651746Y-65168031D01*
X100650000Y-65132500D01*
X100650000Y-64407500D01*
X100651746Y-64371969D01*
X100656965Y-64336780D01*
X100665609Y-64302272D01*
X100677594Y-64268777D01*
X100692804Y-64236619D01*
X100711092Y-64206106D01*
X100732284Y-64177532D01*
X100756174Y-64151174D01*
X100782532Y-64127284D01*
X100811106Y-64106092D01*
X100841619Y-64087804D01*
X100873777Y-64072594D01*
X100907272Y-64060609D01*
X100941780Y-64051965D01*
X100976969Y-64046746D01*
X101012500Y-64045000D01*
X102187500Y-64045000D01*
X102223031Y-64046746D01*
X102223031Y-64046746D01*
G37*
D17*
X101600000Y-64770000D03*
D16*
G36*
X102223031Y-62776746D02*
X102258220Y-62781965D01*
X102292728Y-62790609D01*
X102326223Y-62802594D01*
X102358381Y-62817804D01*
X102388894Y-62836092D01*
X102417468Y-62857284D01*
X102443826Y-62881174D01*
X102467716Y-62907532D01*
X102488908Y-62936106D01*
X102507196Y-62966619D01*
X102522406Y-62998777D01*
X102534391Y-63032272D01*
X102543035Y-63066780D01*
X102548254Y-63101969D01*
X102550000Y-63137500D01*
X102550000Y-63862500D01*
X102548254Y-63898031D01*
X102543035Y-63933220D01*
X102534391Y-63967728D01*
X102522406Y-64001223D01*
X102507196Y-64033381D01*
X102488908Y-64063894D01*
X102467716Y-64092468D01*
X102443826Y-64118826D01*
X102417468Y-64142716D01*
X102388894Y-64163908D01*
X102358381Y-64182196D01*
X102326223Y-64197406D01*
X102292728Y-64209391D01*
X102258220Y-64218035D01*
X102223031Y-64223254D01*
X102187500Y-64225000D01*
X101012500Y-64225000D01*
X100976969Y-64223254D01*
X100941780Y-64218035D01*
X100907272Y-64209391D01*
X100873777Y-64197406D01*
X100841619Y-64182196D01*
X100811106Y-64163908D01*
X100782532Y-64142716D01*
X100756174Y-64118826D01*
X100732284Y-64092468D01*
X100711092Y-64063894D01*
X100692804Y-64033381D01*
X100677594Y-64001223D01*
X100665609Y-63967728D01*
X100656965Y-63933220D01*
X100651746Y-63898031D01*
X100650000Y-63862500D01*
X100650000Y-63137500D01*
X100651746Y-63101969D01*
X100656965Y-63066780D01*
X100665609Y-63032272D01*
X100677594Y-62998777D01*
X100692804Y-62966619D01*
X100711092Y-62936106D01*
X100732284Y-62907532D01*
X100756174Y-62881174D01*
X100782532Y-62857284D01*
X100811106Y-62836092D01*
X100841619Y-62817804D01*
X100873777Y-62802594D01*
X100907272Y-62790609D01*
X100941780Y-62781965D01*
X100976969Y-62776746D01*
X101012500Y-62775000D01*
X102187500Y-62775000D01*
X102223031Y-62776746D01*
X102223031Y-62776746D01*
G37*
D17*
X101600000Y-63500000D03*
D18*
X101600000Y-66040000D03*
G04 #@! TD*
D16*
G04 #@! TO.C,Q2*
G36*
X102223031Y-80556746D02*
X102258220Y-80561965D01*
X102292728Y-80570609D01*
X102326223Y-80582594D01*
X102358381Y-80597804D01*
X102388894Y-80616092D01*
X102417468Y-80637284D01*
X102443826Y-80661174D01*
X102467716Y-80687532D01*
X102488908Y-80716106D01*
X102507196Y-80746619D01*
X102522406Y-80778777D01*
X102534391Y-80812272D01*
X102543035Y-80846780D01*
X102548254Y-80881969D01*
X102550000Y-80917500D01*
X102550000Y-81642500D01*
X102548254Y-81678031D01*
X102543035Y-81713220D01*
X102534391Y-81747728D01*
X102522406Y-81781223D01*
X102507196Y-81813381D01*
X102488908Y-81843894D01*
X102467716Y-81872468D01*
X102443826Y-81898826D01*
X102417468Y-81922716D01*
X102388894Y-81943908D01*
X102358381Y-81962196D01*
X102326223Y-81977406D01*
X102292728Y-81989391D01*
X102258220Y-81998035D01*
X102223031Y-82003254D01*
X102187500Y-82005000D01*
X101012500Y-82005000D01*
X100976969Y-82003254D01*
X100941780Y-81998035D01*
X100907272Y-81989391D01*
X100873777Y-81977406D01*
X100841619Y-81962196D01*
X100811106Y-81943908D01*
X100782532Y-81922716D01*
X100756174Y-81898826D01*
X100732284Y-81872468D01*
X100711092Y-81843894D01*
X100692804Y-81813381D01*
X100677594Y-81781223D01*
X100665609Y-81747728D01*
X100656965Y-81713220D01*
X100651746Y-81678031D01*
X100650000Y-81642500D01*
X100650000Y-80917500D01*
X100651746Y-80881969D01*
X100656965Y-80846780D01*
X100665609Y-80812272D01*
X100677594Y-80778777D01*
X100692804Y-80746619D01*
X100711092Y-80716106D01*
X100732284Y-80687532D01*
X100756174Y-80661174D01*
X100782532Y-80637284D01*
X100811106Y-80616092D01*
X100841619Y-80597804D01*
X100873777Y-80582594D01*
X100907272Y-80570609D01*
X100941780Y-80561965D01*
X100976969Y-80556746D01*
X101012500Y-80555000D01*
X102187500Y-80555000D01*
X102223031Y-80556746D01*
X102223031Y-80556746D01*
G37*
D17*
X101600000Y-81280000D03*
D16*
G36*
X102223031Y-79286746D02*
X102258220Y-79291965D01*
X102292728Y-79300609D01*
X102326223Y-79312594D01*
X102358381Y-79327804D01*
X102388894Y-79346092D01*
X102417468Y-79367284D01*
X102443826Y-79391174D01*
X102467716Y-79417532D01*
X102488908Y-79446106D01*
X102507196Y-79476619D01*
X102522406Y-79508777D01*
X102534391Y-79542272D01*
X102543035Y-79576780D01*
X102548254Y-79611969D01*
X102550000Y-79647500D01*
X102550000Y-80372500D01*
X102548254Y-80408031D01*
X102543035Y-80443220D01*
X102534391Y-80477728D01*
X102522406Y-80511223D01*
X102507196Y-80543381D01*
X102488908Y-80573894D01*
X102467716Y-80602468D01*
X102443826Y-80628826D01*
X102417468Y-80652716D01*
X102388894Y-80673908D01*
X102358381Y-80692196D01*
X102326223Y-80707406D01*
X102292728Y-80719391D01*
X102258220Y-80728035D01*
X102223031Y-80733254D01*
X102187500Y-80735000D01*
X101012500Y-80735000D01*
X100976969Y-80733254D01*
X100941780Y-80728035D01*
X100907272Y-80719391D01*
X100873777Y-80707406D01*
X100841619Y-80692196D01*
X100811106Y-80673908D01*
X100782532Y-80652716D01*
X100756174Y-80628826D01*
X100732284Y-80602468D01*
X100711092Y-80573894D01*
X100692804Y-80543381D01*
X100677594Y-80511223D01*
X100665609Y-80477728D01*
X100656965Y-80443220D01*
X100651746Y-80408031D01*
X100650000Y-80372500D01*
X100650000Y-79647500D01*
X100651746Y-79611969D01*
X100656965Y-79576780D01*
X100665609Y-79542272D01*
X100677594Y-79508777D01*
X100692804Y-79476619D01*
X100711092Y-79446106D01*
X100732284Y-79417532D01*
X100756174Y-79391174D01*
X100782532Y-79367284D01*
X100811106Y-79346092D01*
X100841619Y-79327804D01*
X100873777Y-79312594D01*
X100907272Y-79300609D01*
X100941780Y-79291965D01*
X100976969Y-79286746D01*
X101012500Y-79285000D01*
X102187500Y-79285000D01*
X102223031Y-79286746D01*
X102223031Y-79286746D01*
G37*
D17*
X101600000Y-80010000D03*
D18*
X101600000Y-82550000D03*
G04 #@! TD*
G04 #@! TO.C,Q3*
X118110000Y-66040000D03*
D16*
G36*
X118733031Y-62776746D02*
X118768220Y-62781965D01*
X118802728Y-62790609D01*
X118836223Y-62802594D01*
X118868381Y-62817804D01*
X118898894Y-62836092D01*
X118927468Y-62857284D01*
X118953826Y-62881174D01*
X118977716Y-62907532D01*
X118998908Y-62936106D01*
X119017196Y-62966619D01*
X119032406Y-62998777D01*
X119044391Y-63032272D01*
X119053035Y-63066780D01*
X119058254Y-63101969D01*
X119060000Y-63137500D01*
X119060000Y-63862500D01*
X119058254Y-63898031D01*
X119053035Y-63933220D01*
X119044391Y-63967728D01*
X119032406Y-64001223D01*
X119017196Y-64033381D01*
X118998908Y-64063894D01*
X118977716Y-64092468D01*
X118953826Y-64118826D01*
X118927468Y-64142716D01*
X118898894Y-64163908D01*
X118868381Y-64182196D01*
X118836223Y-64197406D01*
X118802728Y-64209391D01*
X118768220Y-64218035D01*
X118733031Y-64223254D01*
X118697500Y-64225000D01*
X117522500Y-64225000D01*
X117486969Y-64223254D01*
X117451780Y-64218035D01*
X117417272Y-64209391D01*
X117383777Y-64197406D01*
X117351619Y-64182196D01*
X117321106Y-64163908D01*
X117292532Y-64142716D01*
X117266174Y-64118826D01*
X117242284Y-64092468D01*
X117221092Y-64063894D01*
X117202804Y-64033381D01*
X117187594Y-64001223D01*
X117175609Y-63967728D01*
X117166965Y-63933220D01*
X117161746Y-63898031D01*
X117160000Y-63862500D01*
X117160000Y-63137500D01*
X117161746Y-63101969D01*
X117166965Y-63066780D01*
X117175609Y-63032272D01*
X117187594Y-62998777D01*
X117202804Y-62966619D01*
X117221092Y-62936106D01*
X117242284Y-62907532D01*
X117266174Y-62881174D01*
X117292532Y-62857284D01*
X117321106Y-62836092D01*
X117351619Y-62817804D01*
X117383777Y-62802594D01*
X117417272Y-62790609D01*
X117451780Y-62781965D01*
X117486969Y-62776746D01*
X117522500Y-62775000D01*
X118697500Y-62775000D01*
X118733031Y-62776746D01*
X118733031Y-62776746D01*
G37*
D17*
X118110000Y-63500000D03*
D16*
G36*
X118733031Y-64046746D02*
X118768220Y-64051965D01*
X118802728Y-64060609D01*
X118836223Y-64072594D01*
X118868381Y-64087804D01*
X118898894Y-64106092D01*
X118927468Y-64127284D01*
X118953826Y-64151174D01*
X118977716Y-64177532D01*
X118998908Y-64206106D01*
X119017196Y-64236619D01*
X119032406Y-64268777D01*
X119044391Y-64302272D01*
X119053035Y-64336780D01*
X119058254Y-64371969D01*
X119060000Y-64407500D01*
X119060000Y-65132500D01*
X119058254Y-65168031D01*
X119053035Y-65203220D01*
X119044391Y-65237728D01*
X119032406Y-65271223D01*
X119017196Y-65303381D01*
X118998908Y-65333894D01*
X118977716Y-65362468D01*
X118953826Y-65388826D01*
X118927468Y-65412716D01*
X118898894Y-65433908D01*
X118868381Y-65452196D01*
X118836223Y-65467406D01*
X118802728Y-65479391D01*
X118768220Y-65488035D01*
X118733031Y-65493254D01*
X118697500Y-65495000D01*
X117522500Y-65495000D01*
X117486969Y-65493254D01*
X117451780Y-65488035D01*
X117417272Y-65479391D01*
X117383777Y-65467406D01*
X117351619Y-65452196D01*
X117321106Y-65433908D01*
X117292532Y-65412716D01*
X117266174Y-65388826D01*
X117242284Y-65362468D01*
X117221092Y-65333894D01*
X117202804Y-65303381D01*
X117187594Y-65271223D01*
X117175609Y-65237728D01*
X117166965Y-65203220D01*
X117161746Y-65168031D01*
X117160000Y-65132500D01*
X117160000Y-64407500D01*
X117161746Y-64371969D01*
X117166965Y-64336780D01*
X117175609Y-64302272D01*
X117187594Y-64268777D01*
X117202804Y-64236619D01*
X117221092Y-64206106D01*
X117242284Y-64177532D01*
X117266174Y-64151174D01*
X117292532Y-64127284D01*
X117321106Y-64106092D01*
X117351619Y-64087804D01*
X117383777Y-64072594D01*
X117417272Y-64060609D01*
X117451780Y-64051965D01*
X117486969Y-64046746D01*
X117522500Y-64045000D01*
X118697500Y-64045000D01*
X118733031Y-64046746D01*
X118733031Y-64046746D01*
G37*
D17*
X118110000Y-64770000D03*
G04 #@! TD*
D18*
G04 #@! TO.C,Q4*
X128270000Y-87630000D03*
D16*
G36*
X128893031Y-84366746D02*
X128928220Y-84371965D01*
X128962728Y-84380609D01*
X128996223Y-84392594D01*
X129028381Y-84407804D01*
X129058894Y-84426092D01*
X129087468Y-84447284D01*
X129113826Y-84471174D01*
X129137716Y-84497532D01*
X129158908Y-84526106D01*
X129177196Y-84556619D01*
X129192406Y-84588777D01*
X129204391Y-84622272D01*
X129213035Y-84656780D01*
X129218254Y-84691969D01*
X129220000Y-84727500D01*
X129220000Y-85452500D01*
X129218254Y-85488031D01*
X129213035Y-85523220D01*
X129204391Y-85557728D01*
X129192406Y-85591223D01*
X129177196Y-85623381D01*
X129158908Y-85653894D01*
X129137716Y-85682468D01*
X129113826Y-85708826D01*
X129087468Y-85732716D01*
X129058894Y-85753908D01*
X129028381Y-85772196D01*
X128996223Y-85787406D01*
X128962728Y-85799391D01*
X128928220Y-85808035D01*
X128893031Y-85813254D01*
X128857500Y-85815000D01*
X127682500Y-85815000D01*
X127646969Y-85813254D01*
X127611780Y-85808035D01*
X127577272Y-85799391D01*
X127543777Y-85787406D01*
X127511619Y-85772196D01*
X127481106Y-85753908D01*
X127452532Y-85732716D01*
X127426174Y-85708826D01*
X127402284Y-85682468D01*
X127381092Y-85653894D01*
X127362804Y-85623381D01*
X127347594Y-85591223D01*
X127335609Y-85557728D01*
X127326965Y-85523220D01*
X127321746Y-85488031D01*
X127320000Y-85452500D01*
X127320000Y-84727500D01*
X127321746Y-84691969D01*
X127326965Y-84656780D01*
X127335609Y-84622272D01*
X127347594Y-84588777D01*
X127362804Y-84556619D01*
X127381092Y-84526106D01*
X127402284Y-84497532D01*
X127426174Y-84471174D01*
X127452532Y-84447284D01*
X127481106Y-84426092D01*
X127511619Y-84407804D01*
X127543777Y-84392594D01*
X127577272Y-84380609D01*
X127611780Y-84371965D01*
X127646969Y-84366746D01*
X127682500Y-84365000D01*
X128857500Y-84365000D01*
X128893031Y-84366746D01*
X128893031Y-84366746D01*
G37*
D17*
X128270000Y-85090000D03*
D16*
G36*
X128893031Y-85636746D02*
X128928220Y-85641965D01*
X128962728Y-85650609D01*
X128996223Y-85662594D01*
X129028381Y-85677804D01*
X129058894Y-85696092D01*
X129087468Y-85717284D01*
X129113826Y-85741174D01*
X129137716Y-85767532D01*
X129158908Y-85796106D01*
X129177196Y-85826619D01*
X129192406Y-85858777D01*
X129204391Y-85892272D01*
X129213035Y-85926780D01*
X129218254Y-85961969D01*
X129220000Y-85997500D01*
X129220000Y-86722500D01*
X129218254Y-86758031D01*
X129213035Y-86793220D01*
X129204391Y-86827728D01*
X129192406Y-86861223D01*
X129177196Y-86893381D01*
X129158908Y-86923894D01*
X129137716Y-86952468D01*
X129113826Y-86978826D01*
X129087468Y-87002716D01*
X129058894Y-87023908D01*
X129028381Y-87042196D01*
X128996223Y-87057406D01*
X128962728Y-87069391D01*
X128928220Y-87078035D01*
X128893031Y-87083254D01*
X128857500Y-87085000D01*
X127682500Y-87085000D01*
X127646969Y-87083254D01*
X127611780Y-87078035D01*
X127577272Y-87069391D01*
X127543777Y-87057406D01*
X127511619Y-87042196D01*
X127481106Y-87023908D01*
X127452532Y-87002716D01*
X127426174Y-86978826D01*
X127402284Y-86952468D01*
X127381092Y-86923894D01*
X127362804Y-86893381D01*
X127347594Y-86861223D01*
X127335609Y-86827728D01*
X127326965Y-86793220D01*
X127321746Y-86758031D01*
X127320000Y-86722500D01*
X127320000Y-85997500D01*
X127321746Y-85961969D01*
X127326965Y-85926780D01*
X127335609Y-85892272D01*
X127347594Y-85858777D01*
X127362804Y-85826619D01*
X127381092Y-85796106D01*
X127402284Y-85767532D01*
X127426174Y-85741174D01*
X127452532Y-85717284D01*
X127481106Y-85696092D01*
X127511619Y-85677804D01*
X127543777Y-85662594D01*
X127577272Y-85650609D01*
X127611780Y-85641965D01*
X127646969Y-85636746D01*
X127682500Y-85635000D01*
X128857500Y-85635000D01*
X128893031Y-85636746D01*
X128893031Y-85636746D01*
G37*
D17*
X128270000Y-86360000D03*
G04 #@! TD*
D16*
G04 #@! TO.C,Q5*
G36*
X136513031Y-71666746D02*
X136548220Y-71671965D01*
X136582728Y-71680609D01*
X136616223Y-71692594D01*
X136648381Y-71707804D01*
X136678894Y-71726092D01*
X136707468Y-71747284D01*
X136733826Y-71771174D01*
X136757716Y-71797532D01*
X136778908Y-71826106D01*
X136797196Y-71856619D01*
X136812406Y-71888777D01*
X136824391Y-71922272D01*
X136833035Y-71956780D01*
X136838254Y-71991969D01*
X136840000Y-72027500D01*
X136840000Y-72752500D01*
X136838254Y-72788031D01*
X136833035Y-72823220D01*
X136824391Y-72857728D01*
X136812406Y-72891223D01*
X136797196Y-72923381D01*
X136778908Y-72953894D01*
X136757716Y-72982468D01*
X136733826Y-73008826D01*
X136707468Y-73032716D01*
X136678894Y-73053908D01*
X136648381Y-73072196D01*
X136616223Y-73087406D01*
X136582728Y-73099391D01*
X136548220Y-73108035D01*
X136513031Y-73113254D01*
X136477500Y-73115000D01*
X135302500Y-73115000D01*
X135266969Y-73113254D01*
X135231780Y-73108035D01*
X135197272Y-73099391D01*
X135163777Y-73087406D01*
X135131619Y-73072196D01*
X135101106Y-73053908D01*
X135072532Y-73032716D01*
X135046174Y-73008826D01*
X135022284Y-72982468D01*
X135001092Y-72953894D01*
X134982804Y-72923381D01*
X134967594Y-72891223D01*
X134955609Y-72857728D01*
X134946965Y-72823220D01*
X134941746Y-72788031D01*
X134940000Y-72752500D01*
X134940000Y-72027500D01*
X134941746Y-71991969D01*
X134946965Y-71956780D01*
X134955609Y-71922272D01*
X134967594Y-71888777D01*
X134982804Y-71856619D01*
X135001092Y-71826106D01*
X135022284Y-71797532D01*
X135046174Y-71771174D01*
X135072532Y-71747284D01*
X135101106Y-71726092D01*
X135131619Y-71707804D01*
X135163777Y-71692594D01*
X135197272Y-71680609D01*
X135231780Y-71671965D01*
X135266969Y-71666746D01*
X135302500Y-71665000D01*
X136477500Y-71665000D01*
X136513031Y-71666746D01*
X136513031Y-71666746D01*
G37*
D17*
X135890000Y-72390000D03*
D16*
G36*
X136513031Y-70396746D02*
X136548220Y-70401965D01*
X136582728Y-70410609D01*
X136616223Y-70422594D01*
X136648381Y-70437804D01*
X136678894Y-70456092D01*
X136707468Y-70477284D01*
X136733826Y-70501174D01*
X136757716Y-70527532D01*
X136778908Y-70556106D01*
X136797196Y-70586619D01*
X136812406Y-70618777D01*
X136824391Y-70652272D01*
X136833035Y-70686780D01*
X136838254Y-70721969D01*
X136840000Y-70757500D01*
X136840000Y-71482500D01*
X136838254Y-71518031D01*
X136833035Y-71553220D01*
X136824391Y-71587728D01*
X136812406Y-71621223D01*
X136797196Y-71653381D01*
X136778908Y-71683894D01*
X136757716Y-71712468D01*
X136733826Y-71738826D01*
X136707468Y-71762716D01*
X136678894Y-71783908D01*
X136648381Y-71802196D01*
X136616223Y-71817406D01*
X136582728Y-71829391D01*
X136548220Y-71838035D01*
X136513031Y-71843254D01*
X136477500Y-71845000D01*
X135302500Y-71845000D01*
X135266969Y-71843254D01*
X135231780Y-71838035D01*
X135197272Y-71829391D01*
X135163777Y-71817406D01*
X135131619Y-71802196D01*
X135101106Y-71783908D01*
X135072532Y-71762716D01*
X135046174Y-71738826D01*
X135022284Y-71712468D01*
X135001092Y-71683894D01*
X134982804Y-71653381D01*
X134967594Y-71621223D01*
X134955609Y-71587728D01*
X134946965Y-71553220D01*
X134941746Y-71518031D01*
X134940000Y-71482500D01*
X134940000Y-70757500D01*
X134941746Y-70721969D01*
X134946965Y-70686780D01*
X134955609Y-70652272D01*
X134967594Y-70618777D01*
X134982804Y-70586619D01*
X135001092Y-70556106D01*
X135022284Y-70527532D01*
X135046174Y-70501174D01*
X135072532Y-70477284D01*
X135101106Y-70456092D01*
X135131619Y-70437804D01*
X135163777Y-70422594D01*
X135197272Y-70410609D01*
X135231780Y-70401965D01*
X135266969Y-70396746D01*
X135302500Y-70395000D01*
X136477500Y-70395000D01*
X136513031Y-70396746D01*
X136513031Y-70396746D01*
G37*
D17*
X135890000Y-71120000D03*
D18*
X135890000Y-73660000D03*
G04 #@! TD*
D19*
G04 #@! TO.C,R1*
X86360000Y-63500000D03*
D20*
X93980000Y-63500000D03*
G04 #@! TD*
G04 #@! TO.C,R2*
X93980000Y-76200000D03*
D19*
X86360000Y-76200000D03*
G04 #@! TD*
G04 #@! TO.C,R3*
X93980000Y-67310000D03*
D20*
X86360000Y-67310000D03*
G04 #@! TD*
D19*
G04 #@! TO.C,R4*
X93980000Y-80010000D03*
D20*
X86360000Y-80010000D03*
G04 #@! TD*
G04 #@! TO.C,R5*
X106680000Y-57150000D03*
D19*
X99060000Y-57150000D03*
G04 #@! TD*
D20*
G04 #@! TO.C,R6*
X105410000Y-76200000D03*
D19*
X97790000Y-76200000D03*
G04 #@! TD*
D20*
G04 #@! TO.C,R7*
X105410000Y-69850000D03*
D19*
X113030000Y-69850000D03*
G04 #@! TD*
D20*
G04 #@! TO.C,R8*
X107950000Y-73660000D03*
D19*
X115570000Y-73660000D03*
G04 #@! TD*
G04 #@! TO.C,R9*
X113030000Y-87630000D03*
D20*
X105410000Y-87630000D03*
G04 #@! TD*
G04 #@! TO.C,R10*
X105410000Y-85090000D03*
D19*
X113030000Y-85090000D03*
G04 #@! TD*
D20*
G04 #@! TO.C,R11*
X120650000Y-57150000D03*
D19*
X113030000Y-57150000D03*
G04 #@! TD*
G04 #@! TO.C,R12*
X125730000Y-81280000D03*
D20*
X118110000Y-81280000D03*
G04 #@! TD*
D19*
G04 #@! TO.C,R13*
X128270000Y-72390000D03*
D20*
X120650000Y-72390000D03*
G04 #@! TD*
G04 #@! TO.C,R14*
X120650000Y-76200000D03*
D19*
X128270000Y-76200000D03*
G04 #@! TD*
D20*
G04 #@! TO.C,R15*
X137160000Y-67310000D03*
D19*
X129540000Y-67310000D03*
G04 #@! TD*
G04 #@! TO.C,R16*
X77470000Y-59690000D03*
D20*
X85090000Y-59690000D03*
G04 #@! TD*
D19*
G04 #@! TO.C,R17*
X64770000Y-88900000D03*
D20*
X72390000Y-88900000D03*
G04 #@! TD*
G04 #@! TO.C,R18*
X85090000Y-118110000D03*
D19*
X77470000Y-118110000D03*
G04 #@! TD*
G04 #@! TO.C,R19*
X106680000Y-130810000D03*
D20*
X114300000Y-130810000D03*
G04 #@! TD*
G04 #@! TO.C,R20*
X143510000Y-119380000D03*
D19*
X135890000Y-119380000D03*
G04 #@! TD*
G04 #@! TO.C,R21*
X148590000Y-88900000D03*
D20*
X156210000Y-88900000D03*
G04 #@! TD*
G04 #@! TO.C,R22*
X143510000Y-59690000D03*
D19*
X135890000Y-59690000D03*
G04 #@! TD*
G04 #@! TO.C,R23*
X106680000Y-46990000D03*
D20*
X114300000Y-46990000D03*
G04 #@! TD*
D19*
G04 #@! TO.C,R24*
X100330000Y-111760000D03*
D20*
X92710000Y-111760000D03*
G04 #@! TD*
D19*
G04 #@! TO.C,R25*
X97790000Y-92710000D03*
D20*
X105410000Y-92710000D03*
G04 #@! TD*
D19*
G04 #@! TO.C,R26*
X116840000Y-96520000D03*
D20*
X124460000Y-96520000D03*
G04 #@! TD*
G04 #@! TO.C,R27*
X139700000Y-77470000D03*
D19*
X147320000Y-77470000D03*
G04 #@! TD*
D20*
G04 #@! TO.C,R28*
X109220000Y-96520000D03*
D19*
X101600000Y-96520000D03*
G04 #@! TD*
D21*
G04 #@! TO.C,U1*
X101600000Y-121920000D03*
D22*
X119380000Y-114300000D03*
X104140000Y-121920000D03*
X116840000Y-114300000D03*
X106680000Y-121920000D03*
X114300000Y-114300000D03*
X109220000Y-121920000D03*
X111760000Y-114300000D03*
X111760000Y-121920000D03*
X109220000Y-114300000D03*
X114300000Y-121920000D03*
X106680000Y-114300000D03*
X116840000Y-121920000D03*
X104140000Y-114300000D03*
X119380000Y-121920000D03*
X101600000Y-114300000D03*
G04 #@! TD*
D21*
G04 #@! TO.C,U2*
X106680000Y-107950000D03*
D22*
X114300000Y-100330000D03*
X109220000Y-107950000D03*
X111760000Y-100330000D03*
X111760000Y-107950000D03*
X109220000Y-100330000D03*
X114300000Y-107950000D03*
X106680000Y-100330000D03*
G04 #@! TD*
D23*
G04 #@! TO.C,SW3*
X124460000Y-106680000D03*
D24*
X127000000Y-106680000D03*
X129540000Y-106680000D03*
G04 #@! TD*
M02*
