G04 #@! TF.GenerationSoftware,KiCad,Pcbnew,(5.0.0-3-g5ebb6b6)*
G04 #@! TF.CreationDate,2018-09-25T19:29:36-07:00*
G04 #@! TF.ProjectId,christmas-board,6368726973746D61732D626F6172642E,rev?*
G04 #@! TF.SameCoordinates,Original*
G04 #@! TF.FileFunction,Copper,L2,Bot,Signal*
G04 #@! TF.FilePolarity,Positive*
%FSLAX46Y46*%
G04 Gerber Fmt 4.6, Leading zero omitted, Abs format (unit mm)*
G04 Created by KiCad (PCBNEW (5.0.0-3-g5ebb6b6)) date Tuesday, September 25, 2018 at 07:29:36 PM*
%MOMM*%
%LPD*%
G01*
G04 APERTURE LIST*
G04 #@! TA.AperFunction,ComponentPad*
%ADD10C,2.000000*%
G04 #@! TD*
G04 #@! TA.AperFunction,ComponentPad*
%ADD11C,1.500000*%
G04 #@! TD*
G04 #@! TA.AperFunction,ComponentPad*
%ADD12R,1.200000X1.200000*%
G04 #@! TD*
G04 #@! TA.AperFunction,ComponentPad*
%ADD13C,1.200000*%
G04 #@! TD*
G04 #@! TA.AperFunction,ComponentPad*
%ADD14C,1.800000*%
G04 #@! TD*
G04 #@! TA.AperFunction,ComponentPad*
%ADD15R,1.800000X1.800000*%
G04 #@! TD*
G04 #@! TA.AperFunction,Conductor*
%ADD16C,0.100000*%
G04 #@! TD*
G04 #@! TA.AperFunction,ComponentPad*
%ADD17C,1.050000*%
G04 #@! TD*
G04 #@! TA.AperFunction,ComponentPad*
%ADD18R,1.500000X1.050000*%
G04 #@! TD*
G04 #@! TA.AperFunction,ComponentPad*
%ADD19C,1.400000*%
G04 #@! TD*
G04 #@! TA.AperFunction,ComponentPad*
%ADD20O,1.400000X1.400000*%
G04 #@! TD*
G04 #@! TA.AperFunction,ComponentPad*
%ADD21R,1.600000X1.600000*%
G04 #@! TD*
G04 #@! TA.AperFunction,ComponentPad*
%ADD22O,1.600000X1.600000*%
G04 #@! TD*
G04 #@! TA.AperFunction,ComponentPad*
%ADD23R,1.700000X1.700000*%
G04 #@! TD*
G04 #@! TA.AperFunction,ComponentPad*
%ADD24O,1.700000X1.700000*%
G04 #@! TD*
G04 #@! TA.AperFunction,ViaPad*
%ADD25C,0.800000*%
G04 #@! TD*
G04 #@! TA.AperFunction,Conductor*
%ADD26C,0.250000*%
G04 #@! TD*
G04 #@! TA.AperFunction,Conductor*
%ADD27C,0.254000*%
G04 #@! TD*
G04 APERTURE END LIST*
D10*
G04 #@! TO.P,J1,1*
G04 #@! TO.N,Net-(J1-Pad1)*
X133350000Y-96520000D03*
G04 #@! TO.P,J1,2*
G04 #@! TO.N,GND*
X133350000Y-109220000D03*
G04 #@! TD*
D11*
G04 #@! TO.P,SW2,2*
G04 #@! TO.N,/PULL_HIGH*
X142950000Y-96810000D03*
X136450000Y-96810000D03*
G04 #@! TO.P,SW2,1*
G04 #@! TO.N,GND*
X136450000Y-101310000D03*
X142950000Y-101310000D03*
G04 #@! TD*
G04 #@! TO.P,SW1,2*
G04 #@! TO.N,/PULL_HIGH*
X89610000Y-100620000D03*
X83110000Y-100620000D03*
G04 #@! TO.P,SW1,1*
G04 #@! TO.N,VCC*
X83110000Y-105120000D03*
X89610000Y-105120000D03*
G04 #@! TD*
D12*
G04 #@! TO.P,C1,1*
G04 #@! TO.N,Net-(C1-Pad1)*
X127000000Y-100330000D03*
D13*
G04 #@! TO.P,C1,2*
G04 #@! TO.N,GND*
X127000000Y-101830000D03*
G04 #@! TD*
D14*
G04 #@! TO.P,D1,2*
G04 #@! TO.N,Net-(D1-Pad2)*
X82550000Y-59690000D03*
D15*
G04 #@! TO.P,D1,1*
G04 #@! TO.N,GND*
X80010000Y-59690000D03*
G04 #@! TD*
G04 #@! TO.P,D2,1*
G04 #@! TO.N,GND*
X67310000Y-88900000D03*
D14*
G04 #@! TO.P,D2,2*
G04 #@! TO.N,Net-(D2-Pad2)*
X69850000Y-88900000D03*
G04 #@! TD*
G04 #@! TO.P,D3,2*
G04 #@! TO.N,Net-(D3-Pad2)*
X82550000Y-118110000D03*
D15*
G04 #@! TO.P,D3,1*
G04 #@! TO.N,GND*
X80010000Y-118110000D03*
G04 #@! TD*
G04 #@! TO.P,D4,1*
G04 #@! TO.N,GND*
X109220000Y-130810000D03*
D14*
G04 #@! TO.P,D4,2*
G04 #@! TO.N,Net-(D4-Pad2)*
X111760000Y-130810000D03*
G04 #@! TD*
D15*
G04 #@! TO.P,D5,1*
G04 #@! TO.N,GND*
X138430000Y-119380000D03*
D14*
G04 #@! TO.P,D5,2*
G04 #@! TO.N,Net-(D5-Pad2)*
X140970000Y-119380000D03*
G04 #@! TD*
G04 #@! TO.P,D6,2*
G04 #@! TO.N,Net-(D6-Pad2)*
X153670000Y-88900000D03*
D15*
G04 #@! TO.P,D6,1*
G04 #@! TO.N,GND*
X151130000Y-88900000D03*
G04 #@! TD*
G04 #@! TO.P,D7,1*
G04 #@! TO.N,GND*
X138430000Y-59690000D03*
D14*
G04 #@! TO.P,D7,2*
G04 #@! TO.N,Net-(D7-Pad2)*
X140970000Y-59690000D03*
G04 #@! TD*
G04 #@! TO.P,D8,2*
G04 #@! TO.N,Net-(D8-Pad2)*
X111760000Y-46990000D03*
D15*
G04 #@! TO.P,D8,1*
G04 #@! TO.N,GND*
X109220000Y-46990000D03*
G04 #@! TD*
D16*
G04 #@! TO.N,Net-(Q1-Pad2)*
G04 #@! TO.C,Q1*
G36*
X102113229Y-64246264D02*
X102138711Y-64250044D01*
X102163700Y-64256303D01*
X102187954Y-64264982D01*
X102211242Y-64275996D01*
X102233337Y-64289239D01*
X102254028Y-64304585D01*
X102273116Y-64321884D01*
X102290415Y-64340972D01*
X102305761Y-64361663D01*
X102319004Y-64383758D01*
X102330018Y-64407046D01*
X102338697Y-64431300D01*
X102344956Y-64456289D01*
X102348736Y-64481771D01*
X102350000Y-64507500D01*
X102350000Y-65032500D01*
X102348736Y-65058229D01*
X102344956Y-65083711D01*
X102338697Y-65108700D01*
X102330018Y-65132954D01*
X102319004Y-65156242D01*
X102305761Y-65178337D01*
X102290415Y-65199028D01*
X102273116Y-65218116D01*
X102254028Y-65235415D01*
X102233337Y-65250761D01*
X102211242Y-65264004D01*
X102187954Y-65275018D01*
X102163700Y-65283697D01*
X102138711Y-65289956D01*
X102113229Y-65293736D01*
X102087500Y-65295000D01*
X101112500Y-65295000D01*
X101086771Y-65293736D01*
X101061289Y-65289956D01*
X101036300Y-65283697D01*
X101012046Y-65275018D01*
X100988758Y-65264004D01*
X100966663Y-65250761D01*
X100945972Y-65235415D01*
X100926884Y-65218116D01*
X100909585Y-65199028D01*
X100894239Y-65178337D01*
X100880996Y-65156242D01*
X100869982Y-65132954D01*
X100861303Y-65108700D01*
X100855044Y-65083711D01*
X100851264Y-65058229D01*
X100850000Y-65032500D01*
X100850000Y-64507500D01*
X100851264Y-64481771D01*
X100855044Y-64456289D01*
X100861303Y-64431300D01*
X100869982Y-64407046D01*
X100880996Y-64383758D01*
X100894239Y-64361663D01*
X100909585Y-64340972D01*
X100926884Y-64321884D01*
X100945972Y-64304585D01*
X100966663Y-64289239D01*
X100988758Y-64275996D01*
X101012046Y-64264982D01*
X101036300Y-64256303D01*
X101061289Y-64250044D01*
X101086771Y-64246264D01*
X101112500Y-64245000D01*
X102087500Y-64245000D01*
X102113229Y-64246264D01*
X102113229Y-64246264D01*
G37*
D17*
G04 #@! TD*
G04 #@! TO.P,Q1,2*
G04 #@! TO.N,Net-(Q1-Pad2)*
X101600000Y-64770000D03*
D16*
G04 #@! TO.N,Net-(Q1-Pad3)*
G04 #@! TO.C,Q1*
G36*
X102113229Y-62976264D02*
X102138711Y-62980044D01*
X102163700Y-62986303D01*
X102187954Y-62994982D01*
X102211242Y-63005996D01*
X102233337Y-63019239D01*
X102254028Y-63034585D01*
X102273116Y-63051884D01*
X102290415Y-63070972D01*
X102305761Y-63091663D01*
X102319004Y-63113758D01*
X102330018Y-63137046D01*
X102338697Y-63161300D01*
X102344956Y-63186289D01*
X102348736Y-63211771D01*
X102350000Y-63237500D01*
X102350000Y-63762500D01*
X102348736Y-63788229D01*
X102344956Y-63813711D01*
X102338697Y-63838700D01*
X102330018Y-63862954D01*
X102319004Y-63886242D01*
X102305761Y-63908337D01*
X102290415Y-63929028D01*
X102273116Y-63948116D01*
X102254028Y-63965415D01*
X102233337Y-63980761D01*
X102211242Y-63994004D01*
X102187954Y-64005018D01*
X102163700Y-64013697D01*
X102138711Y-64019956D01*
X102113229Y-64023736D01*
X102087500Y-64025000D01*
X101112500Y-64025000D01*
X101086771Y-64023736D01*
X101061289Y-64019956D01*
X101036300Y-64013697D01*
X101012046Y-64005018D01*
X100988758Y-63994004D01*
X100966663Y-63980761D01*
X100945972Y-63965415D01*
X100926884Y-63948116D01*
X100909585Y-63929028D01*
X100894239Y-63908337D01*
X100880996Y-63886242D01*
X100869982Y-63862954D01*
X100861303Y-63838700D01*
X100855044Y-63813711D01*
X100851264Y-63788229D01*
X100850000Y-63762500D01*
X100850000Y-63237500D01*
X100851264Y-63211771D01*
X100855044Y-63186289D01*
X100861303Y-63161300D01*
X100869982Y-63137046D01*
X100880996Y-63113758D01*
X100894239Y-63091663D01*
X100909585Y-63070972D01*
X100926884Y-63051884D01*
X100945972Y-63034585D01*
X100966663Y-63019239D01*
X100988758Y-63005996D01*
X101012046Y-62994982D01*
X101036300Y-62986303D01*
X101061289Y-62980044D01*
X101086771Y-62976264D01*
X101112500Y-62975000D01*
X102087500Y-62975000D01*
X102113229Y-62976264D01*
X102113229Y-62976264D01*
G37*
D17*
G04 #@! TD*
G04 #@! TO.P,Q1,3*
G04 #@! TO.N,Net-(Q1-Pad3)*
X101600000Y-63500000D03*
D18*
G04 #@! TO.P,Q1,1*
G04 #@! TO.N,GND*
X101600000Y-66040000D03*
G04 #@! TD*
D16*
G04 #@! TO.N,Net-(Q2-Pad2)*
G04 #@! TO.C,Q2*
G36*
X102113229Y-80756264D02*
X102138711Y-80760044D01*
X102163700Y-80766303D01*
X102187954Y-80774982D01*
X102211242Y-80785996D01*
X102233337Y-80799239D01*
X102254028Y-80814585D01*
X102273116Y-80831884D01*
X102290415Y-80850972D01*
X102305761Y-80871663D01*
X102319004Y-80893758D01*
X102330018Y-80917046D01*
X102338697Y-80941300D01*
X102344956Y-80966289D01*
X102348736Y-80991771D01*
X102350000Y-81017500D01*
X102350000Y-81542500D01*
X102348736Y-81568229D01*
X102344956Y-81593711D01*
X102338697Y-81618700D01*
X102330018Y-81642954D01*
X102319004Y-81666242D01*
X102305761Y-81688337D01*
X102290415Y-81709028D01*
X102273116Y-81728116D01*
X102254028Y-81745415D01*
X102233337Y-81760761D01*
X102211242Y-81774004D01*
X102187954Y-81785018D01*
X102163700Y-81793697D01*
X102138711Y-81799956D01*
X102113229Y-81803736D01*
X102087500Y-81805000D01*
X101112500Y-81805000D01*
X101086771Y-81803736D01*
X101061289Y-81799956D01*
X101036300Y-81793697D01*
X101012046Y-81785018D01*
X100988758Y-81774004D01*
X100966663Y-81760761D01*
X100945972Y-81745415D01*
X100926884Y-81728116D01*
X100909585Y-81709028D01*
X100894239Y-81688337D01*
X100880996Y-81666242D01*
X100869982Y-81642954D01*
X100861303Y-81618700D01*
X100855044Y-81593711D01*
X100851264Y-81568229D01*
X100850000Y-81542500D01*
X100850000Y-81017500D01*
X100851264Y-80991771D01*
X100855044Y-80966289D01*
X100861303Y-80941300D01*
X100869982Y-80917046D01*
X100880996Y-80893758D01*
X100894239Y-80871663D01*
X100909585Y-80850972D01*
X100926884Y-80831884D01*
X100945972Y-80814585D01*
X100966663Y-80799239D01*
X100988758Y-80785996D01*
X101012046Y-80774982D01*
X101036300Y-80766303D01*
X101061289Y-80760044D01*
X101086771Y-80756264D01*
X101112500Y-80755000D01*
X102087500Y-80755000D01*
X102113229Y-80756264D01*
X102113229Y-80756264D01*
G37*
D17*
G04 #@! TD*
G04 #@! TO.P,Q2,2*
G04 #@! TO.N,Net-(Q2-Pad2)*
X101600000Y-81280000D03*
D16*
G04 #@! TO.N,Net-(Q2-Pad3)*
G04 #@! TO.C,Q2*
G36*
X102113229Y-79486264D02*
X102138711Y-79490044D01*
X102163700Y-79496303D01*
X102187954Y-79504982D01*
X102211242Y-79515996D01*
X102233337Y-79529239D01*
X102254028Y-79544585D01*
X102273116Y-79561884D01*
X102290415Y-79580972D01*
X102305761Y-79601663D01*
X102319004Y-79623758D01*
X102330018Y-79647046D01*
X102338697Y-79671300D01*
X102344956Y-79696289D01*
X102348736Y-79721771D01*
X102350000Y-79747500D01*
X102350000Y-80272500D01*
X102348736Y-80298229D01*
X102344956Y-80323711D01*
X102338697Y-80348700D01*
X102330018Y-80372954D01*
X102319004Y-80396242D01*
X102305761Y-80418337D01*
X102290415Y-80439028D01*
X102273116Y-80458116D01*
X102254028Y-80475415D01*
X102233337Y-80490761D01*
X102211242Y-80504004D01*
X102187954Y-80515018D01*
X102163700Y-80523697D01*
X102138711Y-80529956D01*
X102113229Y-80533736D01*
X102087500Y-80535000D01*
X101112500Y-80535000D01*
X101086771Y-80533736D01*
X101061289Y-80529956D01*
X101036300Y-80523697D01*
X101012046Y-80515018D01*
X100988758Y-80504004D01*
X100966663Y-80490761D01*
X100945972Y-80475415D01*
X100926884Y-80458116D01*
X100909585Y-80439028D01*
X100894239Y-80418337D01*
X100880996Y-80396242D01*
X100869982Y-80372954D01*
X100861303Y-80348700D01*
X100855044Y-80323711D01*
X100851264Y-80298229D01*
X100850000Y-80272500D01*
X100850000Y-79747500D01*
X100851264Y-79721771D01*
X100855044Y-79696289D01*
X100861303Y-79671300D01*
X100869982Y-79647046D01*
X100880996Y-79623758D01*
X100894239Y-79601663D01*
X100909585Y-79580972D01*
X100926884Y-79561884D01*
X100945972Y-79544585D01*
X100966663Y-79529239D01*
X100988758Y-79515996D01*
X101012046Y-79504982D01*
X101036300Y-79496303D01*
X101061289Y-79490044D01*
X101086771Y-79486264D01*
X101112500Y-79485000D01*
X102087500Y-79485000D01*
X102113229Y-79486264D01*
X102113229Y-79486264D01*
G37*
D17*
G04 #@! TD*
G04 #@! TO.P,Q2,3*
G04 #@! TO.N,Net-(Q2-Pad3)*
X101600000Y-80010000D03*
D18*
G04 #@! TO.P,Q2,1*
G04 #@! TO.N,GND*
X101600000Y-82550000D03*
G04 #@! TD*
G04 #@! TO.P,Q3,1*
G04 #@! TO.N,GND*
X118110000Y-66040000D03*
D16*
G04 #@! TD*
G04 #@! TO.N,Net-(Q3-Pad3)*
G04 #@! TO.C,Q3*
G36*
X118623229Y-62976264D02*
X118648711Y-62980044D01*
X118673700Y-62986303D01*
X118697954Y-62994982D01*
X118721242Y-63005996D01*
X118743337Y-63019239D01*
X118764028Y-63034585D01*
X118783116Y-63051884D01*
X118800415Y-63070972D01*
X118815761Y-63091663D01*
X118829004Y-63113758D01*
X118840018Y-63137046D01*
X118848697Y-63161300D01*
X118854956Y-63186289D01*
X118858736Y-63211771D01*
X118860000Y-63237500D01*
X118860000Y-63762500D01*
X118858736Y-63788229D01*
X118854956Y-63813711D01*
X118848697Y-63838700D01*
X118840018Y-63862954D01*
X118829004Y-63886242D01*
X118815761Y-63908337D01*
X118800415Y-63929028D01*
X118783116Y-63948116D01*
X118764028Y-63965415D01*
X118743337Y-63980761D01*
X118721242Y-63994004D01*
X118697954Y-64005018D01*
X118673700Y-64013697D01*
X118648711Y-64019956D01*
X118623229Y-64023736D01*
X118597500Y-64025000D01*
X117622500Y-64025000D01*
X117596771Y-64023736D01*
X117571289Y-64019956D01*
X117546300Y-64013697D01*
X117522046Y-64005018D01*
X117498758Y-63994004D01*
X117476663Y-63980761D01*
X117455972Y-63965415D01*
X117436884Y-63948116D01*
X117419585Y-63929028D01*
X117404239Y-63908337D01*
X117390996Y-63886242D01*
X117379982Y-63862954D01*
X117371303Y-63838700D01*
X117365044Y-63813711D01*
X117361264Y-63788229D01*
X117360000Y-63762500D01*
X117360000Y-63237500D01*
X117361264Y-63211771D01*
X117365044Y-63186289D01*
X117371303Y-63161300D01*
X117379982Y-63137046D01*
X117390996Y-63113758D01*
X117404239Y-63091663D01*
X117419585Y-63070972D01*
X117436884Y-63051884D01*
X117455972Y-63034585D01*
X117476663Y-63019239D01*
X117498758Y-63005996D01*
X117522046Y-62994982D01*
X117546300Y-62986303D01*
X117571289Y-62980044D01*
X117596771Y-62976264D01*
X117622500Y-62975000D01*
X118597500Y-62975000D01*
X118623229Y-62976264D01*
X118623229Y-62976264D01*
G37*
D17*
G04 #@! TO.P,Q3,3*
G04 #@! TO.N,Net-(Q3-Pad3)*
X118110000Y-63500000D03*
D16*
G04 #@! TD*
G04 #@! TO.N,Net-(Q3-Pad2)*
G04 #@! TO.C,Q3*
G36*
X118623229Y-64246264D02*
X118648711Y-64250044D01*
X118673700Y-64256303D01*
X118697954Y-64264982D01*
X118721242Y-64275996D01*
X118743337Y-64289239D01*
X118764028Y-64304585D01*
X118783116Y-64321884D01*
X118800415Y-64340972D01*
X118815761Y-64361663D01*
X118829004Y-64383758D01*
X118840018Y-64407046D01*
X118848697Y-64431300D01*
X118854956Y-64456289D01*
X118858736Y-64481771D01*
X118860000Y-64507500D01*
X118860000Y-65032500D01*
X118858736Y-65058229D01*
X118854956Y-65083711D01*
X118848697Y-65108700D01*
X118840018Y-65132954D01*
X118829004Y-65156242D01*
X118815761Y-65178337D01*
X118800415Y-65199028D01*
X118783116Y-65218116D01*
X118764028Y-65235415D01*
X118743337Y-65250761D01*
X118721242Y-65264004D01*
X118697954Y-65275018D01*
X118673700Y-65283697D01*
X118648711Y-65289956D01*
X118623229Y-65293736D01*
X118597500Y-65295000D01*
X117622500Y-65295000D01*
X117596771Y-65293736D01*
X117571289Y-65289956D01*
X117546300Y-65283697D01*
X117522046Y-65275018D01*
X117498758Y-65264004D01*
X117476663Y-65250761D01*
X117455972Y-65235415D01*
X117436884Y-65218116D01*
X117419585Y-65199028D01*
X117404239Y-65178337D01*
X117390996Y-65156242D01*
X117379982Y-65132954D01*
X117371303Y-65108700D01*
X117365044Y-65083711D01*
X117361264Y-65058229D01*
X117360000Y-65032500D01*
X117360000Y-64507500D01*
X117361264Y-64481771D01*
X117365044Y-64456289D01*
X117371303Y-64431300D01*
X117379982Y-64407046D01*
X117390996Y-64383758D01*
X117404239Y-64361663D01*
X117419585Y-64340972D01*
X117436884Y-64321884D01*
X117455972Y-64304585D01*
X117476663Y-64289239D01*
X117498758Y-64275996D01*
X117522046Y-64264982D01*
X117546300Y-64256303D01*
X117571289Y-64250044D01*
X117596771Y-64246264D01*
X117622500Y-64245000D01*
X118597500Y-64245000D01*
X118623229Y-64246264D01*
X118623229Y-64246264D01*
G37*
D17*
G04 #@! TO.P,Q3,2*
G04 #@! TO.N,Net-(Q3-Pad2)*
X118110000Y-64770000D03*
G04 #@! TD*
D18*
G04 #@! TO.P,Q4,1*
G04 #@! TO.N,GND*
X128270000Y-87630000D03*
D16*
G04 #@! TD*
G04 #@! TO.N,Net-(Q4-Pad3)*
G04 #@! TO.C,Q4*
G36*
X128783229Y-84566264D02*
X128808711Y-84570044D01*
X128833700Y-84576303D01*
X128857954Y-84584982D01*
X128881242Y-84595996D01*
X128903337Y-84609239D01*
X128924028Y-84624585D01*
X128943116Y-84641884D01*
X128960415Y-84660972D01*
X128975761Y-84681663D01*
X128989004Y-84703758D01*
X129000018Y-84727046D01*
X129008697Y-84751300D01*
X129014956Y-84776289D01*
X129018736Y-84801771D01*
X129020000Y-84827500D01*
X129020000Y-85352500D01*
X129018736Y-85378229D01*
X129014956Y-85403711D01*
X129008697Y-85428700D01*
X129000018Y-85452954D01*
X128989004Y-85476242D01*
X128975761Y-85498337D01*
X128960415Y-85519028D01*
X128943116Y-85538116D01*
X128924028Y-85555415D01*
X128903337Y-85570761D01*
X128881242Y-85584004D01*
X128857954Y-85595018D01*
X128833700Y-85603697D01*
X128808711Y-85609956D01*
X128783229Y-85613736D01*
X128757500Y-85615000D01*
X127782500Y-85615000D01*
X127756771Y-85613736D01*
X127731289Y-85609956D01*
X127706300Y-85603697D01*
X127682046Y-85595018D01*
X127658758Y-85584004D01*
X127636663Y-85570761D01*
X127615972Y-85555415D01*
X127596884Y-85538116D01*
X127579585Y-85519028D01*
X127564239Y-85498337D01*
X127550996Y-85476242D01*
X127539982Y-85452954D01*
X127531303Y-85428700D01*
X127525044Y-85403711D01*
X127521264Y-85378229D01*
X127520000Y-85352500D01*
X127520000Y-84827500D01*
X127521264Y-84801771D01*
X127525044Y-84776289D01*
X127531303Y-84751300D01*
X127539982Y-84727046D01*
X127550996Y-84703758D01*
X127564239Y-84681663D01*
X127579585Y-84660972D01*
X127596884Y-84641884D01*
X127615972Y-84624585D01*
X127636663Y-84609239D01*
X127658758Y-84595996D01*
X127682046Y-84584982D01*
X127706300Y-84576303D01*
X127731289Y-84570044D01*
X127756771Y-84566264D01*
X127782500Y-84565000D01*
X128757500Y-84565000D01*
X128783229Y-84566264D01*
X128783229Y-84566264D01*
G37*
D17*
G04 #@! TO.P,Q4,3*
G04 #@! TO.N,Net-(Q4-Pad3)*
X128270000Y-85090000D03*
D16*
G04 #@! TD*
G04 #@! TO.N,Net-(Q4-Pad2)*
G04 #@! TO.C,Q4*
G36*
X128783229Y-85836264D02*
X128808711Y-85840044D01*
X128833700Y-85846303D01*
X128857954Y-85854982D01*
X128881242Y-85865996D01*
X128903337Y-85879239D01*
X128924028Y-85894585D01*
X128943116Y-85911884D01*
X128960415Y-85930972D01*
X128975761Y-85951663D01*
X128989004Y-85973758D01*
X129000018Y-85997046D01*
X129008697Y-86021300D01*
X129014956Y-86046289D01*
X129018736Y-86071771D01*
X129020000Y-86097500D01*
X129020000Y-86622500D01*
X129018736Y-86648229D01*
X129014956Y-86673711D01*
X129008697Y-86698700D01*
X129000018Y-86722954D01*
X128989004Y-86746242D01*
X128975761Y-86768337D01*
X128960415Y-86789028D01*
X128943116Y-86808116D01*
X128924028Y-86825415D01*
X128903337Y-86840761D01*
X128881242Y-86854004D01*
X128857954Y-86865018D01*
X128833700Y-86873697D01*
X128808711Y-86879956D01*
X128783229Y-86883736D01*
X128757500Y-86885000D01*
X127782500Y-86885000D01*
X127756771Y-86883736D01*
X127731289Y-86879956D01*
X127706300Y-86873697D01*
X127682046Y-86865018D01*
X127658758Y-86854004D01*
X127636663Y-86840761D01*
X127615972Y-86825415D01*
X127596884Y-86808116D01*
X127579585Y-86789028D01*
X127564239Y-86768337D01*
X127550996Y-86746242D01*
X127539982Y-86722954D01*
X127531303Y-86698700D01*
X127525044Y-86673711D01*
X127521264Y-86648229D01*
X127520000Y-86622500D01*
X127520000Y-86097500D01*
X127521264Y-86071771D01*
X127525044Y-86046289D01*
X127531303Y-86021300D01*
X127539982Y-85997046D01*
X127550996Y-85973758D01*
X127564239Y-85951663D01*
X127579585Y-85930972D01*
X127596884Y-85911884D01*
X127615972Y-85894585D01*
X127636663Y-85879239D01*
X127658758Y-85865996D01*
X127682046Y-85854982D01*
X127706300Y-85846303D01*
X127731289Y-85840044D01*
X127756771Y-85836264D01*
X127782500Y-85835000D01*
X128757500Y-85835000D01*
X128783229Y-85836264D01*
X128783229Y-85836264D01*
G37*
D17*
G04 #@! TO.P,Q4,2*
G04 #@! TO.N,Net-(Q4-Pad2)*
X128270000Y-86360000D03*
G04 #@! TD*
D16*
G04 #@! TO.N,Net-(Q5-Pad2)*
G04 #@! TO.C,Q5*
G36*
X136403229Y-71866264D02*
X136428711Y-71870044D01*
X136453700Y-71876303D01*
X136477954Y-71884982D01*
X136501242Y-71895996D01*
X136523337Y-71909239D01*
X136544028Y-71924585D01*
X136563116Y-71941884D01*
X136580415Y-71960972D01*
X136595761Y-71981663D01*
X136609004Y-72003758D01*
X136620018Y-72027046D01*
X136628697Y-72051300D01*
X136634956Y-72076289D01*
X136638736Y-72101771D01*
X136640000Y-72127500D01*
X136640000Y-72652500D01*
X136638736Y-72678229D01*
X136634956Y-72703711D01*
X136628697Y-72728700D01*
X136620018Y-72752954D01*
X136609004Y-72776242D01*
X136595761Y-72798337D01*
X136580415Y-72819028D01*
X136563116Y-72838116D01*
X136544028Y-72855415D01*
X136523337Y-72870761D01*
X136501242Y-72884004D01*
X136477954Y-72895018D01*
X136453700Y-72903697D01*
X136428711Y-72909956D01*
X136403229Y-72913736D01*
X136377500Y-72915000D01*
X135402500Y-72915000D01*
X135376771Y-72913736D01*
X135351289Y-72909956D01*
X135326300Y-72903697D01*
X135302046Y-72895018D01*
X135278758Y-72884004D01*
X135256663Y-72870761D01*
X135235972Y-72855415D01*
X135216884Y-72838116D01*
X135199585Y-72819028D01*
X135184239Y-72798337D01*
X135170996Y-72776242D01*
X135159982Y-72752954D01*
X135151303Y-72728700D01*
X135145044Y-72703711D01*
X135141264Y-72678229D01*
X135140000Y-72652500D01*
X135140000Y-72127500D01*
X135141264Y-72101771D01*
X135145044Y-72076289D01*
X135151303Y-72051300D01*
X135159982Y-72027046D01*
X135170996Y-72003758D01*
X135184239Y-71981663D01*
X135199585Y-71960972D01*
X135216884Y-71941884D01*
X135235972Y-71924585D01*
X135256663Y-71909239D01*
X135278758Y-71895996D01*
X135302046Y-71884982D01*
X135326300Y-71876303D01*
X135351289Y-71870044D01*
X135376771Y-71866264D01*
X135402500Y-71865000D01*
X136377500Y-71865000D01*
X136403229Y-71866264D01*
X136403229Y-71866264D01*
G37*
D17*
G04 #@! TD*
G04 #@! TO.P,Q5,2*
G04 #@! TO.N,Net-(Q5-Pad2)*
X135890000Y-72390000D03*
D16*
G04 #@! TO.N,/PULL_HIGH*
G04 #@! TO.C,Q5*
G36*
X136403229Y-70596264D02*
X136428711Y-70600044D01*
X136453700Y-70606303D01*
X136477954Y-70614982D01*
X136501242Y-70625996D01*
X136523337Y-70639239D01*
X136544028Y-70654585D01*
X136563116Y-70671884D01*
X136580415Y-70690972D01*
X136595761Y-70711663D01*
X136609004Y-70733758D01*
X136620018Y-70757046D01*
X136628697Y-70781300D01*
X136634956Y-70806289D01*
X136638736Y-70831771D01*
X136640000Y-70857500D01*
X136640000Y-71382500D01*
X136638736Y-71408229D01*
X136634956Y-71433711D01*
X136628697Y-71458700D01*
X136620018Y-71482954D01*
X136609004Y-71506242D01*
X136595761Y-71528337D01*
X136580415Y-71549028D01*
X136563116Y-71568116D01*
X136544028Y-71585415D01*
X136523337Y-71600761D01*
X136501242Y-71614004D01*
X136477954Y-71625018D01*
X136453700Y-71633697D01*
X136428711Y-71639956D01*
X136403229Y-71643736D01*
X136377500Y-71645000D01*
X135402500Y-71645000D01*
X135376771Y-71643736D01*
X135351289Y-71639956D01*
X135326300Y-71633697D01*
X135302046Y-71625018D01*
X135278758Y-71614004D01*
X135256663Y-71600761D01*
X135235972Y-71585415D01*
X135216884Y-71568116D01*
X135199585Y-71549028D01*
X135184239Y-71528337D01*
X135170996Y-71506242D01*
X135159982Y-71482954D01*
X135151303Y-71458700D01*
X135145044Y-71433711D01*
X135141264Y-71408229D01*
X135140000Y-71382500D01*
X135140000Y-70857500D01*
X135141264Y-70831771D01*
X135145044Y-70806289D01*
X135151303Y-70781300D01*
X135159982Y-70757046D01*
X135170996Y-70733758D01*
X135184239Y-70711663D01*
X135199585Y-70690972D01*
X135216884Y-70671884D01*
X135235972Y-70654585D01*
X135256663Y-70639239D01*
X135278758Y-70625996D01*
X135302046Y-70614982D01*
X135326300Y-70606303D01*
X135351289Y-70600044D01*
X135376771Y-70596264D01*
X135402500Y-70595000D01*
X136377500Y-70595000D01*
X136403229Y-70596264D01*
X136403229Y-70596264D01*
G37*
D17*
G04 #@! TD*
G04 #@! TO.P,Q5,3*
G04 #@! TO.N,/PULL_HIGH*
X135890000Y-71120000D03*
D18*
G04 #@! TO.P,Q5,1*
G04 #@! TO.N,GND*
X135890000Y-73660000D03*
G04 #@! TD*
D19*
G04 #@! TO.P,R1,1*
G04 #@! TO.N,/XOR_IN_A*
X86360000Y-63500000D03*
D20*
G04 #@! TO.P,R1,2*
G04 #@! TO.N,GND*
X93980000Y-63500000D03*
G04 #@! TD*
G04 #@! TO.P,R2,2*
G04 #@! TO.N,GND*
X93980000Y-76200000D03*
D19*
G04 #@! TO.P,R2,1*
G04 #@! TO.N,/LED_E*
X86360000Y-76200000D03*
G04 #@! TD*
G04 #@! TO.P,R3,1*
G04 #@! TO.N,Net-(Q1-Pad2)*
X93980000Y-67310000D03*
D20*
G04 #@! TO.P,R3,2*
G04 #@! TO.N,/XOR_IN_A*
X86360000Y-67310000D03*
G04 #@! TD*
D19*
G04 #@! TO.P,R4,1*
G04 #@! TO.N,Net-(Q2-Pad2)*
X93980000Y-80010000D03*
D20*
G04 #@! TO.P,R4,2*
G04 #@! TO.N,/LED_E*
X86360000Y-80010000D03*
G04 #@! TD*
G04 #@! TO.P,R5,2*
G04 #@! TO.N,VCC*
X106680000Y-57150000D03*
D19*
G04 #@! TO.P,R5,1*
G04 #@! TO.N,Net-(Q1-Pad3)*
X99060000Y-57150000D03*
G04 #@! TD*
D20*
G04 #@! TO.P,R6,2*
G04 #@! TO.N,VCC*
X105410000Y-76200000D03*
D19*
G04 #@! TO.P,R6,1*
G04 #@! TO.N,Net-(Q2-Pad3)*
X97790000Y-76200000D03*
G04 #@! TD*
D20*
G04 #@! TO.P,R7,2*
G04 #@! TO.N,Net-(Q1-Pad3)*
X105410000Y-69850000D03*
D19*
G04 #@! TO.P,R7,1*
G04 #@! TO.N,Net-(Q3-Pad2)*
X113030000Y-69850000D03*
G04 #@! TD*
D20*
G04 #@! TO.P,R8,2*
G04 #@! TO.N,Net-(Q2-Pad3)*
X107950000Y-73660000D03*
D19*
G04 #@! TO.P,R8,1*
G04 #@! TO.N,Net-(Q3-Pad2)*
X115570000Y-73660000D03*
G04 #@! TD*
G04 #@! TO.P,R9,1*
G04 #@! TO.N,Net-(Q4-Pad2)*
X113030000Y-87630000D03*
D20*
G04 #@! TO.P,R9,2*
G04 #@! TO.N,/XOR_IN_A*
X105410000Y-87630000D03*
G04 #@! TD*
G04 #@! TO.P,R10,2*
G04 #@! TO.N,/LED_E*
X105410000Y-85090000D03*
D19*
G04 #@! TO.P,R10,1*
G04 #@! TO.N,Net-(Q4-Pad2)*
X113030000Y-85090000D03*
G04 #@! TD*
D20*
G04 #@! TO.P,R11,2*
G04 #@! TO.N,VCC*
X120650000Y-57150000D03*
D19*
G04 #@! TO.P,R11,1*
G04 #@! TO.N,Net-(Q3-Pad3)*
X113030000Y-57150000D03*
G04 #@! TD*
G04 #@! TO.P,R12,1*
G04 #@! TO.N,Net-(Q4-Pad3)*
X125730000Y-81280000D03*
D20*
G04 #@! TO.P,R12,2*
G04 #@! TO.N,VCC*
X118110000Y-81280000D03*
G04 #@! TD*
D19*
G04 #@! TO.P,R13,1*
G04 #@! TO.N,Net-(Q5-Pad2)*
X128270000Y-72390000D03*
D20*
G04 #@! TO.P,R13,2*
G04 #@! TO.N,Net-(Q3-Pad3)*
X120650000Y-72390000D03*
G04 #@! TD*
G04 #@! TO.P,R14,2*
G04 #@! TO.N,Net-(Q4-Pad3)*
X120650000Y-76200000D03*
D19*
G04 #@! TO.P,R14,1*
G04 #@! TO.N,Net-(Q5-Pad2)*
X128270000Y-76200000D03*
G04 #@! TD*
D20*
G04 #@! TO.P,R15,2*
G04 #@! TO.N,VCC*
X137160000Y-67310000D03*
D19*
G04 #@! TO.P,R15,1*
G04 #@! TO.N,/PULL_HIGH*
X129540000Y-67310000D03*
G04 #@! TD*
G04 #@! TO.P,R16,1*
G04 #@! TO.N,/LED_A*
X77470000Y-59690000D03*
D20*
G04 #@! TO.P,R16,2*
G04 #@! TO.N,Net-(D1-Pad2)*
X85090000Y-59690000D03*
G04 #@! TD*
D19*
G04 #@! TO.P,R17,1*
G04 #@! TO.N,/LED_B*
X64770000Y-88900000D03*
D20*
G04 #@! TO.P,R17,2*
G04 #@! TO.N,Net-(D2-Pad2)*
X72390000Y-88900000D03*
G04 #@! TD*
G04 #@! TO.P,R18,2*
G04 #@! TO.N,Net-(D3-Pad2)*
X85090000Y-118110000D03*
D19*
G04 #@! TO.P,R18,1*
G04 #@! TO.N,/LED_C*
X77470000Y-118110000D03*
G04 #@! TD*
G04 #@! TO.P,R19,1*
G04 #@! TO.N,/LED_D*
X106680000Y-130810000D03*
D20*
G04 #@! TO.P,R19,2*
G04 #@! TO.N,Net-(D4-Pad2)*
X114300000Y-130810000D03*
G04 #@! TD*
G04 #@! TO.P,R20,2*
G04 #@! TO.N,Net-(D5-Pad2)*
X143510000Y-119380000D03*
D19*
G04 #@! TO.P,R20,1*
G04 #@! TO.N,/LED_E*
X135890000Y-119380000D03*
G04 #@! TD*
G04 #@! TO.P,R21,1*
G04 #@! TO.N,/LED_F*
X148590000Y-88900000D03*
D20*
G04 #@! TO.P,R21,2*
G04 #@! TO.N,Net-(D6-Pad2)*
X156210000Y-88900000D03*
G04 #@! TD*
G04 #@! TO.P,R22,2*
G04 #@! TO.N,Net-(D7-Pad2)*
X143510000Y-59690000D03*
D19*
G04 #@! TO.P,R22,1*
G04 #@! TO.N,/LED_G*
X135890000Y-59690000D03*
G04 #@! TD*
G04 #@! TO.P,R23,1*
G04 #@! TO.N,/LED_H*
X106680000Y-46990000D03*
D20*
G04 #@! TO.P,R23,2*
G04 #@! TO.N,Net-(D8-Pad2)*
X114300000Y-46990000D03*
G04 #@! TD*
D19*
G04 #@! TO.P,R24,1*
G04 #@! TO.N,Net-(R24-Pad1)*
X100330000Y-111760000D03*
D20*
G04 #@! TO.P,R24,2*
G04 #@! TO.N,VCC*
X92710000Y-111760000D03*
G04 #@! TD*
D19*
G04 #@! TO.P,R25,1*
G04 #@! TO.N,VCC*
X97790000Y-92710000D03*
D20*
G04 #@! TO.P,R25,2*
G04 #@! TO.N,Net-(R25-Pad2)*
X105410000Y-92710000D03*
G04 #@! TD*
D19*
G04 #@! TO.P,R26,1*
G04 #@! TO.N,Net-(R26-Pad1)*
X116840000Y-96520000D03*
D20*
G04 #@! TO.P,R26,2*
G04 #@! TO.N,Net-(C1-Pad1)*
X124460000Y-96520000D03*
G04 #@! TD*
G04 #@! TO.P,R27,2*
G04 #@! TO.N,/PULL_HIGH*
X139700000Y-77470000D03*
D19*
G04 #@! TO.P,R27,1*
G04 #@! TO.N,GND*
X147320000Y-77470000D03*
G04 #@! TD*
D20*
G04 #@! TO.P,R28,2*
G04 #@! TO.N,Net-(R26-Pad1)*
X109220000Y-96520000D03*
D19*
G04 #@! TO.P,R28,1*
G04 #@! TO.N,Net-(R25-Pad2)*
X101600000Y-96520000D03*
G04 #@! TD*
D21*
G04 #@! TO.P,U1,1*
G04 #@! TO.N,/LED_B*
X101600000Y-121920000D03*
D22*
G04 #@! TO.P,U1,9*
G04 #@! TO.N,/XOR_IN_A*
X119380000Y-114300000D03*
G04 #@! TO.P,U1,2*
G04 #@! TO.N,/LED_C*
X104140000Y-121920000D03*
G04 #@! TO.P,U1,10*
G04 #@! TO.N,VCC*
X116840000Y-114300000D03*
G04 #@! TO.P,U1,3*
G04 #@! TO.N,/LED_D*
X106680000Y-121920000D03*
G04 #@! TO.P,U1,11*
G04 #@! TO.N,/555_OUT*
X114300000Y-114300000D03*
G04 #@! TO.P,U1,4*
G04 #@! TO.N,/LED_E*
X109220000Y-121920000D03*
G04 #@! TO.P,U1,12*
G04 #@! TO.N,/555_OUT*
X111760000Y-114300000D03*
G04 #@! TO.P,U1,5*
G04 #@! TO.N,/LED_F*
X111760000Y-121920000D03*
G04 #@! TO.P,U1,13*
G04 #@! TO.N,GND*
X109220000Y-114300000D03*
G04 #@! TO.P,U1,6*
G04 #@! TO.N,/LED_G*
X114300000Y-121920000D03*
G04 #@! TO.P,U1,14*
G04 #@! TO.N,/PULL_HIGH*
X106680000Y-114300000D03*
G04 #@! TO.P,U1,7*
G04 #@! TO.N,/LED_H*
X116840000Y-121920000D03*
G04 #@! TO.P,U1,15*
G04 #@! TO.N,/LED_A*
X104140000Y-114300000D03*
G04 #@! TO.P,U1,8*
G04 #@! TO.N,GND*
X119380000Y-121920000D03*
G04 #@! TO.P,U1,16*
G04 #@! TO.N,Net-(R24-Pad1)*
X101600000Y-114300000D03*
G04 #@! TD*
D21*
G04 #@! TO.P,U2,1*
G04 #@! TO.N,GND*
X106680000Y-107950000D03*
D22*
G04 #@! TO.P,U2,5*
G04 #@! TO.N,Net-(U2-Pad5)*
X114300000Y-100330000D03*
G04 #@! TO.P,U2,2*
G04 #@! TO.N,Net-(C1-Pad1)*
X109220000Y-107950000D03*
G04 #@! TO.P,U2,6*
X111760000Y-100330000D03*
G04 #@! TO.P,U2,3*
G04 #@! TO.N,/555_OUT*
X111760000Y-107950000D03*
G04 #@! TO.P,U2,7*
G04 #@! TO.N,Net-(R26-Pad1)*
X109220000Y-100330000D03*
G04 #@! TO.P,U2,4*
G04 #@! TO.N,VCC*
X114300000Y-107950000D03*
G04 #@! TO.P,U2,8*
G04 #@! TO.N,Net-(R25-Pad2)*
X106680000Y-100330000D03*
G04 #@! TD*
D23*
G04 #@! TO.P,SW3,1*
G04 #@! TO.N,Net-(SW3-Pad1)*
X124460000Y-106680000D03*
D24*
G04 #@! TO.P,SW3,2*
G04 #@! TO.N,VCC*
X127000000Y-106680000D03*
G04 #@! TO.P,SW3,3*
G04 #@! TO.N,Net-(J1-Pad1)*
X129540000Y-106680000D03*
G04 #@! TD*
D25*
G04 #@! TO.N,/XOR_IN_A*
X121920000Y-100330000D03*
G04 #@! TD*
D26*
G04 #@! TO.N,GND*
X136450000Y-101310000D02*
X142950000Y-101310000D01*
X135930000Y-101830000D02*
X136450000Y-101310000D01*
X127000000Y-101830000D02*
X135930000Y-101830000D01*
X108420001Y-115099999D02*
X109220000Y-114300000D01*
X104184999Y-119335001D02*
X108420001Y-115099999D01*
X80010000Y-119260000D02*
X80085001Y-119335001D01*
X80010000Y-118110000D02*
X80010000Y-119260000D01*
X109220000Y-110490000D02*
X106680000Y-107950000D01*
X109220000Y-114300000D02*
X109220000Y-110490000D01*
X100600000Y-82550000D02*
X101600000Y-82550000D01*
X93024999Y-90125001D02*
X100600000Y-82550000D01*
X67385001Y-90125001D02*
X93024999Y-90125001D01*
X67310000Y-90050000D02*
X67385001Y-90125001D01*
X67310000Y-88900000D02*
X67310000Y-90050000D01*
X100330000Y-82550000D02*
X93980000Y-76200000D01*
X101600000Y-82550000D02*
X100330000Y-82550000D01*
X93980000Y-76200000D02*
X93980000Y-71120000D01*
X93980000Y-71120000D02*
X91440000Y-68580000D01*
X91440000Y-66040000D02*
X93980000Y-63500000D01*
X91440000Y-68580000D02*
X91440000Y-66040000D01*
X101600000Y-66040000D02*
X118110000Y-66040000D01*
X117110000Y-66040000D02*
X118110000Y-66040000D01*
X109220000Y-58150000D02*
X117110000Y-66040000D01*
X109220000Y-46990000D02*
X109220000Y-58150000D01*
X138430000Y-68580000D02*
X147320000Y-77470000D01*
X138430000Y-59690000D02*
X138430000Y-68580000D01*
X143510000Y-73660000D02*
X135890000Y-73660000D01*
X147320000Y-77470000D02*
X143510000Y-73660000D01*
X147320000Y-85090000D02*
X151130000Y-88900000D01*
X147320000Y-77470000D02*
X147320000Y-85090000D01*
X128270000Y-101408528D02*
X127848528Y-101830000D01*
X127848528Y-101830000D02*
X127000000Y-101830000D01*
X128270000Y-87630000D02*
X128270000Y-101408528D01*
X134890000Y-73660000D02*
X135890000Y-73660000D01*
X131057002Y-73660000D02*
X134890000Y-73660000D01*
X123437002Y-66040000D02*
X131057002Y-73660000D01*
X118110000Y-66040000D02*
X123437002Y-66040000D01*
X136450000Y-117400000D02*
X138430000Y-119380000D01*
X137040000Y-121920000D02*
X138430000Y-120530000D01*
X138430000Y-120530000D02*
X138430000Y-119380000D01*
X119380000Y-121920000D02*
X137040000Y-121920000D01*
X109220000Y-130810000D02*
X109220000Y-129540000D01*
X109220000Y-129540000D02*
X111760000Y-127000000D01*
X114300000Y-127000000D02*
X119380000Y-121920000D01*
X111760000Y-127000000D02*
X114300000Y-127000000D01*
X120650000Y-121920000D02*
X119380000Y-121920000D01*
X130810000Y-111760000D02*
X120650000Y-121920000D01*
X135890000Y-81010000D02*
X135890000Y-73660000D01*
X129270000Y-87630000D02*
X135890000Y-81010000D01*
X128270000Y-87630000D02*
X129270000Y-87630000D01*
X96520000Y-66040000D02*
X101600000Y-66040000D01*
X93980000Y-63500000D02*
X96520000Y-66040000D01*
X80010000Y-60840000D02*
X81400000Y-62230000D01*
X80010000Y-59690000D02*
X80010000Y-60840000D01*
X92710000Y-62230000D02*
X93980000Y-63500000D01*
X81400000Y-62230000D02*
X92710000Y-62230000D01*
X108094999Y-121669997D02*
X105805002Y-119380000D01*
X108094999Y-123334999D02*
X108094999Y-121669997D01*
X111760000Y-127000000D02*
X108094999Y-123334999D01*
X104184999Y-119380000D02*
X104140000Y-119335001D01*
X105805002Y-119380000D02*
X104184999Y-119380000D01*
X104140000Y-119335001D02*
X104184999Y-119335001D01*
X80085001Y-119335001D02*
X104140000Y-119335001D01*
X136450000Y-110490000D02*
X136450000Y-117400000D01*
X135180000Y-111760000D02*
X136450000Y-110490000D01*
X130810000Y-111760000D02*
X135180000Y-111760000D01*
X136450000Y-101310000D02*
X136450000Y-110490000D01*
X133350000Y-104410000D02*
X136450000Y-101310000D01*
X133350000Y-109220000D02*
X133350000Y-104410000D01*
G04 #@! TO.N,VCC*
X115099999Y-107150001D02*
X114300000Y-107950000D01*
X116173001Y-107150001D02*
X115099999Y-107150001D01*
X122645001Y-100678001D02*
X116173001Y-107150001D01*
X122645001Y-85815001D02*
X122645001Y-100678001D01*
X118110000Y-81280000D02*
X122645001Y-85815001D01*
G04 #@! TO.N,/XOR_IN_A*
X106399949Y-87630000D02*
X105410000Y-87630000D01*
X109785685Y-87630000D02*
X106399949Y-87630000D01*
X121920000Y-99764315D02*
X109785685Y-87630000D01*
X121920000Y-100330000D02*
X121920000Y-99764315D01*
G04 #@! TO.N,/LED_E*
X110490000Y-120650000D02*
X109220000Y-121920000D01*
X110490000Y-107554998D02*
X110490000Y-120650000D01*
X104384999Y-86115001D02*
X104384999Y-101449997D01*
X104384999Y-101449997D02*
X110490000Y-107554998D01*
X105410000Y-85090000D02*
X104384999Y-86115001D01*
G04 #@! TD*
D27*
G04 #@! TO.N,GND*
G36*
X114086946Y-41902322D02*
X116801189Y-42180418D01*
X119494923Y-42614296D01*
X122159215Y-43202516D01*
X124785228Y-43943129D01*
X127364255Y-44833677D01*
X129887741Y-45871207D01*
X132347318Y-47052280D01*
X134734830Y-48372977D01*
X137042358Y-49828918D01*
X139262250Y-51415277D01*
X141387144Y-53126790D01*
X143409993Y-54957784D01*
X145324088Y-56902184D01*
X147123081Y-58953543D01*
X148801008Y-61105058D01*
X150352302Y-63349593D01*
X151771819Y-65679706D01*
X153054851Y-68087668D01*
X154197145Y-70565493D01*
X155194910Y-73104965D01*
X156044839Y-75697661D01*
X156744112Y-78334984D01*
X157290411Y-81008186D01*
X157681924Y-83708403D01*
X157917352Y-86426679D01*
X157995915Y-89154000D01*
X157995266Y-89402074D01*
X157902424Y-92128947D01*
X157652766Y-94845953D01*
X157247120Y-97544083D01*
X156686832Y-100214388D01*
X155973759Y-102848013D01*
X155110267Y-105436223D01*
X154099218Y-107970436D01*
X152943967Y-110442247D01*
X151648344Y-112843457D01*
X150216646Y-115166105D01*
X148653621Y-117402488D01*
X146964453Y-119545188D01*
X145154743Y-121587099D01*
X143230493Y-123521451D01*
X141198085Y-125341827D01*
X139064259Y-127042191D01*
X136836091Y-128616905D01*
X134520971Y-130060744D01*
X132126577Y-131368922D01*
X129660850Y-132537100D01*
X127131965Y-133561404D01*
X124548312Y-134438436D01*
X121918456Y-135165289D01*
X119251121Y-135739551D01*
X116555153Y-136159318D01*
X113839491Y-136423199D01*
X111113142Y-136530317D01*
X108385147Y-136480318D01*
X105664555Y-136273368D01*
X102960386Y-135910153D01*
X100281610Y-135391877D01*
X97637109Y-134720260D01*
X95035655Y-133897528D01*
X92485874Y-132926410D01*
X89996223Y-131810127D01*
X87574957Y-130552380D01*
X87561632Y-130544452D01*
X105345000Y-130544452D01*
X105345000Y-131075548D01*
X105548242Y-131566217D01*
X105923783Y-131941758D01*
X106414452Y-132145000D01*
X106945548Y-132145000D01*
X107436217Y-131941758D01*
X107685000Y-131692975D01*
X107685000Y-131836310D01*
X107781673Y-132069699D01*
X107960302Y-132248327D01*
X108193691Y-132345000D01*
X108934250Y-132345000D01*
X109093000Y-132186250D01*
X109093000Y-130937000D01*
X109073000Y-130937000D01*
X109073000Y-130683000D01*
X109093000Y-130683000D01*
X109093000Y-129433750D01*
X109347000Y-129433750D01*
X109347000Y-130683000D01*
X109367000Y-130683000D01*
X109367000Y-130937000D01*
X109347000Y-130937000D01*
X109347000Y-132186250D01*
X109505750Y-132345000D01*
X110246309Y-132345000D01*
X110479698Y-132248327D01*
X110658327Y-132069699D01*
X110714139Y-131934956D01*
X110890493Y-132111310D01*
X111454670Y-132345000D01*
X112065330Y-132345000D01*
X112629507Y-132111310D01*
X113061310Y-131679507D01*
X113143237Y-131481718D01*
X113337519Y-131772481D01*
X113779109Y-132067542D01*
X114168515Y-132145000D01*
X114431485Y-132145000D01*
X114820891Y-132067542D01*
X115262481Y-131772481D01*
X115557542Y-131330891D01*
X115661154Y-130810000D01*
X115557542Y-130289109D01*
X115262481Y-129847519D01*
X114820891Y-129552458D01*
X114431485Y-129475000D01*
X114168515Y-129475000D01*
X113779109Y-129552458D01*
X113337519Y-129847519D01*
X113143237Y-130138282D01*
X113061310Y-129940493D01*
X112629507Y-129508690D01*
X112065330Y-129275000D01*
X111454670Y-129275000D01*
X110890493Y-129508690D01*
X110714139Y-129685044D01*
X110658327Y-129550301D01*
X110479698Y-129371673D01*
X110246309Y-129275000D01*
X109505750Y-129275000D01*
X109347000Y-129433750D01*
X109093000Y-129433750D01*
X108934250Y-129275000D01*
X108193691Y-129275000D01*
X107960302Y-129371673D01*
X107781673Y-129550301D01*
X107685000Y-129783690D01*
X107685000Y-129927025D01*
X107436217Y-129678242D01*
X106945548Y-129475000D01*
X106414452Y-129475000D01*
X105923783Y-129678242D01*
X105548242Y-130053783D01*
X105345000Y-130544452D01*
X87561632Y-130544452D01*
X85230108Y-129157341D01*
X82969451Y-127629636D01*
X80800483Y-125974332D01*
X78730397Y-124196919D01*
X76766060Y-122303290D01*
X75672238Y-121120000D01*
X100152560Y-121120000D01*
X100152560Y-122720000D01*
X100201843Y-122967765D01*
X100342191Y-123177809D01*
X100552235Y-123318157D01*
X100800000Y-123367440D01*
X102400000Y-123367440D01*
X102647765Y-123318157D01*
X102857809Y-123177809D01*
X102998157Y-122967765D01*
X103024785Y-122833894D01*
X103105423Y-122954577D01*
X103580091Y-123271740D01*
X103998667Y-123355000D01*
X104281333Y-123355000D01*
X104699909Y-123271740D01*
X105174577Y-122954577D01*
X105410000Y-122602242D01*
X105645423Y-122954577D01*
X106120091Y-123271740D01*
X106538667Y-123355000D01*
X106821333Y-123355000D01*
X107239909Y-123271740D01*
X107714577Y-122954577D01*
X107950000Y-122602242D01*
X108185423Y-122954577D01*
X108660091Y-123271740D01*
X109078667Y-123355000D01*
X109361333Y-123355000D01*
X109779909Y-123271740D01*
X110254577Y-122954577D01*
X110490000Y-122602242D01*
X110725423Y-122954577D01*
X111200091Y-123271740D01*
X111618667Y-123355000D01*
X111901333Y-123355000D01*
X112319909Y-123271740D01*
X112794577Y-122954577D01*
X113030000Y-122602242D01*
X113265423Y-122954577D01*
X113740091Y-123271740D01*
X114158667Y-123355000D01*
X114441333Y-123355000D01*
X114859909Y-123271740D01*
X115334577Y-122954577D01*
X115570000Y-122602242D01*
X115805423Y-122954577D01*
X116280091Y-123271740D01*
X116698667Y-123355000D01*
X116981333Y-123355000D01*
X117399909Y-123271740D01*
X117874577Y-122954577D01*
X118130947Y-122570892D01*
X118227611Y-122775134D01*
X118642577Y-123151041D01*
X119030961Y-123311904D01*
X119253000Y-123189915D01*
X119253000Y-122047000D01*
X119507000Y-122047000D01*
X119507000Y-123189915D01*
X119729039Y-123311904D01*
X120117423Y-123151041D01*
X120532389Y-122775134D01*
X120771914Y-122269041D01*
X120650629Y-122047000D01*
X119507000Y-122047000D01*
X119253000Y-122047000D01*
X119233000Y-122047000D01*
X119233000Y-121793000D01*
X119253000Y-121793000D01*
X119253000Y-120650085D01*
X119507000Y-120650085D01*
X119507000Y-121793000D01*
X120650629Y-121793000D01*
X120771914Y-121570959D01*
X120532389Y-121064866D01*
X120117423Y-120688959D01*
X119729039Y-120528096D01*
X119507000Y-120650085D01*
X119253000Y-120650085D01*
X119030961Y-120528096D01*
X118642577Y-120688959D01*
X118227611Y-121064866D01*
X118130947Y-121269108D01*
X117874577Y-120885423D01*
X117399909Y-120568260D01*
X116981333Y-120485000D01*
X116698667Y-120485000D01*
X116280091Y-120568260D01*
X115805423Y-120885423D01*
X115570000Y-121237758D01*
X115334577Y-120885423D01*
X114859909Y-120568260D01*
X114441333Y-120485000D01*
X114158667Y-120485000D01*
X113740091Y-120568260D01*
X113265423Y-120885423D01*
X113030000Y-121237758D01*
X112794577Y-120885423D01*
X112319909Y-120568260D01*
X111901333Y-120485000D01*
X111618667Y-120485000D01*
X111250000Y-120558332D01*
X111250000Y-119114452D01*
X134555000Y-119114452D01*
X134555000Y-119645548D01*
X134758242Y-120136217D01*
X135133783Y-120511758D01*
X135624452Y-120715000D01*
X136155548Y-120715000D01*
X136646217Y-120511758D01*
X136895000Y-120262975D01*
X136895000Y-120406310D01*
X136991673Y-120639699D01*
X137170302Y-120818327D01*
X137403691Y-120915000D01*
X138144250Y-120915000D01*
X138303000Y-120756250D01*
X138303000Y-119507000D01*
X138283000Y-119507000D01*
X138283000Y-119253000D01*
X138303000Y-119253000D01*
X138303000Y-118003750D01*
X138557000Y-118003750D01*
X138557000Y-119253000D01*
X138577000Y-119253000D01*
X138577000Y-119507000D01*
X138557000Y-119507000D01*
X138557000Y-120756250D01*
X138715750Y-120915000D01*
X139456309Y-120915000D01*
X139689698Y-120818327D01*
X139868327Y-120639699D01*
X139924139Y-120504956D01*
X140100493Y-120681310D01*
X140664670Y-120915000D01*
X141275330Y-120915000D01*
X141839507Y-120681310D01*
X142271310Y-120249507D01*
X142353237Y-120051718D01*
X142547519Y-120342481D01*
X142989109Y-120637542D01*
X143378515Y-120715000D01*
X143641485Y-120715000D01*
X144030891Y-120637542D01*
X144472481Y-120342481D01*
X144767542Y-119900891D01*
X144871154Y-119380000D01*
X144767542Y-118859109D01*
X144472481Y-118417519D01*
X144030891Y-118122458D01*
X143641485Y-118045000D01*
X143378515Y-118045000D01*
X142989109Y-118122458D01*
X142547519Y-118417519D01*
X142353237Y-118708282D01*
X142271310Y-118510493D01*
X141839507Y-118078690D01*
X141275330Y-117845000D01*
X140664670Y-117845000D01*
X140100493Y-118078690D01*
X139924139Y-118255044D01*
X139868327Y-118120301D01*
X139689698Y-117941673D01*
X139456309Y-117845000D01*
X138715750Y-117845000D01*
X138557000Y-118003750D01*
X138303000Y-118003750D01*
X138144250Y-117845000D01*
X137403691Y-117845000D01*
X137170302Y-117941673D01*
X136991673Y-118120301D01*
X136895000Y-118353690D01*
X136895000Y-118497025D01*
X136646217Y-118248242D01*
X136155548Y-118045000D01*
X135624452Y-118045000D01*
X135133783Y-118248242D01*
X134758242Y-118623783D01*
X134555000Y-119114452D01*
X111250000Y-119114452D01*
X111250000Y-115661668D01*
X111618667Y-115735000D01*
X111901333Y-115735000D01*
X112319909Y-115651740D01*
X112794577Y-115334577D01*
X113030000Y-114982242D01*
X113265423Y-115334577D01*
X113740091Y-115651740D01*
X114158667Y-115735000D01*
X114441333Y-115735000D01*
X114859909Y-115651740D01*
X115334577Y-115334577D01*
X115570000Y-114982242D01*
X115805423Y-115334577D01*
X116280091Y-115651740D01*
X116698667Y-115735000D01*
X116981333Y-115735000D01*
X117399909Y-115651740D01*
X117874577Y-115334577D01*
X118110000Y-114982242D01*
X118345423Y-115334577D01*
X118820091Y-115651740D01*
X119238667Y-115735000D01*
X119521333Y-115735000D01*
X119939909Y-115651740D01*
X120414577Y-115334577D01*
X120731740Y-114859909D01*
X120843113Y-114300000D01*
X120731740Y-113740091D01*
X120414577Y-113265423D01*
X119939909Y-112948260D01*
X119521333Y-112865000D01*
X119238667Y-112865000D01*
X118820091Y-112948260D01*
X118345423Y-113265423D01*
X118110000Y-113617758D01*
X117874577Y-113265423D01*
X117399909Y-112948260D01*
X116981333Y-112865000D01*
X116698667Y-112865000D01*
X116280091Y-112948260D01*
X115805423Y-113265423D01*
X115570000Y-113617758D01*
X115334577Y-113265423D01*
X114859909Y-112948260D01*
X114441333Y-112865000D01*
X114158667Y-112865000D01*
X113740091Y-112948260D01*
X113265423Y-113265423D01*
X113030000Y-113617758D01*
X112794577Y-113265423D01*
X112319909Y-112948260D01*
X111901333Y-112865000D01*
X111618667Y-112865000D01*
X111250000Y-112938332D01*
X111250000Y-110372532D01*
X132377073Y-110372532D01*
X132475736Y-110639387D01*
X133085461Y-110865908D01*
X133735460Y-110841856D01*
X134224264Y-110639387D01*
X134322927Y-110372532D01*
X133350000Y-109399605D01*
X132377073Y-110372532D01*
X111250000Y-110372532D01*
X111250000Y-109311668D01*
X111618667Y-109385000D01*
X111901333Y-109385000D01*
X112319909Y-109301740D01*
X112794577Y-108984577D01*
X113030000Y-108632242D01*
X113265423Y-108984577D01*
X113740091Y-109301740D01*
X114158667Y-109385000D01*
X114441333Y-109385000D01*
X114859909Y-109301740D01*
X115334577Y-108984577D01*
X115354031Y-108955461D01*
X131704092Y-108955461D01*
X131728144Y-109605460D01*
X131930613Y-110094264D01*
X132197468Y-110192927D01*
X133170395Y-109220000D01*
X133529605Y-109220000D01*
X134502532Y-110192927D01*
X134769387Y-110094264D01*
X134995908Y-109484539D01*
X134971856Y-108834540D01*
X134769387Y-108345736D01*
X134502532Y-108247073D01*
X133529605Y-109220000D01*
X133170395Y-109220000D01*
X132197468Y-108247073D01*
X131930613Y-108345736D01*
X131704092Y-108955461D01*
X115354031Y-108955461D01*
X115651740Y-108509909D01*
X115763113Y-107950000D01*
X115755157Y-107910001D01*
X116098154Y-107910001D01*
X116173001Y-107924889D01*
X116247848Y-107910001D01*
X116247853Y-107910001D01*
X116469538Y-107865905D01*
X116720930Y-107697930D01*
X116763332Y-107634471D01*
X118567803Y-105830000D01*
X122962560Y-105830000D01*
X122962560Y-107530000D01*
X123011843Y-107777765D01*
X123152191Y-107987809D01*
X123362235Y-108128157D01*
X123610000Y-108177440D01*
X125310000Y-108177440D01*
X125557765Y-108128157D01*
X125767809Y-107987809D01*
X125908157Y-107777765D01*
X125917184Y-107732381D01*
X125929375Y-107750625D01*
X126420582Y-108078839D01*
X126853744Y-108165000D01*
X127146256Y-108165000D01*
X127579418Y-108078839D01*
X128070625Y-107750625D01*
X128270000Y-107452239D01*
X128469375Y-107750625D01*
X128960582Y-108078839D01*
X129393744Y-108165000D01*
X129686256Y-108165000D01*
X130119418Y-108078839D01*
X130136435Y-108067468D01*
X132377073Y-108067468D01*
X133350000Y-109040395D01*
X134322927Y-108067468D01*
X134224264Y-107800613D01*
X133614539Y-107574092D01*
X132964540Y-107598144D01*
X132475736Y-107800613D01*
X132377073Y-108067468D01*
X130136435Y-108067468D01*
X130610625Y-107750625D01*
X130938839Y-107259418D01*
X131054092Y-106680000D01*
X130938839Y-106100582D01*
X130610625Y-105609375D01*
X130119418Y-105281161D01*
X129686256Y-105195000D01*
X129393744Y-105195000D01*
X128960582Y-105281161D01*
X128469375Y-105609375D01*
X128270000Y-105907761D01*
X128070625Y-105609375D01*
X127579418Y-105281161D01*
X127146256Y-105195000D01*
X126853744Y-105195000D01*
X126420582Y-105281161D01*
X125929375Y-105609375D01*
X125917184Y-105627619D01*
X125908157Y-105582235D01*
X125767809Y-105372191D01*
X125557765Y-105231843D01*
X125310000Y-105182560D01*
X123610000Y-105182560D01*
X123362235Y-105231843D01*
X123152191Y-105372191D01*
X123011843Y-105582235D01*
X122962560Y-105830000D01*
X118567803Y-105830000D01*
X121705068Y-102692735D01*
X126316870Y-102692735D01*
X126366383Y-102918164D01*
X126831036Y-103077807D01*
X127321413Y-103047482D01*
X127633617Y-102918164D01*
X127683130Y-102692735D01*
X127000000Y-102009605D01*
X126316870Y-102692735D01*
X121705068Y-102692735D01*
X122736767Y-101661036D01*
X125752193Y-101661036D01*
X125782518Y-102151413D01*
X125911836Y-102463617D01*
X126137265Y-102513130D01*
X126820395Y-101830000D01*
X126806253Y-101815858D01*
X126985858Y-101636253D01*
X127000000Y-101650395D01*
X127014143Y-101636253D01*
X127193748Y-101815858D01*
X127179605Y-101830000D01*
X127862735Y-102513130D01*
X128088164Y-102463617D01*
X128150728Y-102281517D01*
X135658088Y-102281517D01*
X135726077Y-102522460D01*
X136245171Y-102707201D01*
X136795448Y-102679230D01*
X137173923Y-102522460D01*
X137241912Y-102281517D01*
X142158088Y-102281517D01*
X142226077Y-102522460D01*
X142745171Y-102707201D01*
X143295448Y-102679230D01*
X143673923Y-102522460D01*
X143741912Y-102281517D01*
X142950000Y-101489605D01*
X142158088Y-102281517D01*
X137241912Y-102281517D01*
X136450000Y-101489605D01*
X135658088Y-102281517D01*
X128150728Y-102281517D01*
X128247807Y-101998964D01*
X128217482Y-101508587D01*
X128125495Y-101286510D01*
X128198157Y-101177765D01*
X128212596Y-101105171D01*
X135052799Y-101105171D01*
X135080770Y-101655448D01*
X135237540Y-102033923D01*
X135478483Y-102101912D01*
X136270395Y-101310000D01*
X136629605Y-101310000D01*
X137421517Y-102101912D01*
X137662460Y-102033923D01*
X137847201Y-101514829D01*
X137826378Y-101105171D01*
X141552799Y-101105171D01*
X141580770Y-101655448D01*
X141737540Y-102033923D01*
X141978483Y-102101912D01*
X142770395Y-101310000D01*
X143129605Y-101310000D01*
X143921517Y-102101912D01*
X144162460Y-102033923D01*
X144347201Y-101514829D01*
X144319230Y-100964552D01*
X144162460Y-100586077D01*
X143921517Y-100518088D01*
X143129605Y-101310000D01*
X142770395Y-101310000D01*
X141978483Y-100518088D01*
X141737540Y-100586077D01*
X141552799Y-101105171D01*
X137826378Y-101105171D01*
X137819230Y-100964552D01*
X137662460Y-100586077D01*
X137421517Y-100518088D01*
X136629605Y-101310000D01*
X136270395Y-101310000D01*
X135478483Y-100518088D01*
X135237540Y-100586077D01*
X135052799Y-101105171D01*
X128212596Y-101105171D01*
X128247440Y-100930000D01*
X128247440Y-100338483D01*
X135658088Y-100338483D01*
X136450000Y-101130395D01*
X137241912Y-100338483D01*
X142158088Y-100338483D01*
X142950000Y-101130395D01*
X143741912Y-100338483D01*
X143673923Y-100097540D01*
X143154829Y-99912799D01*
X142604552Y-99940770D01*
X142226077Y-100097540D01*
X142158088Y-100338483D01*
X137241912Y-100338483D01*
X137173923Y-100097540D01*
X136654829Y-99912799D01*
X136104552Y-99940770D01*
X135726077Y-100097540D01*
X135658088Y-100338483D01*
X128247440Y-100338483D01*
X128247440Y-99730000D01*
X128198157Y-99482235D01*
X128057809Y-99272191D01*
X127847765Y-99131843D01*
X127600000Y-99082560D01*
X126400000Y-99082560D01*
X126152235Y-99131843D01*
X125942191Y-99272191D01*
X125801843Y-99482235D01*
X125752560Y-99730000D01*
X125752560Y-100930000D01*
X125801843Y-101177765D01*
X125878709Y-101292802D01*
X125752193Y-101661036D01*
X122736767Y-101661036D01*
X123129474Y-101268330D01*
X123192930Y-101225930D01*
X123360905Y-100974538D01*
X123405001Y-100752853D01*
X123405001Y-100752849D01*
X123419889Y-100678002D01*
X123405001Y-100603155D01*
X123405001Y-97344018D01*
X123497519Y-97482481D01*
X123939109Y-97777542D01*
X124328515Y-97855000D01*
X124591485Y-97855000D01*
X124980891Y-97777542D01*
X125422481Y-97482481D01*
X125717542Y-97040891D01*
X125821154Y-96520000D01*
X125756464Y-96194778D01*
X131715000Y-96194778D01*
X131715000Y-96845222D01*
X131963914Y-97446153D01*
X132423847Y-97906086D01*
X133024778Y-98155000D01*
X133675222Y-98155000D01*
X134276153Y-97906086D01*
X134736086Y-97446153D01*
X134985000Y-96845222D01*
X134985000Y-96534506D01*
X135065000Y-96534506D01*
X135065000Y-97085494D01*
X135275853Y-97594540D01*
X135665460Y-97984147D01*
X136174506Y-98195000D01*
X136725494Y-98195000D01*
X137234540Y-97984147D01*
X137624147Y-97594540D01*
X137835000Y-97085494D01*
X137835000Y-96534506D01*
X141565000Y-96534506D01*
X141565000Y-97085494D01*
X141775853Y-97594540D01*
X142165460Y-97984147D01*
X142674506Y-98195000D01*
X143225494Y-98195000D01*
X143734540Y-97984147D01*
X144124147Y-97594540D01*
X144335000Y-97085494D01*
X144335000Y-96534506D01*
X144124147Y-96025460D01*
X143734540Y-95635853D01*
X143225494Y-95425000D01*
X142674506Y-95425000D01*
X142165460Y-95635853D01*
X141775853Y-96025460D01*
X141565000Y-96534506D01*
X137835000Y-96534506D01*
X137624147Y-96025460D01*
X137234540Y-95635853D01*
X136725494Y-95425000D01*
X136174506Y-95425000D01*
X135665460Y-95635853D01*
X135275853Y-96025460D01*
X135065000Y-96534506D01*
X134985000Y-96534506D01*
X134985000Y-96194778D01*
X134736086Y-95593847D01*
X134276153Y-95133914D01*
X133675222Y-94885000D01*
X133024778Y-94885000D01*
X132423847Y-95133914D01*
X131963914Y-95593847D01*
X131715000Y-96194778D01*
X125756464Y-96194778D01*
X125717542Y-95999109D01*
X125422481Y-95557519D01*
X124980891Y-95262458D01*
X124591485Y-95185000D01*
X124328515Y-95185000D01*
X123939109Y-95262458D01*
X123497519Y-95557519D01*
X123405001Y-95695982D01*
X123405001Y-87915750D01*
X126885000Y-87915750D01*
X126885000Y-88281309D01*
X126981673Y-88514698D01*
X127160301Y-88693327D01*
X127393690Y-88790000D01*
X127984250Y-88790000D01*
X128143000Y-88631250D01*
X128143000Y-87757000D01*
X128397000Y-87757000D01*
X128397000Y-88631250D01*
X128555750Y-88790000D01*
X129146310Y-88790000D01*
X129379699Y-88693327D01*
X129438573Y-88634452D01*
X147255000Y-88634452D01*
X147255000Y-89165548D01*
X147458242Y-89656217D01*
X147833783Y-90031758D01*
X148324452Y-90235000D01*
X148855548Y-90235000D01*
X149346217Y-90031758D01*
X149595000Y-89782975D01*
X149595000Y-89926310D01*
X149691673Y-90159699D01*
X149870302Y-90338327D01*
X150103691Y-90435000D01*
X150844250Y-90435000D01*
X151003000Y-90276250D01*
X151003000Y-89027000D01*
X150983000Y-89027000D01*
X150983000Y-88773000D01*
X151003000Y-88773000D01*
X151003000Y-87523750D01*
X151257000Y-87523750D01*
X151257000Y-88773000D01*
X151277000Y-88773000D01*
X151277000Y-89027000D01*
X151257000Y-89027000D01*
X151257000Y-90276250D01*
X151415750Y-90435000D01*
X152156309Y-90435000D01*
X152389698Y-90338327D01*
X152568327Y-90159699D01*
X152624139Y-90024956D01*
X152800493Y-90201310D01*
X153364670Y-90435000D01*
X153975330Y-90435000D01*
X154539507Y-90201310D01*
X154971310Y-89769507D01*
X155053237Y-89571718D01*
X155247519Y-89862481D01*
X155689109Y-90157542D01*
X156078515Y-90235000D01*
X156341485Y-90235000D01*
X156730891Y-90157542D01*
X157172481Y-89862481D01*
X157467542Y-89420891D01*
X157571154Y-88900000D01*
X157467542Y-88379109D01*
X157172481Y-87937519D01*
X156730891Y-87642458D01*
X156341485Y-87565000D01*
X156078515Y-87565000D01*
X155689109Y-87642458D01*
X155247519Y-87937519D01*
X155053237Y-88228282D01*
X154971310Y-88030493D01*
X154539507Y-87598690D01*
X153975330Y-87365000D01*
X153364670Y-87365000D01*
X152800493Y-87598690D01*
X152624139Y-87775044D01*
X152568327Y-87640301D01*
X152389698Y-87461673D01*
X152156309Y-87365000D01*
X151415750Y-87365000D01*
X151257000Y-87523750D01*
X151003000Y-87523750D01*
X150844250Y-87365000D01*
X150103691Y-87365000D01*
X149870302Y-87461673D01*
X149691673Y-87640301D01*
X149595000Y-87873690D01*
X149595000Y-88017025D01*
X149346217Y-87768242D01*
X148855548Y-87565000D01*
X148324452Y-87565000D01*
X147833783Y-87768242D01*
X147458242Y-88143783D01*
X147255000Y-88634452D01*
X129438573Y-88634452D01*
X129558327Y-88514698D01*
X129655000Y-88281309D01*
X129655000Y-87915750D01*
X129496250Y-87757000D01*
X128397000Y-87757000D01*
X128143000Y-87757000D01*
X127043750Y-87757000D01*
X126885000Y-87915750D01*
X123405001Y-87915750D01*
X123405001Y-85889848D01*
X123419889Y-85815001D01*
X123405001Y-85740154D01*
X123405001Y-85740149D01*
X123360905Y-85518464D01*
X123192930Y-85267072D01*
X123129474Y-85224672D01*
X122732302Y-84827500D01*
X126872560Y-84827500D01*
X126872560Y-85352500D01*
X126941825Y-85700719D01*
X126958049Y-85725000D01*
X126941825Y-85749281D01*
X126872560Y-86097500D01*
X126872560Y-86622500D01*
X126924461Y-86883424D01*
X126885000Y-86978691D01*
X126885000Y-87344250D01*
X127043750Y-87503000D01*
X127634495Y-87503000D01*
X127782500Y-87532440D01*
X128757500Y-87532440D01*
X128905505Y-87503000D01*
X129496250Y-87503000D01*
X129655000Y-87344250D01*
X129655000Y-86978691D01*
X129615539Y-86883424D01*
X129667440Y-86622500D01*
X129667440Y-86097500D01*
X129598175Y-85749281D01*
X129581951Y-85725000D01*
X129598175Y-85700719D01*
X129667440Y-85352500D01*
X129667440Y-84827500D01*
X129598175Y-84479281D01*
X129400925Y-84184075D01*
X129105719Y-83986825D01*
X128757500Y-83917560D01*
X127782500Y-83917560D01*
X127434281Y-83986825D01*
X127139075Y-84184075D01*
X126941825Y-84479281D01*
X126872560Y-84827500D01*
X122732302Y-84827500D01*
X119423645Y-81518844D01*
X119471154Y-81280000D01*
X119418334Y-81014452D01*
X124395000Y-81014452D01*
X124395000Y-81545548D01*
X124598242Y-82036217D01*
X124973783Y-82411758D01*
X125464452Y-82615000D01*
X125995548Y-82615000D01*
X126486217Y-82411758D01*
X126861758Y-82036217D01*
X127065000Y-81545548D01*
X127065000Y-81014452D01*
X126861758Y-80523783D01*
X126486217Y-80148242D01*
X125995548Y-79945000D01*
X125464452Y-79945000D01*
X124973783Y-80148242D01*
X124598242Y-80523783D01*
X124395000Y-81014452D01*
X119418334Y-81014452D01*
X119367542Y-80759109D01*
X119072481Y-80317519D01*
X118630891Y-80022458D01*
X118241485Y-79945000D01*
X117978515Y-79945000D01*
X117589109Y-80022458D01*
X117147519Y-80317519D01*
X116852458Y-80759109D01*
X116748846Y-81280000D01*
X116852458Y-81800891D01*
X117147519Y-82242481D01*
X117589109Y-82537542D01*
X117978515Y-82615000D01*
X118241485Y-82615000D01*
X118348844Y-82593645D01*
X121885001Y-86129803D01*
X121885002Y-98654515D01*
X110376016Y-87145530D01*
X110333614Y-87082071D01*
X110082222Y-86914096D01*
X109860537Y-86870000D01*
X109860532Y-86870000D01*
X109785685Y-86855112D01*
X109710838Y-86870000D01*
X106507774Y-86870000D01*
X106372481Y-86667519D01*
X105930891Y-86372458D01*
X105868261Y-86360000D01*
X105930891Y-86347542D01*
X106372481Y-86052481D01*
X106667542Y-85610891D01*
X106771154Y-85090000D01*
X106718334Y-84824452D01*
X111695000Y-84824452D01*
X111695000Y-85355548D01*
X111898242Y-85846217D01*
X112273783Y-86221758D01*
X112607528Y-86360000D01*
X112273783Y-86498242D01*
X111898242Y-86873783D01*
X111695000Y-87364452D01*
X111695000Y-87895548D01*
X111898242Y-88386217D01*
X112273783Y-88761758D01*
X112764452Y-88965000D01*
X113295548Y-88965000D01*
X113786217Y-88761758D01*
X114161758Y-88386217D01*
X114365000Y-87895548D01*
X114365000Y-87364452D01*
X114161758Y-86873783D01*
X113786217Y-86498242D01*
X113452472Y-86360000D01*
X113786217Y-86221758D01*
X114161758Y-85846217D01*
X114365000Y-85355548D01*
X114365000Y-84824452D01*
X114161758Y-84333783D01*
X113786217Y-83958242D01*
X113295548Y-83755000D01*
X112764452Y-83755000D01*
X112273783Y-83958242D01*
X111898242Y-84333783D01*
X111695000Y-84824452D01*
X106718334Y-84824452D01*
X106667542Y-84569109D01*
X106372481Y-84127519D01*
X105930891Y-83832458D01*
X105541485Y-83755000D01*
X105278515Y-83755000D01*
X104889109Y-83832458D01*
X104447519Y-84127519D01*
X104152458Y-84569109D01*
X104048846Y-85090000D01*
X104096355Y-85328843D01*
X103900528Y-85524670D01*
X103837070Y-85567072D01*
X103669095Y-85818465D01*
X103624999Y-86040150D01*
X103624999Y-86040154D01*
X103610111Y-86115001D01*
X103624999Y-86189848D01*
X103625000Y-101375145D01*
X103610111Y-101449997D01*
X103625000Y-101524849D01*
X103669096Y-101746534D01*
X103837071Y-101997926D01*
X103900527Y-102040326D01*
X108539222Y-106679022D01*
X108185423Y-106915423D01*
X108114265Y-107021918D01*
X108018327Y-106790302D01*
X107839699Y-106611673D01*
X107606310Y-106515000D01*
X106965750Y-106515000D01*
X106807000Y-106673750D01*
X106807000Y-107823000D01*
X106827000Y-107823000D01*
X106827000Y-108077000D01*
X106807000Y-108077000D01*
X106807000Y-109226250D01*
X106965750Y-109385000D01*
X107606310Y-109385000D01*
X107839699Y-109288327D01*
X108018327Y-109109698D01*
X108114265Y-108878082D01*
X108185423Y-108984577D01*
X108660091Y-109301740D01*
X109078667Y-109385000D01*
X109361333Y-109385000D01*
X109730000Y-109311667D01*
X109730000Y-112974764D01*
X109569039Y-112908096D01*
X109347000Y-113030085D01*
X109347000Y-114173000D01*
X109367000Y-114173000D01*
X109367000Y-114427000D01*
X109347000Y-114427000D01*
X109347000Y-115569915D01*
X109569039Y-115691904D01*
X109730001Y-115625236D01*
X109730001Y-120335197D01*
X109543886Y-120521312D01*
X109361333Y-120485000D01*
X109078667Y-120485000D01*
X108660091Y-120568260D01*
X108185423Y-120885423D01*
X107950000Y-121237758D01*
X107714577Y-120885423D01*
X107239909Y-120568260D01*
X106821333Y-120485000D01*
X106538667Y-120485000D01*
X106120091Y-120568260D01*
X105645423Y-120885423D01*
X105410000Y-121237758D01*
X105174577Y-120885423D01*
X104699909Y-120568260D01*
X104281333Y-120485000D01*
X103998667Y-120485000D01*
X103580091Y-120568260D01*
X103105423Y-120885423D01*
X103024785Y-121006106D01*
X102998157Y-120872235D01*
X102857809Y-120662191D01*
X102647765Y-120521843D01*
X102400000Y-120472560D01*
X100800000Y-120472560D01*
X100552235Y-120521843D01*
X100342191Y-120662191D01*
X100201843Y-120872235D01*
X100152560Y-121120000D01*
X75672238Y-121120000D01*
X74913984Y-120299726D01*
X73180313Y-118192871D01*
X72925776Y-117844452D01*
X76135000Y-117844452D01*
X76135000Y-118375548D01*
X76338242Y-118866217D01*
X76713783Y-119241758D01*
X77204452Y-119445000D01*
X77735548Y-119445000D01*
X78226217Y-119241758D01*
X78475000Y-118992975D01*
X78475000Y-119136310D01*
X78571673Y-119369699D01*
X78750302Y-119548327D01*
X78983691Y-119645000D01*
X79724250Y-119645000D01*
X79883000Y-119486250D01*
X79883000Y-118237000D01*
X79863000Y-118237000D01*
X79863000Y-117983000D01*
X79883000Y-117983000D01*
X79883000Y-116733750D01*
X80137000Y-116733750D01*
X80137000Y-117983000D01*
X80157000Y-117983000D01*
X80157000Y-118237000D01*
X80137000Y-118237000D01*
X80137000Y-119486250D01*
X80295750Y-119645000D01*
X81036309Y-119645000D01*
X81269698Y-119548327D01*
X81448327Y-119369699D01*
X81504139Y-119234956D01*
X81680493Y-119411310D01*
X82244670Y-119645000D01*
X82855330Y-119645000D01*
X83419507Y-119411310D01*
X83851310Y-118979507D01*
X83933237Y-118781718D01*
X84127519Y-119072481D01*
X84569109Y-119367542D01*
X84958515Y-119445000D01*
X85221485Y-119445000D01*
X85610891Y-119367542D01*
X86052481Y-119072481D01*
X86347542Y-118630891D01*
X86451154Y-118110000D01*
X86347542Y-117589109D01*
X86052481Y-117147519D01*
X85610891Y-116852458D01*
X85221485Y-116775000D01*
X84958515Y-116775000D01*
X84569109Y-116852458D01*
X84127519Y-117147519D01*
X83933237Y-117438282D01*
X83851310Y-117240493D01*
X83419507Y-116808690D01*
X82855330Y-116575000D01*
X82244670Y-116575000D01*
X81680493Y-116808690D01*
X81504139Y-116985044D01*
X81448327Y-116850301D01*
X81269698Y-116671673D01*
X81036309Y-116575000D01*
X80295750Y-116575000D01*
X80137000Y-116733750D01*
X79883000Y-116733750D01*
X79724250Y-116575000D01*
X78983691Y-116575000D01*
X78750302Y-116671673D01*
X78571673Y-116850301D01*
X78475000Y-117083690D01*
X78475000Y-117227025D01*
X78226217Y-116978242D01*
X77735548Y-116775000D01*
X77204452Y-116775000D01*
X76713783Y-116978242D01*
X76338242Y-117353783D01*
X76135000Y-117844452D01*
X72925776Y-117844452D01*
X71570795Y-115989713D01*
X70479761Y-114300000D01*
X100136887Y-114300000D01*
X100248260Y-114859909D01*
X100565423Y-115334577D01*
X101040091Y-115651740D01*
X101458667Y-115735000D01*
X101741333Y-115735000D01*
X102159909Y-115651740D01*
X102634577Y-115334577D01*
X102870000Y-114982242D01*
X103105423Y-115334577D01*
X103580091Y-115651740D01*
X103998667Y-115735000D01*
X104281333Y-115735000D01*
X104699909Y-115651740D01*
X105174577Y-115334577D01*
X105410000Y-114982242D01*
X105645423Y-115334577D01*
X106120091Y-115651740D01*
X106538667Y-115735000D01*
X106821333Y-115735000D01*
X107239909Y-115651740D01*
X107714577Y-115334577D01*
X107970947Y-114950892D01*
X108067611Y-115155134D01*
X108482577Y-115531041D01*
X108870961Y-115691904D01*
X109093000Y-115569915D01*
X109093000Y-114427000D01*
X109073000Y-114427000D01*
X109073000Y-114173000D01*
X109093000Y-114173000D01*
X109093000Y-113030085D01*
X108870961Y-112908096D01*
X108482577Y-113068959D01*
X108067611Y-113444866D01*
X107970947Y-113649108D01*
X107714577Y-113265423D01*
X107239909Y-112948260D01*
X106821333Y-112865000D01*
X106538667Y-112865000D01*
X106120091Y-112948260D01*
X105645423Y-113265423D01*
X105410000Y-113617758D01*
X105174577Y-113265423D01*
X104699909Y-112948260D01*
X104281333Y-112865000D01*
X103998667Y-112865000D01*
X103580091Y-112948260D01*
X103105423Y-113265423D01*
X102870000Y-113617758D01*
X102634577Y-113265423D01*
X102159909Y-112948260D01*
X101741333Y-112865000D01*
X101458667Y-112865000D01*
X101040091Y-112948260D01*
X100565423Y-113265423D01*
X100248260Y-113740091D01*
X100136887Y-114300000D01*
X70479761Y-114300000D01*
X70090769Y-113697558D01*
X68992319Y-111760000D01*
X91348846Y-111760000D01*
X91452458Y-112280891D01*
X91747519Y-112722481D01*
X92189109Y-113017542D01*
X92578515Y-113095000D01*
X92841485Y-113095000D01*
X93230891Y-113017542D01*
X93672481Y-112722481D01*
X93967542Y-112280891D01*
X94071154Y-111760000D01*
X94018334Y-111494452D01*
X98995000Y-111494452D01*
X98995000Y-112025548D01*
X99198242Y-112516217D01*
X99573783Y-112891758D01*
X100064452Y-113095000D01*
X100595548Y-113095000D01*
X101086217Y-112891758D01*
X101461758Y-112516217D01*
X101665000Y-112025548D01*
X101665000Y-111494452D01*
X101461758Y-111003783D01*
X101086217Y-110628242D01*
X100595548Y-110425000D01*
X100064452Y-110425000D01*
X99573783Y-110628242D01*
X99198242Y-111003783D01*
X98995000Y-111494452D01*
X94018334Y-111494452D01*
X93967542Y-111239109D01*
X93672481Y-110797519D01*
X93230891Y-110502458D01*
X92841485Y-110425000D01*
X92578515Y-110425000D01*
X92189109Y-110502458D01*
X91747519Y-110797519D01*
X91452458Y-111239109D01*
X91348846Y-111760000D01*
X68992319Y-111760000D01*
X68745143Y-111324007D01*
X67538380Y-108876932D01*
X67266875Y-108235750D01*
X105245000Y-108235750D01*
X105245000Y-108876309D01*
X105341673Y-109109698D01*
X105520301Y-109288327D01*
X105753690Y-109385000D01*
X106394250Y-109385000D01*
X106553000Y-109226250D01*
X106553000Y-108077000D01*
X105403750Y-108077000D01*
X105245000Y-108235750D01*
X67266875Y-108235750D01*
X66753635Y-107023691D01*
X105245000Y-107023691D01*
X105245000Y-107664250D01*
X105403750Y-107823000D01*
X106553000Y-107823000D01*
X106553000Y-106673750D01*
X106394250Y-106515000D01*
X105753690Y-106515000D01*
X105520301Y-106611673D01*
X105341673Y-106790302D01*
X105245000Y-107023691D01*
X66753635Y-107023691D01*
X66474481Y-106364449D01*
X65931759Y-104844506D01*
X81725000Y-104844506D01*
X81725000Y-105395494D01*
X81935853Y-105904540D01*
X82325460Y-106294147D01*
X82834506Y-106505000D01*
X83385494Y-106505000D01*
X83894540Y-106294147D01*
X84284147Y-105904540D01*
X84495000Y-105395494D01*
X84495000Y-104844506D01*
X88225000Y-104844506D01*
X88225000Y-105395494D01*
X88435853Y-105904540D01*
X88825460Y-106294147D01*
X89334506Y-106505000D01*
X89885494Y-106505000D01*
X90394540Y-106294147D01*
X90784147Y-105904540D01*
X90995000Y-105395494D01*
X90995000Y-104844506D01*
X90784147Y-104335460D01*
X90394540Y-103945853D01*
X89885494Y-103735000D01*
X89334506Y-103735000D01*
X88825460Y-103945853D01*
X88435853Y-104335460D01*
X88225000Y-104844506D01*
X84495000Y-104844506D01*
X84284147Y-104335460D01*
X83894540Y-103945853D01*
X83385494Y-103735000D01*
X82834506Y-103735000D01*
X82325460Y-103945853D01*
X81935853Y-104335460D01*
X81725000Y-104844506D01*
X65931759Y-104844506D01*
X65556974Y-103794890D01*
X64788903Y-101176776D01*
X64595994Y-100344506D01*
X81725000Y-100344506D01*
X81725000Y-100895494D01*
X81935853Y-101404540D01*
X82325460Y-101794147D01*
X82834506Y-102005000D01*
X83385494Y-102005000D01*
X83894540Y-101794147D01*
X84284147Y-101404540D01*
X84495000Y-100895494D01*
X84495000Y-100344506D01*
X88225000Y-100344506D01*
X88225000Y-100895494D01*
X88435853Y-101404540D01*
X88825460Y-101794147D01*
X89334506Y-102005000D01*
X89885494Y-102005000D01*
X90394540Y-101794147D01*
X90784147Y-101404540D01*
X90995000Y-100895494D01*
X90995000Y-100344506D01*
X90784147Y-99835460D01*
X90394540Y-99445853D01*
X89885494Y-99235000D01*
X89334506Y-99235000D01*
X88825460Y-99445853D01*
X88435853Y-99835460D01*
X88225000Y-100344506D01*
X84495000Y-100344506D01*
X84284147Y-99835460D01*
X83894540Y-99445853D01*
X83385494Y-99235000D01*
X82834506Y-99235000D01*
X82325460Y-99445853D01*
X81935853Y-99835460D01*
X81725000Y-100344506D01*
X64595994Y-100344506D01*
X64172815Y-98518790D01*
X63783731Y-96254452D01*
X100265000Y-96254452D01*
X100265000Y-96785548D01*
X100468242Y-97276217D01*
X100843783Y-97651758D01*
X101334452Y-97855000D01*
X101865548Y-97855000D01*
X102356217Y-97651758D01*
X102731758Y-97276217D01*
X102935000Y-96785548D01*
X102935000Y-96254452D01*
X102731758Y-95763783D01*
X102356217Y-95388242D01*
X101865548Y-95185000D01*
X101334452Y-95185000D01*
X100843783Y-95388242D01*
X100468242Y-95763783D01*
X100265000Y-96254452D01*
X63783731Y-96254452D01*
X63710753Y-95829747D01*
X63404250Y-93118565D01*
X63367152Y-92444452D01*
X96455000Y-92444452D01*
X96455000Y-92975548D01*
X96658242Y-93466217D01*
X97033783Y-93841758D01*
X97524452Y-94045000D01*
X98055548Y-94045000D01*
X98546217Y-93841758D01*
X98921758Y-93466217D01*
X99125000Y-92975548D01*
X99125000Y-92444452D01*
X98921758Y-91953783D01*
X98546217Y-91578242D01*
X98055548Y-91375000D01*
X97524452Y-91375000D01*
X97033783Y-91578242D01*
X96658242Y-91953783D01*
X96455000Y-92444452D01*
X63367152Y-92444452D01*
X63254321Y-90394235D01*
X63258928Y-88634452D01*
X63435000Y-88634452D01*
X63435000Y-89165548D01*
X63638242Y-89656217D01*
X64013783Y-90031758D01*
X64504452Y-90235000D01*
X65035548Y-90235000D01*
X65526217Y-90031758D01*
X65775000Y-89782975D01*
X65775000Y-89926310D01*
X65871673Y-90159699D01*
X66050302Y-90338327D01*
X66283691Y-90435000D01*
X67024250Y-90435000D01*
X67183000Y-90276250D01*
X67183000Y-89027000D01*
X67163000Y-89027000D01*
X67163000Y-88773000D01*
X67183000Y-88773000D01*
X67183000Y-87523750D01*
X67437000Y-87523750D01*
X67437000Y-88773000D01*
X67457000Y-88773000D01*
X67457000Y-89027000D01*
X67437000Y-89027000D01*
X67437000Y-90276250D01*
X67595750Y-90435000D01*
X68336309Y-90435000D01*
X68569698Y-90338327D01*
X68748327Y-90159699D01*
X68804139Y-90024956D01*
X68980493Y-90201310D01*
X69544670Y-90435000D01*
X70155330Y-90435000D01*
X70719507Y-90201310D01*
X71151310Y-89769507D01*
X71233237Y-89571718D01*
X71427519Y-89862481D01*
X71869109Y-90157542D01*
X72258515Y-90235000D01*
X72521485Y-90235000D01*
X72910891Y-90157542D01*
X73352481Y-89862481D01*
X73647542Y-89420891D01*
X73751154Y-88900000D01*
X73647542Y-88379109D01*
X73352481Y-87937519D01*
X72910891Y-87642458D01*
X72521485Y-87565000D01*
X72258515Y-87565000D01*
X71869109Y-87642458D01*
X71427519Y-87937519D01*
X71233237Y-88228282D01*
X71151310Y-88030493D01*
X70719507Y-87598690D01*
X70155330Y-87365000D01*
X69544670Y-87365000D01*
X68980493Y-87598690D01*
X68804139Y-87775044D01*
X68748327Y-87640301D01*
X68569698Y-87461673D01*
X68336309Y-87365000D01*
X67595750Y-87365000D01*
X67437000Y-87523750D01*
X67183000Y-87523750D01*
X67024250Y-87365000D01*
X66283691Y-87365000D01*
X66050302Y-87461673D01*
X65871673Y-87640301D01*
X65775000Y-87873690D01*
X65775000Y-88017025D01*
X65526217Y-87768242D01*
X65035548Y-87565000D01*
X64504452Y-87565000D01*
X64013783Y-87768242D01*
X63638242Y-88143783D01*
X63435000Y-88634452D01*
X63258928Y-88634452D01*
X63261464Y-87665792D01*
X63425655Y-84942285D01*
X63674979Y-82835750D01*
X100215000Y-82835750D01*
X100215000Y-83201309D01*
X100311673Y-83434698D01*
X100490301Y-83613327D01*
X100723690Y-83710000D01*
X101314250Y-83710000D01*
X101473000Y-83551250D01*
X101473000Y-82677000D01*
X101727000Y-82677000D01*
X101727000Y-83551250D01*
X101885750Y-83710000D01*
X102476310Y-83710000D01*
X102709699Y-83613327D01*
X102888327Y-83434698D01*
X102985000Y-83201309D01*
X102985000Y-82835750D01*
X102826250Y-82677000D01*
X101727000Y-82677000D01*
X101473000Y-82677000D01*
X100373750Y-82677000D01*
X100215000Y-82835750D01*
X63674979Y-82835750D01*
X63746350Y-82232745D01*
X64140280Y-80010000D01*
X84998846Y-80010000D01*
X85102458Y-80530891D01*
X85397519Y-80972481D01*
X85839109Y-81267542D01*
X86228515Y-81345000D01*
X86491485Y-81345000D01*
X86880891Y-81267542D01*
X87322481Y-80972481D01*
X87617542Y-80530891D01*
X87721154Y-80010000D01*
X87668334Y-79744452D01*
X92645000Y-79744452D01*
X92645000Y-80275548D01*
X92848242Y-80766217D01*
X93223783Y-81141758D01*
X93714452Y-81345000D01*
X94245548Y-81345000D01*
X94736217Y-81141758D01*
X95111758Y-80766217D01*
X95315000Y-80275548D01*
X95315000Y-79747500D01*
X100202560Y-79747500D01*
X100202560Y-80272500D01*
X100271825Y-80620719D01*
X100288049Y-80645000D01*
X100271825Y-80669281D01*
X100202560Y-81017500D01*
X100202560Y-81542500D01*
X100254461Y-81803424D01*
X100215000Y-81898691D01*
X100215000Y-82264250D01*
X100373750Y-82423000D01*
X100964495Y-82423000D01*
X101112500Y-82452440D01*
X102087500Y-82452440D01*
X102235505Y-82423000D01*
X102826250Y-82423000D01*
X102985000Y-82264250D01*
X102985000Y-81898691D01*
X102945539Y-81803424D01*
X102997440Y-81542500D01*
X102997440Y-81017500D01*
X102928175Y-80669281D01*
X102911951Y-80645000D01*
X102928175Y-80620719D01*
X102997440Y-80272500D01*
X102997440Y-79747500D01*
X102928175Y-79399281D01*
X102730925Y-79104075D01*
X102435719Y-78906825D01*
X102087500Y-78837560D01*
X101112500Y-78837560D01*
X100764281Y-78906825D01*
X100469075Y-79104075D01*
X100271825Y-79399281D01*
X100202560Y-79747500D01*
X95315000Y-79747500D01*
X95315000Y-79744452D01*
X95111758Y-79253783D01*
X94736217Y-78878242D01*
X94245548Y-78675000D01*
X93714452Y-78675000D01*
X93223783Y-78878242D01*
X92848242Y-79253783D01*
X92645000Y-79744452D01*
X87668334Y-79744452D01*
X87617542Y-79489109D01*
X87322481Y-79047519D01*
X86880891Y-78752458D01*
X86491485Y-78675000D01*
X86228515Y-78675000D01*
X85839109Y-78752458D01*
X85397519Y-79047519D01*
X85102458Y-79489109D01*
X84998846Y-80010000D01*
X64140280Y-80010000D01*
X64222486Y-79546158D01*
X64852482Y-76891434D01*
X65138680Y-75934452D01*
X85025000Y-75934452D01*
X85025000Y-76465548D01*
X85228242Y-76956217D01*
X85603783Y-77331758D01*
X86094452Y-77535000D01*
X86625548Y-77535000D01*
X87116217Y-77331758D01*
X87491758Y-76956217D01*
X87666924Y-76533329D01*
X92687284Y-76533329D01*
X92830203Y-76878396D01*
X93177337Y-77266764D01*
X93646669Y-77492727D01*
X93853000Y-77370206D01*
X93853000Y-76327000D01*
X94107000Y-76327000D01*
X94107000Y-77370206D01*
X94313331Y-77492727D01*
X94782663Y-77266764D01*
X95129797Y-76878396D01*
X95272716Y-76533329D01*
X95149374Y-76327000D01*
X94107000Y-76327000D01*
X93853000Y-76327000D01*
X92810626Y-76327000D01*
X92687284Y-76533329D01*
X87666924Y-76533329D01*
X87695000Y-76465548D01*
X87695000Y-75934452D01*
X87666925Y-75866671D01*
X92687284Y-75866671D01*
X92810626Y-76073000D01*
X93853000Y-76073000D01*
X93853000Y-75029794D01*
X94107000Y-75029794D01*
X94107000Y-76073000D01*
X95149374Y-76073000D01*
X95232197Y-75934452D01*
X96455000Y-75934452D01*
X96455000Y-76465548D01*
X96658242Y-76956217D01*
X97033783Y-77331758D01*
X97524452Y-77535000D01*
X98055548Y-77535000D01*
X98546217Y-77331758D01*
X98921758Y-76956217D01*
X99125000Y-76465548D01*
X99125000Y-76200000D01*
X104048846Y-76200000D01*
X104152458Y-76720891D01*
X104447519Y-77162481D01*
X104889109Y-77457542D01*
X105278515Y-77535000D01*
X105541485Y-77535000D01*
X105930891Y-77457542D01*
X106372481Y-77162481D01*
X106667542Y-76720891D01*
X106771154Y-76200000D01*
X119288846Y-76200000D01*
X119392458Y-76720891D01*
X119687519Y-77162481D01*
X120129109Y-77457542D01*
X120518515Y-77535000D01*
X120781485Y-77535000D01*
X121170891Y-77457542D01*
X121612481Y-77162481D01*
X121907542Y-76720891D01*
X122011154Y-76200000D01*
X121958334Y-75934452D01*
X126935000Y-75934452D01*
X126935000Y-76465548D01*
X127138242Y-76956217D01*
X127513783Y-77331758D01*
X128004452Y-77535000D01*
X128535548Y-77535000D01*
X128692471Y-77470000D01*
X138338846Y-77470000D01*
X138442458Y-77990891D01*
X138737519Y-78432481D01*
X139179109Y-78727542D01*
X139568515Y-78805000D01*
X139831485Y-78805000D01*
X140220891Y-78727542D01*
X140662481Y-78432481D01*
X140680659Y-78405275D01*
X146564331Y-78405275D01*
X146626169Y-78641042D01*
X147127122Y-78817419D01*
X147657440Y-78788664D01*
X148013831Y-78641042D01*
X148075669Y-78405275D01*
X147320000Y-77649605D01*
X146564331Y-78405275D01*
X140680659Y-78405275D01*
X140957542Y-77990891D01*
X141061154Y-77470000D01*
X141022789Y-77277122D01*
X145972581Y-77277122D01*
X146001336Y-77807440D01*
X146148958Y-78163831D01*
X146384725Y-78225669D01*
X147140395Y-77470000D01*
X147499605Y-77470000D01*
X148255275Y-78225669D01*
X148491042Y-78163831D01*
X148667419Y-77662878D01*
X148638664Y-77132560D01*
X148491042Y-76776169D01*
X148255275Y-76714331D01*
X147499605Y-77470000D01*
X147140395Y-77470000D01*
X146384725Y-76714331D01*
X146148958Y-76776169D01*
X145972581Y-77277122D01*
X141022789Y-77277122D01*
X140957542Y-76949109D01*
X140680660Y-76534725D01*
X146564331Y-76534725D01*
X147320000Y-77290395D01*
X148075669Y-76534725D01*
X148013831Y-76298958D01*
X147512878Y-76122581D01*
X146982560Y-76151336D01*
X146626169Y-76298958D01*
X146564331Y-76534725D01*
X140680660Y-76534725D01*
X140662481Y-76507519D01*
X140220891Y-76212458D01*
X139831485Y-76135000D01*
X139568515Y-76135000D01*
X139179109Y-76212458D01*
X138737519Y-76507519D01*
X138442458Y-76949109D01*
X138338846Y-77470000D01*
X128692471Y-77470000D01*
X129026217Y-77331758D01*
X129401758Y-76956217D01*
X129605000Y-76465548D01*
X129605000Y-75934452D01*
X129401758Y-75443783D01*
X129026217Y-75068242D01*
X128535548Y-74865000D01*
X128004452Y-74865000D01*
X127513783Y-75068242D01*
X127138242Y-75443783D01*
X126935000Y-75934452D01*
X121958334Y-75934452D01*
X121907542Y-75679109D01*
X121612481Y-75237519D01*
X121170891Y-74942458D01*
X120781485Y-74865000D01*
X120518515Y-74865000D01*
X120129109Y-74942458D01*
X119687519Y-75237519D01*
X119392458Y-75679109D01*
X119288846Y-76200000D01*
X106771154Y-76200000D01*
X106667542Y-75679109D01*
X106372481Y-75237519D01*
X105930891Y-74942458D01*
X105541485Y-74865000D01*
X105278515Y-74865000D01*
X104889109Y-74942458D01*
X104447519Y-75237519D01*
X104152458Y-75679109D01*
X104048846Y-76200000D01*
X99125000Y-76200000D01*
X99125000Y-75934452D01*
X98921758Y-75443783D01*
X98546217Y-75068242D01*
X98055548Y-74865000D01*
X97524452Y-74865000D01*
X97033783Y-75068242D01*
X96658242Y-75443783D01*
X96455000Y-75934452D01*
X95232197Y-75934452D01*
X95272716Y-75866671D01*
X95129797Y-75521604D01*
X94782663Y-75133236D01*
X94313331Y-74907273D01*
X94107000Y-75029794D01*
X93853000Y-75029794D01*
X93646669Y-74907273D01*
X93177337Y-75133236D01*
X92830203Y-75521604D01*
X92687284Y-75866671D01*
X87666925Y-75866671D01*
X87491758Y-75443783D01*
X87116217Y-75068242D01*
X86625548Y-74865000D01*
X86094452Y-74865000D01*
X85603783Y-75068242D01*
X85228242Y-75443783D01*
X85025000Y-75934452D01*
X65138680Y-75934452D01*
X65634251Y-74277378D01*
X65858348Y-73660000D01*
X106588846Y-73660000D01*
X106692458Y-74180891D01*
X106987519Y-74622481D01*
X107429109Y-74917542D01*
X107818515Y-74995000D01*
X108081485Y-74995000D01*
X108470891Y-74917542D01*
X108912481Y-74622481D01*
X109207542Y-74180891D01*
X109311154Y-73660000D01*
X109258334Y-73394452D01*
X114235000Y-73394452D01*
X114235000Y-73925548D01*
X114438242Y-74416217D01*
X114813783Y-74791758D01*
X115304452Y-74995000D01*
X115835548Y-74995000D01*
X116326217Y-74791758D01*
X116701758Y-74416217D01*
X116896632Y-73945750D01*
X134505000Y-73945750D01*
X134505000Y-74311309D01*
X134601673Y-74544698D01*
X134780301Y-74723327D01*
X135013690Y-74820000D01*
X135604250Y-74820000D01*
X135763000Y-74661250D01*
X135763000Y-73787000D01*
X136017000Y-73787000D01*
X136017000Y-74661250D01*
X136175750Y-74820000D01*
X136766310Y-74820000D01*
X136999699Y-74723327D01*
X137178327Y-74544698D01*
X137275000Y-74311309D01*
X137275000Y-73945750D01*
X137116250Y-73787000D01*
X136017000Y-73787000D01*
X135763000Y-73787000D01*
X134663750Y-73787000D01*
X134505000Y-73945750D01*
X116896632Y-73945750D01*
X116905000Y-73925548D01*
X116905000Y-73394452D01*
X116701758Y-72903783D01*
X116326217Y-72528242D01*
X115992472Y-72390000D01*
X119288846Y-72390000D01*
X119392458Y-72910891D01*
X119687519Y-73352481D01*
X120129109Y-73647542D01*
X120518515Y-73725000D01*
X120781485Y-73725000D01*
X121170891Y-73647542D01*
X121612481Y-73352481D01*
X121907542Y-72910891D01*
X122011154Y-72390000D01*
X121958334Y-72124452D01*
X126935000Y-72124452D01*
X126935000Y-72655548D01*
X127138242Y-73146217D01*
X127513783Y-73521758D01*
X128004452Y-73725000D01*
X128535548Y-73725000D01*
X129026217Y-73521758D01*
X129401758Y-73146217D01*
X129605000Y-72655548D01*
X129605000Y-72124452D01*
X129401758Y-71633783D01*
X129026217Y-71258242D01*
X128535548Y-71055000D01*
X128004452Y-71055000D01*
X127513783Y-71258242D01*
X127138242Y-71633783D01*
X126935000Y-72124452D01*
X121958334Y-72124452D01*
X121907542Y-71869109D01*
X121612481Y-71427519D01*
X121170891Y-71132458D01*
X120781485Y-71055000D01*
X120518515Y-71055000D01*
X120129109Y-71132458D01*
X119687519Y-71427519D01*
X119392458Y-71869109D01*
X119288846Y-72390000D01*
X115992472Y-72390000D01*
X115835548Y-72325000D01*
X115304452Y-72325000D01*
X114813783Y-72528242D01*
X114438242Y-72903783D01*
X114235000Y-73394452D01*
X109258334Y-73394452D01*
X109207542Y-73139109D01*
X108912481Y-72697519D01*
X108470891Y-72402458D01*
X108081485Y-72325000D01*
X107818515Y-72325000D01*
X107429109Y-72402458D01*
X106987519Y-72697519D01*
X106692458Y-73139109D01*
X106588846Y-73660000D01*
X65858348Y-73660000D01*
X66565199Y-71712658D01*
X67365460Y-69850000D01*
X104048846Y-69850000D01*
X104152458Y-70370891D01*
X104447519Y-70812481D01*
X104889109Y-71107542D01*
X105278515Y-71185000D01*
X105541485Y-71185000D01*
X105930891Y-71107542D01*
X106372481Y-70812481D01*
X106667542Y-70370891D01*
X106771154Y-69850000D01*
X106718334Y-69584452D01*
X111695000Y-69584452D01*
X111695000Y-70115548D01*
X111898242Y-70606217D01*
X112273783Y-70981758D01*
X112764452Y-71185000D01*
X113295548Y-71185000D01*
X113786217Y-70981758D01*
X113910475Y-70857500D01*
X134492560Y-70857500D01*
X134492560Y-71382500D01*
X134561825Y-71730719D01*
X134578049Y-71755000D01*
X134561825Y-71779281D01*
X134492560Y-72127500D01*
X134492560Y-72652500D01*
X134544461Y-72913424D01*
X134505000Y-73008691D01*
X134505000Y-73374250D01*
X134663750Y-73533000D01*
X135254495Y-73533000D01*
X135402500Y-73562440D01*
X136377500Y-73562440D01*
X136525505Y-73533000D01*
X137116250Y-73533000D01*
X137275000Y-73374250D01*
X137275000Y-73008691D01*
X137235539Y-72913424D01*
X137287440Y-72652500D01*
X137287440Y-72127500D01*
X137218175Y-71779281D01*
X137201951Y-71755000D01*
X137218175Y-71730719D01*
X137287440Y-71382500D01*
X137287440Y-70857500D01*
X137218175Y-70509281D01*
X137020925Y-70214075D01*
X136725719Y-70016825D01*
X136377500Y-69947560D01*
X135402500Y-69947560D01*
X135054281Y-70016825D01*
X134759075Y-70214075D01*
X134561825Y-70509281D01*
X134492560Y-70857500D01*
X113910475Y-70857500D01*
X114161758Y-70606217D01*
X114365000Y-70115548D01*
X114365000Y-69584452D01*
X114161758Y-69093783D01*
X113786217Y-68718242D01*
X113295548Y-68515000D01*
X112764452Y-68515000D01*
X112273783Y-68718242D01*
X111898242Y-69093783D01*
X111695000Y-69584452D01*
X106718334Y-69584452D01*
X106667542Y-69329109D01*
X106372481Y-68887519D01*
X105930891Y-68592458D01*
X105541485Y-68515000D01*
X105278515Y-68515000D01*
X104889109Y-68592458D01*
X104447519Y-68887519D01*
X104152458Y-69329109D01*
X104048846Y-69850000D01*
X67365460Y-69850000D01*
X67642239Y-69205780D01*
X68589506Y-67310000D01*
X84998846Y-67310000D01*
X85102458Y-67830891D01*
X85397519Y-68272481D01*
X85839109Y-68567542D01*
X86228515Y-68645000D01*
X86491485Y-68645000D01*
X86880891Y-68567542D01*
X87322481Y-68272481D01*
X87617542Y-67830891D01*
X87721154Y-67310000D01*
X87668334Y-67044452D01*
X92645000Y-67044452D01*
X92645000Y-67575548D01*
X92848242Y-68066217D01*
X93223783Y-68441758D01*
X93714452Y-68645000D01*
X94245548Y-68645000D01*
X94736217Y-68441758D01*
X95111758Y-68066217D01*
X95315000Y-67575548D01*
X95315000Y-67044452D01*
X95111758Y-66553783D01*
X94883725Y-66325750D01*
X100215000Y-66325750D01*
X100215000Y-66691309D01*
X100311673Y-66924698D01*
X100490301Y-67103327D01*
X100723690Y-67200000D01*
X101314250Y-67200000D01*
X101473000Y-67041250D01*
X101473000Y-66167000D01*
X101727000Y-66167000D01*
X101727000Y-67041250D01*
X101885750Y-67200000D01*
X102476310Y-67200000D01*
X102709699Y-67103327D01*
X102888327Y-66924698D01*
X102985000Y-66691309D01*
X102985000Y-66325750D01*
X116725000Y-66325750D01*
X116725000Y-66691309D01*
X116821673Y-66924698D01*
X117000301Y-67103327D01*
X117233690Y-67200000D01*
X117824250Y-67200000D01*
X117983000Y-67041250D01*
X117983000Y-66167000D01*
X118237000Y-66167000D01*
X118237000Y-67041250D01*
X118395750Y-67200000D01*
X118986310Y-67200000D01*
X119219699Y-67103327D01*
X119278573Y-67044452D01*
X128205000Y-67044452D01*
X128205000Y-67575548D01*
X128408242Y-68066217D01*
X128783783Y-68441758D01*
X129274452Y-68645000D01*
X129805548Y-68645000D01*
X130296217Y-68441758D01*
X130671758Y-68066217D01*
X130875000Y-67575548D01*
X130875000Y-67310000D01*
X135798846Y-67310000D01*
X135902458Y-67830891D01*
X136197519Y-68272481D01*
X136639109Y-68567542D01*
X137028515Y-68645000D01*
X137291485Y-68645000D01*
X137680891Y-68567542D01*
X138122481Y-68272481D01*
X138417542Y-67830891D01*
X138521154Y-67310000D01*
X138417542Y-66789109D01*
X138122481Y-66347519D01*
X137680891Y-66052458D01*
X137291485Y-65975000D01*
X137028515Y-65975000D01*
X136639109Y-66052458D01*
X136197519Y-66347519D01*
X135902458Y-66789109D01*
X135798846Y-67310000D01*
X130875000Y-67310000D01*
X130875000Y-67044452D01*
X130671758Y-66553783D01*
X130296217Y-66178242D01*
X129805548Y-65975000D01*
X129274452Y-65975000D01*
X128783783Y-66178242D01*
X128408242Y-66553783D01*
X128205000Y-67044452D01*
X119278573Y-67044452D01*
X119398327Y-66924698D01*
X119495000Y-66691309D01*
X119495000Y-66325750D01*
X119336250Y-66167000D01*
X118237000Y-66167000D01*
X117983000Y-66167000D01*
X116883750Y-66167000D01*
X116725000Y-66325750D01*
X102985000Y-66325750D01*
X102826250Y-66167000D01*
X101727000Y-66167000D01*
X101473000Y-66167000D01*
X100373750Y-66167000D01*
X100215000Y-66325750D01*
X94883725Y-66325750D01*
X94736217Y-66178242D01*
X94245548Y-65975000D01*
X93714452Y-65975000D01*
X93223783Y-66178242D01*
X92848242Y-66553783D01*
X92645000Y-67044452D01*
X87668334Y-67044452D01*
X87617542Y-66789109D01*
X87322481Y-66347519D01*
X86880891Y-66052458D01*
X86491485Y-65975000D01*
X86228515Y-65975000D01*
X85839109Y-66052458D01*
X85397519Y-66347519D01*
X85102458Y-66789109D01*
X84998846Y-67310000D01*
X68589506Y-67310000D01*
X68861799Y-66765057D01*
X70219834Y-64398585D01*
X70980170Y-63234452D01*
X85025000Y-63234452D01*
X85025000Y-63765548D01*
X85228242Y-64256217D01*
X85603783Y-64631758D01*
X86094452Y-64835000D01*
X86625548Y-64835000D01*
X87116217Y-64631758D01*
X87491758Y-64256217D01*
X87666924Y-63833329D01*
X92687284Y-63833329D01*
X92830203Y-64178396D01*
X93177337Y-64566764D01*
X93646669Y-64792727D01*
X93853000Y-64670206D01*
X93853000Y-63627000D01*
X94107000Y-63627000D01*
X94107000Y-64670206D01*
X94313331Y-64792727D01*
X94782663Y-64566764D01*
X95129797Y-64178396D01*
X95272716Y-63833329D01*
X95149374Y-63627000D01*
X94107000Y-63627000D01*
X93853000Y-63627000D01*
X92810626Y-63627000D01*
X92687284Y-63833329D01*
X87666924Y-63833329D01*
X87695000Y-63765548D01*
X87695000Y-63234452D01*
X87666925Y-63166671D01*
X92687284Y-63166671D01*
X92810626Y-63373000D01*
X93853000Y-63373000D01*
X93853000Y-62329794D01*
X94107000Y-62329794D01*
X94107000Y-63373000D01*
X95149374Y-63373000D01*
X95230374Y-63237500D01*
X100202560Y-63237500D01*
X100202560Y-63762500D01*
X100271825Y-64110719D01*
X100288049Y-64135000D01*
X100271825Y-64159281D01*
X100202560Y-64507500D01*
X100202560Y-65032500D01*
X100254461Y-65293424D01*
X100215000Y-65388691D01*
X100215000Y-65754250D01*
X100373750Y-65913000D01*
X100964495Y-65913000D01*
X101112500Y-65942440D01*
X102087500Y-65942440D01*
X102235505Y-65913000D01*
X102826250Y-65913000D01*
X102985000Y-65754250D01*
X102985000Y-65388691D01*
X102945539Y-65293424D01*
X102997440Y-65032500D01*
X102997440Y-64507500D01*
X102928175Y-64159281D01*
X102911951Y-64135000D01*
X102928175Y-64110719D01*
X102997440Y-63762500D01*
X102997440Y-63237500D01*
X116712560Y-63237500D01*
X116712560Y-63762500D01*
X116781825Y-64110719D01*
X116798049Y-64135000D01*
X116781825Y-64159281D01*
X116712560Y-64507500D01*
X116712560Y-65032500D01*
X116764461Y-65293424D01*
X116725000Y-65388691D01*
X116725000Y-65754250D01*
X116883750Y-65913000D01*
X117474495Y-65913000D01*
X117622500Y-65942440D01*
X118597500Y-65942440D01*
X118745505Y-65913000D01*
X119336250Y-65913000D01*
X119495000Y-65754250D01*
X119495000Y-65388691D01*
X119455539Y-65293424D01*
X119507440Y-65032500D01*
X119507440Y-64507500D01*
X119438175Y-64159281D01*
X119421951Y-64135000D01*
X119438175Y-64110719D01*
X119507440Y-63762500D01*
X119507440Y-63237500D01*
X119438175Y-62889281D01*
X119240925Y-62594075D01*
X118945719Y-62396825D01*
X118597500Y-62327560D01*
X117622500Y-62327560D01*
X117274281Y-62396825D01*
X116979075Y-62594075D01*
X116781825Y-62889281D01*
X116712560Y-63237500D01*
X102997440Y-63237500D01*
X102928175Y-62889281D01*
X102730925Y-62594075D01*
X102435719Y-62396825D01*
X102087500Y-62327560D01*
X101112500Y-62327560D01*
X100764281Y-62396825D01*
X100469075Y-62594075D01*
X100271825Y-62889281D01*
X100202560Y-63237500D01*
X95230374Y-63237500D01*
X95272716Y-63166671D01*
X95129797Y-62821604D01*
X94782663Y-62433236D01*
X94313331Y-62207273D01*
X94107000Y-62329794D01*
X93853000Y-62329794D01*
X93646669Y-62207273D01*
X93177337Y-62433236D01*
X92830203Y-62821604D01*
X92687284Y-63166671D01*
X87666925Y-63166671D01*
X87491758Y-62743783D01*
X87116217Y-62368242D01*
X86625548Y-62165000D01*
X86094452Y-62165000D01*
X85603783Y-62368242D01*
X85228242Y-62743783D01*
X85025000Y-63234452D01*
X70980170Y-63234452D01*
X71711841Y-62114210D01*
X73332872Y-59919510D01*
X73744607Y-59424452D01*
X76135000Y-59424452D01*
X76135000Y-59955548D01*
X76338242Y-60446217D01*
X76713783Y-60821758D01*
X77204452Y-61025000D01*
X77735548Y-61025000D01*
X78226217Y-60821758D01*
X78475000Y-60572975D01*
X78475000Y-60716310D01*
X78571673Y-60949699D01*
X78750302Y-61128327D01*
X78983691Y-61225000D01*
X79724250Y-61225000D01*
X79883000Y-61066250D01*
X79883000Y-59817000D01*
X79863000Y-59817000D01*
X79863000Y-59563000D01*
X79883000Y-59563000D01*
X79883000Y-58313750D01*
X80137000Y-58313750D01*
X80137000Y-59563000D01*
X80157000Y-59563000D01*
X80157000Y-59817000D01*
X80137000Y-59817000D01*
X80137000Y-61066250D01*
X80295750Y-61225000D01*
X81036309Y-61225000D01*
X81269698Y-61128327D01*
X81448327Y-60949699D01*
X81504139Y-60814956D01*
X81680493Y-60991310D01*
X82244670Y-61225000D01*
X82855330Y-61225000D01*
X83419507Y-60991310D01*
X83851310Y-60559507D01*
X83933237Y-60361718D01*
X84127519Y-60652481D01*
X84569109Y-60947542D01*
X84958515Y-61025000D01*
X85221485Y-61025000D01*
X85610891Y-60947542D01*
X86052481Y-60652481D01*
X86347542Y-60210891D01*
X86451154Y-59690000D01*
X86398334Y-59424452D01*
X134555000Y-59424452D01*
X134555000Y-59955548D01*
X134758242Y-60446217D01*
X135133783Y-60821758D01*
X135624452Y-61025000D01*
X136155548Y-61025000D01*
X136646217Y-60821758D01*
X136895000Y-60572975D01*
X136895000Y-60716310D01*
X136991673Y-60949699D01*
X137170302Y-61128327D01*
X137403691Y-61225000D01*
X138144250Y-61225000D01*
X138303000Y-61066250D01*
X138303000Y-59817000D01*
X138283000Y-59817000D01*
X138283000Y-59563000D01*
X138303000Y-59563000D01*
X138303000Y-58313750D01*
X138557000Y-58313750D01*
X138557000Y-59563000D01*
X138577000Y-59563000D01*
X138577000Y-59817000D01*
X138557000Y-59817000D01*
X138557000Y-61066250D01*
X138715750Y-61225000D01*
X139456309Y-61225000D01*
X139689698Y-61128327D01*
X139868327Y-60949699D01*
X139924139Y-60814956D01*
X140100493Y-60991310D01*
X140664670Y-61225000D01*
X141275330Y-61225000D01*
X141839507Y-60991310D01*
X142271310Y-60559507D01*
X142353237Y-60361718D01*
X142547519Y-60652481D01*
X142989109Y-60947542D01*
X143378515Y-61025000D01*
X143641485Y-61025000D01*
X144030891Y-60947542D01*
X144472481Y-60652481D01*
X144767542Y-60210891D01*
X144871154Y-59690000D01*
X144767542Y-59169109D01*
X144472481Y-58727519D01*
X144030891Y-58432458D01*
X143641485Y-58355000D01*
X143378515Y-58355000D01*
X142989109Y-58432458D01*
X142547519Y-58727519D01*
X142353237Y-59018282D01*
X142271310Y-58820493D01*
X141839507Y-58388690D01*
X141275330Y-58155000D01*
X140664670Y-58155000D01*
X140100493Y-58388690D01*
X139924139Y-58565044D01*
X139868327Y-58430301D01*
X139689698Y-58251673D01*
X139456309Y-58155000D01*
X138715750Y-58155000D01*
X138557000Y-58313750D01*
X138303000Y-58313750D01*
X138144250Y-58155000D01*
X137403691Y-58155000D01*
X137170302Y-58251673D01*
X136991673Y-58430301D01*
X136895000Y-58663690D01*
X136895000Y-58807025D01*
X136646217Y-58558242D01*
X136155548Y-58355000D01*
X135624452Y-58355000D01*
X135133783Y-58558242D01*
X134758242Y-58933783D01*
X134555000Y-59424452D01*
X86398334Y-59424452D01*
X86347542Y-59169109D01*
X86052481Y-58727519D01*
X85610891Y-58432458D01*
X85221485Y-58355000D01*
X84958515Y-58355000D01*
X84569109Y-58432458D01*
X84127519Y-58727519D01*
X83933237Y-59018282D01*
X83851310Y-58820493D01*
X83419507Y-58388690D01*
X82855330Y-58155000D01*
X82244670Y-58155000D01*
X81680493Y-58388690D01*
X81504139Y-58565044D01*
X81448327Y-58430301D01*
X81269698Y-58251673D01*
X81036309Y-58155000D01*
X80295750Y-58155000D01*
X80137000Y-58313750D01*
X79883000Y-58313750D01*
X79724250Y-58155000D01*
X78983691Y-58155000D01*
X78750302Y-58251673D01*
X78571673Y-58430301D01*
X78475000Y-58663690D01*
X78475000Y-58807025D01*
X78226217Y-58558242D01*
X77735548Y-58355000D01*
X77204452Y-58355000D01*
X76713783Y-58558242D01*
X76338242Y-58933783D01*
X76135000Y-59424452D01*
X73744607Y-59424452D01*
X75077551Y-57821761D01*
X75953136Y-56884452D01*
X97725000Y-56884452D01*
X97725000Y-57415548D01*
X97928242Y-57906217D01*
X98303783Y-58281758D01*
X98794452Y-58485000D01*
X99325548Y-58485000D01*
X99816217Y-58281758D01*
X100191758Y-57906217D01*
X100395000Y-57415548D01*
X100395000Y-57150000D01*
X105318846Y-57150000D01*
X105422458Y-57670891D01*
X105717519Y-58112481D01*
X106159109Y-58407542D01*
X106548515Y-58485000D01*
X106811485Y-58485000D01*
X107200891Y-58407542D01*
X107642481Y-58112481D01*
X107937542Y-57670891D01*
X108041154Y-57150000D01*
X107988334Y-56884452D01*
X111695000Y-56884452D01*
X111695000Y-57415548D01*
X111898242Y-57906217D01*
X112273783Y-58281758D01*
X112764452Y-58485000D01*
X113295548Y-58485000D01*
X113786217Y-58281758D01*
X114161758Y-57906217D01*
X114365000Y-57415548D01*
X114365000Y-57150000D01*
X119288846Y-57150000D01*
X119392458Y-57670891D01*
X119687519Y-58112481D01*
X120129109Y-58407542D01*
X120518515Y-58485000D01*
X120781485Y-58485000D01*
X121170891Y-58407542D01*
X121612481Y-58112481D01*
X121907542Y-57670891D01*
X122011154Y-57150000D01*
X121907542Y-56629109D01*
X121612481Y-56187519D01*
X121170891Y-55892458D01*
X120781485Y-55815000D01*
X120518515Y-55815000D01*
X120129109Y-55892458D01*
X119687519Y-56187519D01*
X119392458Y-56629109D01*
X119288846Y-57150000D01*
X114365000Y-57150000D01*
X114365000Y-56884452D01*
X114161758Y-56393783D01*
X113786217Y-56018242D01*
X113295548Y-55815000D01*
X112764452Y-55815000D01*
X112273783Y-56018242D01*
X111898242Y-56393783D01*
X111695000Y-56884452D01*
X107988334Y-56884452D01*
X107937542Y-56629109D01*
X107642481Y-56187519D01*
X107200891Y-55892458D01*
X106811485Y-55815000D01*
X106548515Y-55815000D01*
X106159109Y-55892458D01*
X105717519Y-56187519D01*
X105422458Y-56629109D01*
X105318846Y-57150000D01*
X100395000Y-57150000D01*
X100395000Y-56884452D01*
X100191758Y-56393783D01*
X99816217Y-56018242D01*
X99325548Y-55815000D01*
X98794452Y-55815000D01*
X98303783Y-56018242D01*
X97928242Y-56393783D01*
X97725000Y-56884452D01*
X75953136Y-56884452D01*
X76940092Y-55827922D01*
X78914318Y-53944604D01*
X80993681Y-52178054D01*
X83171287Y-50534129D01*
X85439912Y-49018282D01*
X87792034Y-47635540D01*
X89756217Y-46628253D01*
X98057320Y-46628253D01*
X98065751Y-47433292D01*
X98290362Y-48206409D01*
X98714605Y-48890643D01*
X99307225Y-49435584D01*
X100024559Y-49801085D01*
X100813759Y-49960215D01*
X101616680Y-49901252D01*
X102374168Y-49628540D01*
X103030413Y-49162171D01*
X103537069Y-48536503D01*
X103856806Y-47797634D01*
X103966068Y-47000000D01*
X103965417Y-46937883D01*
X103931614Y-46724452D01*
X105345000Y-46724452D01*
X105345000Y-47255548D01*
X105548242Y-47746217D01*
X105923783Y-48121758D01*
X106414452Y-48325000D01*
X106945548Y-48325000D01*
X107436217Y-48121758D01*
X107685000Y-47872975D01*
X107685000Y-48016310D01*
X107781673Y-48249699D01*
X107960302Y-48428327D01*
X108193691Y-48525000D01*
X108934250Y-48525000D01*
X109093000Y-48366250D01*
X109093000Y-47117000D01*
X109073000Y-47117000D01*
X109073000Y-46863000D01*
X109093000Y-46863000D01*
X109093000Y-45613750D01*
X109347000Y-45613750D01*
X109347000Y-46863000D01*
X109367000Y-46863000D01*
X109367000Y-47117000D01*
X109347000Y-47117000D01*
X109347000Y-48366250D01*
X109505750Y-48525000D01*
X110246309Y-48525000D01*
X110479698Y-48428327D01*
X110658327Y-48249699D01*
X110714139Y-48114956D01*
X110890493Y-48291310D01*
X111454670Y-48525000D01*
X112065330Y-48525000D01*
X112629507Y-48291310D01*
X113061310Y-47859507D01*
X113143237Y-47661718D01*
X113337519Y-47952481D01*
X113779109Y-48247542D01*
X114168515Y-48325000D01*
X114431485Y-48325000D01*
X114820891Y-48247542D01*
X115262481Y-47952481D01*
X115557542Y-47510891D01*
X115661154Y-46990000D01*
X115589198Y-46628253D01*
X118057320Y-46628253D01*
X118065751Y-47433292D01*
X118290362Y-48206409D01*
X118714605Y-48890643D01*
X119307225Y-49435584D01*
X120024559Y-49801085D01*
X120813759Y-49960215D01*
X121616680Y-49901252D01*
X122374168Y-49628540D01*
X123030413Y-49162171D01*
X123537069Y-48536503D01*
X123856806Y-47797634D01*
X123966068Y-47000000D01*
X123965417Y-46937883D01*
X123839475Y-46142712D01*
X123504334Y-45410701D01*
X122984687Y-44795782D01*
X122318818Y-44343258D01*
X121555786Y-44086469D01*
X120751806Y-44044334D01*
X119966112Y-44219958D01*
X119256589Y-44600401D01*
X118675512Y-45157633D01*
X118265691Y-45850602D01*
X118057320Y-46628253D01*
X115589198Y-46628253D01*
X115557542Y-46469109D01*
X115262481Y-46027519D01*
X114820891Y-45732458D01*
X114431485Y-45655000D01*
X114168515Y-45655000D01*
X113779109Y-45732458D01*
X113337519Y-46027519D01*
X113143237Y-46318282D01*
X113061310Y-46120493D01*
X112629507Y-45688690D01*
X112065330Y-45455000D01*
X111454670Y-45455000D01*
X110890493Y-45688690D01*
X110714139Y-45865044D01*
X110658327Y-45730301D01*
X110479698Y-45551673D01*
X110246309Y-45455000D01*
X109505750Y-45455000D01*
X109347000Y-45613750D01*
X109093000Y-45613750D01*
X108934250Y-45455000D01*
X108193691Y-45455000D01*
X107960302Y-45551673D01*
X107781673Y-45730301D01*
X107685000Y-45963690D01*
X107685000Y-46107025D01*
X107436217Y-45858242D01*
X106945548Y-45655000D01*
X106414452Y-45655000D01*
X105923783Y-45858242D01*
X105548242Y-46233783D01*
X105345000Y-46724452D01*
X103931614Y-46724452D01*
X103839475Y-46142712D01*
X103504334Y-45410701D01*
X102984687Y-44795782D01*
X102318818Y-44343258D01*
X101555786Y-44086469D01*
X100751806Y-44044334D01*
X99966112Y-44219958D01*
X99256589Y-44600401D01*
X98675512Y-45157633D01*
X98265691Y-45850602D01*
X98057320Y-46628253D01*
X89756217Y-46628253D01*
X90219851Y-46390489D01*
X92715313Y-45287256D01*
X95270144Y-44329502D01*
X97875871Y-43520403D01*
X100523851Y-42862641D01*
X103205305Y-42358398D01*
X105911338Y-42009347D01*
X108632977Y-41816644D01*
X111361196Y-41780930D01*
X114086946Y-41902322D01*
X114086946Y-41902322D01*
G37*
X114086946Y-41902322D02*
X116801189Y-42180418D01*
X119494923Y-42614296D01*
X122159215Y-43202516D01*
X124785228Y-43943129D01*
X127364255Y-44833677D01*
X129887741Y-45871207D01*
X132347318Y-47052280D01*
X134734830Y-48372977D01*
X137042358Y-49828918D01*
X139262250Y-51415277D01*
X141387144Y-53126790D01*
X143409993Y-54957784D01*
X145324088Y-56902184D01*
X147123081Y-58953543D01*
X148801008Y-61105058D01*
X150352302Y-63349593D01*
X151771819Y-65679706D01*
X153054851Y-68087668D01*
X154197145Y-70565493D01*
X155194910Y-73104965D01*
X156044839Y-75697661D01*
X156744112Y-78334984D01*
X157290411Y-81008186D01*
X157681924Y-83708403D01*
X157917352Y-86426679D01*
X157995915Y-89154000D01*
X157995266Y-89402074D01*
X157902424Y-92128947D01*
X157652766Y-94845953D01*
X157247120Y-97544083D01*
X156686832Y-100214388D01*
X155973759Y-102848013D01*
X155110267Y-105436223D01*
X154099218Y-107970436D01*
X152943967Y-110442247D01*
X151648344Y-112843457D01*
X150216646Y-115166105D01*
X148653621Y-117402488D01*
X146964453Y-119545188D01*
X145154743Y-121587099D01*
X143230493Y-123521451D01*
X141198085Y-125341827D01*
X139064259Y-127042191D01*
X136836091Y-128616905D01*
X134520971Y-130060744D01*
X132126577Y-131368922D01*
X129660850Y-132537100D01*
X127131965Y-133561404D01*
X124548312Y-134438436D01*
X121918456Y-135165289D01*
X119251121Y-135739551D01*
X116555153Y-136159318D01*
X113839491Y-136423199D01*
X111113142Y-136530317D01*
X108385147Y-136480318D01*
X105664555Y-136273368D01*
X102960386Y-135910153D01*
X100281610Y-135391877D01*
X97637109Y-134720260D01*
X95035655Y-133897528D01*
X92485874Y-132926410D01*
X89996223Y-131810127D01*
X87574957Y-130552380D01*
X87561632Y-130544452D01*
X105345000Y-130544452D01*
X105345000Y-131075548D01*
X105548242Y-131566217D01*
X105923783Y-131941758D01*
X106414452Y-132145000D01*
X106945548Y-132145000D01*
X107436217Y-131941758D01*
X107685000Y-131692975D01*
X107685000Y-131836310D01*
X107781673Y-132069699D01*
X107960302Y-132248327D01*
X108193691Y-132345000D01*
X108934250Y-132345000D01*
X109093000Y-132186250D01*
X109093000Y-130937000D01*
X109073000Y-130937000D01*
X109073000Y-130683000D01*
X109093000Y-130683000D01*
X109093000Y-129433750D01*
X109347000Y-129433750D01*
X109347000Y-130683000D01*
X109367000Y-130683000D01*
X109367000Y-130937000D01*
X109347000Y-130937000D01*
X109347000Y-132186250D01*
X109505750Y-132345000D01*
X110246309Y-132345000D01*
X110479698Y-132248327D01*
X110658327Y-132069699D01*
X110714139Y-131934956D01*
X110890493Y-132111310D01*
X111454670Y-132345000D01*
X112065330Y-132345000D01*
X112629507Y-132111310D01*
X113061310Y-131679507D01*
X113143237Y-131481718D01*
X113337519Y-131772481D01*
X113779109Y-132067542D01*
X114168515Y-132145000D01*
X114431485Y-132145000D01*
X114820891Y-132067542D01*
X115262481Y-131772481D01*
X115557542Y-131330891D01*
X115661154Y-130810000D01*
X115557542Y-130289109D01*
X115262481Y-129847519D01*
X114820891Y-129552458D01*
X114431485Y-129475000D01*
X114168515Y-129475000D01*
X113779109Y-129552458D01*
X113337519Y-129847519D01*
X113143237Y-130138282D01*
X113061310Y-129940493D01*
X112629507Y-129508690D01*
X112065330Y-129275000D01*
X111454670Y-129275000D01*
X110890493Y-129508690D01*
X110714139Y-129685044D01*
X110658327Y-129550301D01*
X110479698Y-129371673D01*
X110246309Y-129275000D01*
X109505750Y-129275000D01*
X109347000Y-129433750D01*
X109093000Y-129433750D01*
X108934250Y-129275000D01*
X108193691Y-129275000D01*
X107960302Y-129371673D01*
X107781673Y-129550301D01*
X107685000Y-129783690D01*
X107685000Y-129927025D01*
X107436217Y-129678242D01*
X106945548Y-129475000D01*
X106414452Y-129475000D01*
X105923783Y-129678242D01*
X105548242Y-130053783D01*
X105345000Y-130544452D01*
X87561632Y-130544452D01*
X85230108Y-129157341D01*
X82969451Y-127629636D01*
X80800483Y-125974332D01*
X78730397Y-124196919D01*
X76766060Y-122303290D01*
X75672238Y-121120000D01*
X100152560Y-121120000D01*
X100152560Y-122720000D01*
X100201843Y-122967765D01*
X100342191Y-123177809D01*
X100552235Y-123318157D01*
X100800000Y-123367440D01*
X102400000Y-123367440D01*
X102647765Y-123318157D01*
X102857809Y-123177809D01*
X102998157Y-122967765D01*
X103024785Y-122833894D01*
X103105423Y-122954577D01*
X103580091Y-123271740D01*
X103998667Y-123355000D01*
X104281333Y-123355000D01*
X104699909Y-123271740D01*
X105174577Y-122954577D01*
X105410000Y-122602242D01*
X105645423Y-122954577D01*
X106120091Y-123271740D01*
X106538667Y-123355000D01*
X106821333Y-123355000D01*
X107239909Y-123271740D01*
X107714577Y-122954577D01*
X107950000Y-122602242D01*
X108185423Y-122954577D01*
X108660091Y-123271740D01*
X109078667Y-123355000D01*
X109361333Y-123355000D01*
X109779909Y-123271740D01*
X110254577Y-122954577D01*
X110490000Y-122602242D01*
X110725423Y-122954577D01*
X111200091Y-123271740D01*
X111618667Y-123355000D01*
X111901333Y-123355000D01*
X112319909Y-123271740D01*
X112794577Y-122954577D01*
X113030000Y-122602242D01*
X113265423Y-122954577D01*
X113740091Y-123271740D01*
X114158667Y-123355000D01*
X114441333Y-123355000D01*
X114859909Y-123271740D01*
X115334577Y-122954577D01*
X115570000Y-122602242D01*
X115805423Y-122954577D01*
X116280091Y-123271740D01*
X116698667Y-123355000D01*
X116981333Y-123355000D01*
X117399909Y-123271740D01*
X117874577Y-122954577D01*
X118130947Y-122570892D01*
X118227611Y-122775134D01*
X118642577Y-123151041D01*
X119030961Y-123311904D01*
X119253000Y-123189915D01*
X119253000Y-122047000D01*
X119507000Y-122047000D01*
X119507000Y-123189915D01*
X119729039Y-123311904D01*
X120117423Y-123151041D01*
X120532389Y-122775134D01*
X120771914Y-122269041D01*
X120650629Y-122047000D01*
X119507000Y-122047000D01*
X119253000Y-122047000D01*
X119233000Y-122047000D01*
X119233000Y-121793000D01*
X119253000Y-121793000D01*
X119253000Y-120650085D01*
X119507000Y-120650085D01*
X119507000Y-121793000D01*
X120650629Y-121793000D01*
X120771914Y-121570959D01*
X120532389Y-121064866D01*
X120117423Y-120688959D01*
X119729039Y-120528096D01*
X119507000Y-120650085D01*
X119253000Y-120650085D01*
X119030961Y-120528096D01*
X118642577Y-120688959D01*
X118227611Y-121064866D01*
X118130947Y-121269108D01*
X117874577Y-120885423D01*
X117399909Y-120568260D01*
X116981333Y-120485000D01*
X116698667Y-120485000D01*
X116280091Y-120568260D01*
X115805423Y-120885423D01*
X115570000Y-121237758D01*
X115334577Y-120885423D01*
X114859909Y-120568260D01*
X114441333Y-120485000D01*
X114158667Y-120485000D01*
X113740091Y-120568260D01*
X113265423Y-120885423D01*
X113030000Y-121237758D01*
X112794577Y-120885423D01*
X112319909Y-120568260D01*
X111901333Y-120485000D01*
X111618667Y-120485000D01*
X111250000Y-120558332D01*
X111250000Y-119114452D01*
X134555000Y-119114452D01*
X134555000Y-119645548D01*
X134758242Y-120136217D01*
X135133783Y-120511758D01*
X135624452Y-120715000D01*
X136155548Y-120715000D01*
X136646217Y-120511758D01*
X136895000Y-120262975D01*
X136895000Y-120406310D01*
X136991673Y-120639699D01*
X137170302Y-120818327D01*
X137403691Y-120915000D01*
X138144250Y-120915000D01*
X138303000Y-120756250D01*
X138303000Y-119507000D01*
X138283000Y-119507000D01*
X138283000Y-119253000D01*
X138303000Y-119253000D01*
X138303000Y-118003750D01*
X138557000Y-118003750D01*
X138557000Y-119253000D01*
X138577000Y-119253000D01*
X138577000Y-119507000D01*
X138557000Y-119507000D01*
X138557000Y-120756250D01*
X138715750Y-120915000D01*
X139456309Y-120915000D01*
X139689698Y-120818327D01*
X139868327Y-120639699D01*
X139924139Y-120504956D01*
X140100493Y-120681310D01*
X140664670Y-120915000D01*
X141275330Y-120915000D01*
X141839507Y-120681310D01*
X142271310Y-120249507D01*
X142353237Y-120051718D01*
X142547519Y-120342481D01*
X142989109Y-120637542D01*
X143378515Y-120715000D01*
X143641485Y-120715000D01*
X144030891Y-120637542D01*
X144472481Y-120342481D01*
X144767542Y-119900891D01*
X144871154Y-119380000D01*
X144767542Y-118859109D01*
X144472481Y-118417519D01*
X144030891Y-118122458D01*
X143641485Y-118045000D01*
X143378515Y-118045000D01*
X142989109Y-118122458D01*
X142547519Y-118417519D01*
X142353237Y-118708282D01*
X142271310Y-118510493D01*
X141839507Y-118078690D01*
X141275330Y-117845000D01*
X140664670Y-117845000D01*
X140100493Y-118078690D01*
X139924139Y-118255044D01*
X139868327Y-118120301D01*
X139689698Y-117941673D01*
X139456309Y-117845000D01*
X138715750Y-117845000D01*
X138557000Y-118003750D01*
X138303000Y-118003750D01*
X138144250Y-117845000D01*
X137403691Y-117845000D01*
X137170302Y-117941673D01*
X136991673Y-118120301D01*
X136895000Y-118353690D01*
X136895000Y-118497025D01*
X136646217Y-118248242D01*
X136155548Y-118045000D01*
X135624452Y-118045000D01*
X135133783Y-118248242D01*
X134758242Y-118623783D01*
X134555000Y-119114452D01*
X111250000Y-119114452D01*
X111250000Y-115661668D01*
X111618667Y-115735000D01*
X111901333Y-115735000D01*
X112319909Y-115651740D01*
X112794577Y-115334577D01*
X113030000Y-114982242D01*
X113265423Y-115334577D01*
X113740091Y-115651740D01*
X114158667Y-115735000D01*
X114441333Y-115735000D01*
X114859909Y-115651740D01*
X115334577Y-115334577D01*
X115570000Y-114982242D01*
X115805423Y-115334577D01*
X116280091Y-115651740D01*
X116698667Y-115735000D01*
X116981333Y-115735000D01*
X117399909Y-115651740D01*
X117874577Y-115334577D01*
X118110000Y-114982242D01*
X118345423Y-115334577D01*
X118820091Y-115651740D01*
X119238667Y-115735000D01*
X119521333Y-115735000D01*
X119939909Y-115651740D01*
X120414577Y-115334577D01*
X120731740Y-114859909D01*
X120843113Y-114300000D01*
X120731740Y-113740091D01*
X120414577Y-113265423D01*
X119939909Y-112948260D01*
X119521333Y-112865000D01*
X119238667Y-112865000D01*
X118820091Y-112948260D01*
X118345423Y-113265423D01*
X118110000Y-113617758D01*
X117874577Y-113265423D01*
X117399909Y-112948260D01*
X116981333Y-112865000D01*
X116698667Y-112865000D01*
X116280091Y-112948260D01*
X115805423Y-113265423D01*
X115570000Y-113617758D01*
X115334577Y-113265423D01*
X114859909Y-112948260D01*
X114441333Y-112865000D01*
X114158667Y-112865000D01*
X113740091Y-112948260D01*
X113265423Y-113265423D01*
X113030000Y-113617758D01*
X112794577Y-113265423D01*
X112319909Y-112948260D01*
X111901333Y-112865000D01*
X111618667Y-112865000D01*
X111250000Y-112938332D01*
X111250000Y-110372532D01*
X132377073Y-110372532D01*
X132475736Y-110639387D01*
X133085461Y-110865908D01*
X133735460Y-110841856D01*
X134224264Y-110639387D01*
X134322927Y-110372532D01*
X133350000Y-109399605D01*
X132377073Y-110372532D01*
X111250000Y-110372532D01*
X111250000Y-109311668D01*
X111618667Y-109385000D01*
X111901333Y-109385000D01*
X112319909Y-109301740D01*
X112794577Y-108984577D01*
X113030000Y-108632242D01*
X113265423Y-108984577D01*
X113740091Y-109301740D01*
X114158667Y-109385000D01*
X114441333Y-109385000D01*
X114859909Y-109301740D01*
X115334577Y-108984577D01*
X115354031Y-108955461D01*
X131704092Y-108955461D01*
X131728144Y-109605460D01*
X131930613Y-110094264D01*
X132197468Y-110192927D01*
X133170395Y-109220000D01*
X133529605Y-109220000D01*
X134502532Y-110192927D01*
X134769387Y-110094264D01*
X134995908Y-109484539D01*
X134971856Y-108834540D01*
X134769387Y-108345736D01*
X134502532Y-108247073D01*
X133529605Y-109220000D01*
X133170395Y-109220000D01*
X132197468Y-108247073D01*
X131930613Y-108345736D01*
X131704092Y-108955461D01*
X115354031Y-108955461D01*
X115651740Y-108509909D01*
X115763113Y-107950000D01*
X115755157Y-107910001D01*
X116098154Y-107910001D01*
X116173001Y-107924889D01*
X116247848Y-107910001D01*
X116247853Y-107910001D01*
X116469538Y-107865905D01*
X116720930Y-107697930D01*
X116763332Y-107634471D01*
X118567803Y-105830000D01*
X122962560Y-105830000D01*
X122962560Y-107530000D01*
X123011843Y-107777765D01*
X123152191Y-107987809D01*
X123362235Y-108128157D01*
X123610000Y-108177440D01*
X125310000Y-108177440D01*
X125557765Y-108128157D01*
X125767809Y-107987809D01*
X125908157Y-107777765D01*
X125917184Y-107732381D01*
X125929375Y-107750625D01*
X126420582Y-108078839D01*
X126853744Y-108165000D01*
X127146256Y-108165000D01*
X127579418Y-108078839D01*
X128070625Y-107750625D01*
X128270000Y-107452239D01*
X128469375Y-107750625D01*
X128960582Y-108078839D01*
X129393744Y-108165000D01*
X129686256Y-108165000D01*
X130119418Y-108078839D01*
X130136435Y-108067468D01*
X132377073Y-108067468D01*
X133350000Y-109040395D01*
X134322927Y-108067468D01*
X134224264Y-107800613D01*
X133614539Y-107574092D01*
X132964540Y-107598144D01*
X132475736Y-107800613D01*
X132377073Y-108067468D01*
X130136435Y-108067468D01*
X130610625Y-107750625D01*
X130938839Y-107259418D01*
X131054092Y-106680000D01*
X130938839Y-106100582D01*
X130610625Y-105609375D01*
X130119418Y-105281161D01*
X129686256Y-105195000D01*
X129393744Y-105195000D01*
X128960582Y-105281161D01*
X128469375Y-105609375D01*
X128270000Y-105907761D01*
X128070625Y-105609375D01*
X127579418Y-105281161D01*
X127146256Y-105195000D01*
X126853744Y-105195000D01*
X126420582Y-105281161D01*
X125929375Y-105609375D01*
X125917184Y-105627619D01*
X125908157Y-105582235D01*
X125767809Y-105372191D01*
X125557765Y-105231843D01*
X125310000Y-105182560D01*
X123610000Y-105182560D01*
X123362235Y-105231843D01*
X123152191Y-105372191D01*
X123011843Y-105582235D01*
X122962560Y-105830000D01*
X118567803Y-105830000D01*
X121705068Y-102692735D01*
X126316870Y-102692735D01*
X126366383Y-102918164D01*
X126831036Y-103077807D01*
X127321413Y-103047482D01*
X127633617Y-102918164D01*
X127683130Y-102692735D01*
X127000000Y-102009605D01*
X126316870Y-102692735D01*
X121705068Y-102692735D01*
X122736767Y-101661036D01*
X125752193Y-101661036D01*
X125782518Y-102151413D01*
X125911836Y-102463617D01*
X126137265Y-102513130D01*
X126820395Y-101830000D01*
X126806253Y-101815858D01*
X126985858Y-101636253D01*
X127000000Y-101650395D01*
X127014143Y-101636253D01*
X127193748Y-101815858D01*
X127179605Y-101830000D01*
X127862735Y-102513130D01*
X128088164Y-102463617D01*
X128150728Y-102281517D01*
X135658088Y-102281517D01*
X135726077Y-102522460D01*
X136245171Y-102707201D01*
X136795448Y-102679230D01*
X137173923Y-102522460D01*
X137241912Y-102281517D01*
X142158088Y-102281517D01*
X142226077Y-102522460D01*
X142745171Y-102707201D01*
X143295448Y-102679230D01*
X143673923Y-102522460D01*
X143741912Y-102281517D01*
X142950000Y-101489605D01*
X142158088Y-102281517D01*
X137241912Y-102281517D01*
X136450000Y-101489605D01*
X135658088Y-102281517D01*
X128150728Y-102281517D01*
X128247807Y-101998964D01*
X128217482Y-101508587D01*
X128125495Y-101286510D01*
X128198157Y-101177765D01*
X128212596Y-101105171D01*
X135052799Y-101105171D01*
X135080770Y-101655448D01*
X135237540Y-102033923D01*
X135478483Y-102101912D01*
X136270395Y-101310000D01*
X136629605Y-101310000D01*
X137421517Y-102101912D01*
X137662460Y-102033923D01*
X137847201Y-101514829D01*
X137826378Y-101105171D01*
X141552799Y-101105171D01*
X141580770Y-101655448D01*
X141737540Y-102033923D01*
X141978483Y-102101912D01*
X142770395Y-101310000D01*
X143129605Y-101310000D01*
X143921517Y-102101912D01*
X144162460Y-102033923D01*
X144347201Y-101514829D01*
X144319230Y-100964552D01*
X144162460Y-100586077D01*
X143921517Y-100518088D01*
X143129605Y-101310000D01*
X142770395Y-101310000D01*
X141978483Y-100518088D01*
X141737540Y-100586077D01*
X141552799Y-101105171D01*
X137826378Y-101105171D01*
X137819230Y-100964552D01*
X137662460Y-100586077D01*
X137421517Y-100518088D01*
X136629605Y-101310000D01*
X136270395Y-101310000D01*
X135478483Y-100518088D01*
X135237540Y-100586077D01*
X135052799Y-101105171D01*
X128212596Y-101105171D01*
X128247440Y-100930000D01*
X128247440Y-100338483D01*
X135658088Y-100338483D01*
X136450000Y-101130395D01*
X137241912Y-100338483D01*
X142158088Y-100338483D01*
X142950000Y-101130395D01*
X143741912Y-100338483D01*
X143673923Y-100097540D01*
X143154829Y-99912799D01*
X142604552Y-99940770D01*
X142226077Y-100097540D01*
X142158088Y-100338483D01*
X137241912Y-100338483D01*
X137173923Y-100097540D01*
X136654829Y-99912799D01*
X136104552Y-99940770D01*
X135726077Y-100097540D01*
X135658088Y-100338483D01*
X128247440Y-100338483D01*
X128247440Y-99730000D01*
X128198157Y-99482235D01*
X128057809Y-99272191D01*
X127847765Y-99131843D01*
X127600000Y-99082560D01*
X126400000Y-99082560D01*
X126152235Y-99131843D01*
X125942191Y-99272191D01*
X125801843Y-99482235D01*
X125752560Y-99730000D01*
X125752560Y-100930000D01*
X125801843Y-101177765D01*
X125878709Y-101292802D01*
X125752193Y-101661036D01*
X122736767Y-101661036D01*
X123129474Y-101268330D01*
X123192930Y-101225930D01*
X123360905Y-100974538D01*
X123405001Y-100752853D01*
X123405001Y-100752849D01*
X123419889Y-100678002D01*
X123405001Y-100603155D01*
X123405001Y-97344018D01*
X123497519Y-97482481D01*
X123939109Y-97777542D01*
X124328515Y-97855000D01*
X124591485Y-97855000D01*
X124980891Y-97777542D01*
X125422481Y-97482481D01*
X125717542Y-97040891D01*
X125821154Y-96520000D01*
X125756464Y-96194778D01*
X131715000Y-96194778D01*
X131715000Y-96845222D01*
X131963914Y-97446153D01*
X132423847Y-97906086D01*
X133024778Y-98155000D01*
X133675222Y-98155000D01*
X134276153Y-97906086D01*
X134736086Y-97446153D01*
X134985000Y-96845222D01*
X134985000Y-96534506D01*
X135065000Y-96534506D01*
X135065000Y-97085494D01*
X135275853Y-97594540D01*
X135665460Y-97984147D01*
X136174506Y-98195000D01*
X136725494Y-98195000D01*
X137234540Y-97984147D01*
X137624147Y-97594540D01*
X137835000Y-97085494D01*
X137835000Y-96534506D01*
X141565000Y-96534506D01*
X141565000Y-97085494D01*
X141775853Y-97594540D01*
X142165460Y-97984147D01*
X142674506Y-98195000D01*
X143225494Y-98195000D01*
X143734540Y-97984147D01*
X144124147Y-97594540D01*
X144335000Y-97085494D01*
X144335000Y-96534506D01*
X144124147Y-96025460D01*
X143734540Y-95635853D01*
X143225494Y-95425000D01*
X142674506Y-95425000D01*
X142165460Y-95635853D01*
X141775853Y-96025460D01*
X141565000Y-96534506D01*
X137835000Y-96534506D01*
X137624147Y-96025460D01*
X137234540Y-95635853D01*
X136725494Y-95425000D01*
X136174506Y-95425000D01*
X135665460Y-95635853D01*
X135275853Y-96025460D01*
X135065000Y-96534506D01*
X134985000Y-96534506D01*
X134985000Y-96194778D01*
X134736086Y-95593847D01*
X134276153Y-95133914D01*
X133675222Y-94885000D01*
X133024778Y-94885000D01*
X132423847Y-95133914D01*
X131963914Y-95593847D01*
X131715000Y-96194778D01*
X125756464Y-96194778D01*
X125717542Y-95999109D01*
X125422481Y-95557519D01*
X124980891Y-95262458D01*
X124591485Y-95185000D01*
X124328515Y-95185000D01*
X123939109Y-95262458D01*
X123497519Y-95557519D01*
X123405001Y-95695982D01*
X123405001Y-87915750D01*
X126885000Y-87915750D01*
X126885000Y-88281309D01*
X126981673Y-88514698D01*
X127160301Y-88693327D01*
X127393690Y-88790000D01*
X127984250Y-88790000D01*
X128143000Y-88631250D01*
X128143000Y-87757000D01*
X128397000Y-87757000D01*
X128397000Y-88631250D01*
X128555750Y-88790000D01*
X129146310Y-88790000D01*
X129379699Y-88693327D01*
X129438573Y-88634452D01*
X147255000Y-88634452D01*
X147255000Y-89165548D01*
X147458242Y-89656217D01*
X147833783Y-90031758D01*
X148324452Y-90235000D01*
X148855548Y-90235000D01*
X149346217Y-90031758D01*
X149595000Y-89782975D01*
X149595000Y-89926310D01*
X149691673Y-90159699D01*
X149870302Y-90338327D01*
X150103691Y-90435000D01*
X150844250Y-90435000D01*
X151003000Y-90276250D01*
X151003000Y-89027000D01*
X150983000Y-89027000D01*
X150983000Y-88773000D01*
X151003000Y-88773000D01*
X151003000Y-87523750D01*
X151257000Y-87523750D01*
X151257000Y-88773000D01*
X151277000Y-88773000D01*
X151277000Y-89027000D01*
X151257000Y-89027000D01*
X151257000Y-90276250D01*
X151415750Y-90435000D01*
X152156309Y-90435000D01*
X152389698Y-90338327D01*
X152568327Y-90159699D01*
X152624139Y-90024956D01*
X152800493Y-90201310D01*
X153364670Y-90435000D01*
X153975330Y-90435000D01*
X154539507Y-90201310D01*
X154971310Y-89769507D01*
X155053237Y-89571718D01*
X155247519Y-89862481D01*
X155689109Y-90157542D01*
X156078515Y-90235000D01*
X156341485Y-90235000D01*
X156730891Y-90157542D01*
X157172481Y-89862481D01*
X157467542Y-89420891D01*
X157571154Y-88900000D01*
X157467542Y-88379109D01*
X157172481Y-87937519D01*
X156730891Y-87642458D01*
X156341485Y-87565000D01*
X156078515Y-87565000D01*
X155689109Y-87642458D01*
X155247519Y-87937519D01*
X155053237Y-88228282D01*
X154971310Y-88030493D01*
X154539507Y-87598690D01*
X153975330Y-87365000D01*
X153364670Y-87365000D01*
X152800493Y-87598690D01*
X152624139Y-87775044D01*
X152568327Y-87640301D01*
X152389698Y-87461673D01*
X152156309Y-87365000D01*
X151415750Y-87365000D01*
X151257000Y-87523750D01*
X151003000Y-87523750D01*
X150844250Y-87365000D01*
X150103691Y-87365000D01*
X149870302Y-87461673D01*
X149691673Y-87640301D01*
X149595000Y-87873690D01*
X149595000Y-88017025D01*
X149346217Y-87768242D01*
X148855548Y-87565000D01*
X148324452Y-87565000D01*
X147833783Y-87768242D01*
X147458242Y-88143783D01*
X147255000Y-88634452D01*
X129438573Y-88634452D01*
X129558327Y-88514698D01*
X129655000Y-88281309D01*
X129655000Y-87915750D01*
X129496250Y-87757000D01*
X128397000Y-87757000D01*
X128143000Y-87757000D01*
X127043750Y-87757000D01*
X126885000Y-87915750D01*
X123405001Y-87915750D01*
X123405001Y-85889848D01*
X123419889Y-85815001D01*
X123405001Y-85740154D01*
X123405001Y-85740149D01*
X123360905Y-85518464D01*
X123192930Y-85267072D01*
X123129474Y-85224672D01*
X122732302Y-84827500D01*
X126872560Y-84827500D01*
X126872560Y-85352500D01*
X126941825Y-85700719D01*
X126958049Y-85725000D01*
X126941825Y-85749281D01*
X126872560Y-86097500D01*
X126872560Y-86622500D01*
X126924461Y-86883424D01*
X126885000Y-86978691D01*
X126885000Y-87344250D01*
X127043750Y-87503000D01*
X127634495Y-87503000D01*
X127782500Y-87532440D01*
X128757500Y-87532440D01*
X128905505Y-87503000D01*
X129496250Y-87503000D01*
X129655000Y-87344250D01*
X129655000Y-86978691D01*
X129615539Y-86883424D01*
X129667440Y-86622500D01*
X129667440Y-86097500D01*
X129598175Y-85749281D01*
X129581951Y-85725000D01*
X129598175Y-85700719D01*
X129667440Y-85352500D01*
X129667440Y-84827500D01*
X129598175Y-84479281D01*
X129400925Y-84184075D01*
X129105719Y-83986825D01*
X128757500Y-83917560D01*
X127782500Y-83917560D01*
X127434281Y-83986825D01*
X127139075Y-84184075D01*
X126941825Y-84479281D01*
X126872560Y-84827500D01*
X122732302Y-84827500D01*
X119423645Y-81518844D01*
X119471154Y-81280000D01*
X119418334Y-81014452D01*
X124395000Y-81014452D01*
X124395000Y-81545548D01*
X124598242Y-82036217D01*
X124973783Y-82411758D01*
X125464452Y-82615000D01*
X125995548Y-82615000D01*
X126486217Y-82411758D01*
X126861758Y-82036217D01*
X127065000Y-81545548D01*
X127065000Y-81014452D01*
X126861758Y-80523783D01*
X126486217Y-80148242D01*
X125995548Y-79945000D01*
X125464452Y-79945000D01*
X124973783Y-80148242D01*
X124598242Y-80523783D01*
X124395000Y-81014452D01*
X119418334Y-81014452D01*
X119367542Y-80759109D01*
X119072481Y-80317519D01*
X118630891Y-80022458D01*
X118241485Y-79945000D01*
X117978515Y-79945000D01*
X117589109Y-80022458D01*
X117147519Y-80317519D01*
X116852458Y-80759109D01*
X116748846Y-81280000D01*
X116852458Y-81800891D01*
X117147519Y-82242481D01*
X117589109Y-82537542D01*
X117978515Y-82615000D01*
X118241485Y-82615000D01*
X118348844Y-82593645D01*
X121885001Y-86129803D01*
X121885002Y-98654515D01*
X110376016Y-87145530D01*
X110333614Y-87082071D01*
X110082222Y-86914096D01*
X109860537Y-86870000D01*
X109860532Y-86870000D01*
X109785685Y-86855112D01*
X109710838Y-86870000D01*
X106507774Y-86870000D01*
X106372481Y-86667519D01*
X105930891Y-86372458D01*
X105868261Y-86360000D01*
X105930891Y-86347542D01*
X106372481Y-86052481D01*
X106667542Y-85610891D01*
X106771154Y-85090000D01*
X106718334Y-84824452D01*
X111695000Y-84824452D01*
X111695000Y-85355548D01*
X111898242Y-85846217D01*
X112273783Y-86221758D01*
X112607528Y-86360000D01*
X112273783Y-86498242D01*
X111898242Y-86873783D01*
X111695000Y-87364452D01*
X111695000Y-87895548D01*
X111898242Y-88386217D01*
X112273783Y-88761758D01*
X112764452Y-88965000D01*
X113295548Y-88965000D01*
X113786217Y-88761758D01*
X114161758Y-88386217D01*
X114365000Y-87895548D01*
X114365000Y-87364452D01*
X114161758Y-86873783D01*
X113786217Y-86498242D01*
X113452472Y-86360000D01*
X113786217Y-86221758D01*
X114161758Y-85846217D01*
X114365000Y-85355548D01*
X114365000Y-84824452D01*
X114161758Y-84333783D01*
X113786217Y-83958242D01*
X113295548Y-83755000D01*
X112764452Y-83755000D01*
X112273783Y-83958242D01*
X111898242Y-84333783D01*
X111695000Y-84824452D01*
X106718334Y-84824452D01*
X106667542Y-84569109D01*
X106372481Y-84127519D01*
X105930891Y-83832458D01*
X105541485Y-83755000D01*
X105278515Y-83755000D01*
X104889109Y-83832458D01*
X104447519Y-84127519D01*
X104152458Y-84569109D01*
X104048846Y-85090000D01*
X104096355Y-85328843D01*
X103900528Y-85524670D01*
X103837070Y-85567072D01*
X103669095Y-85818465D01*
X103624999Y-86040150D01*
X103624999Y-86040154D01*
X103610111Y-86115001D01*
X103624999Y-86189848D01*
X103625000Y-101375145D01*
X103610111Y-101449997D01*
X103625000Y-101524849D01*
X103669096Y-101746534D01*
X103837071Y-101997926D01*
X103900527Y-102040326D01*
X108539222Y-106679022D01*
X108185423Y-106915423D01*
X108114265Y-107021918D01*
X108018327Y-106790302D01*
X107839699Y-106611673D01*
X107606310Y-106515000D01*
X106965750Y-106515000D01*
X106807000Y-106673750D01*
X106807000Y-107823000D01*
X106827000Y-107823000D01*
X106827000Y-108077000D01*
X106807000Y-108077000D01*
X106807000Y-109226250D01*
X106965750Y-109385000D01*
X107606310Y-109385000D01*
X107839699Y-109288327D01*
X108018327Y-109109698D01*
X108114265Y-108878082D01*
X108185423Y-108984577D01*
X108660091Y-109301740D01*
X109078667Y-109385000D01*
X109361333Y-109385000D01*
X109730000Y-109311667D01*
X109730000Y-112974764D01*
X109569039Y-112908096D01*
X109347000Y-113030085D01*
X109347000Y-114173000D01*
X109367000Y-114173000D01*
X109367000Y-114427000D01*
X109347000Y-114427000D01*
X109347000Y-115569915D01*
X109569039Y-115691904D01*
X109730001Y-115625236D01*
X109730001Y-120335197D01*
X109543886Y-120521312D01*
X109361333Y-120485000D01*
X109078667Y-120485000D01*
X108660091Y-120568260D01*
X108185423Y-120885423D01*
X107950000Y-121237758D01*
X107714577Y-120885423D01*
X107239909Y-120568260D01*
X106821333Y-120485000D01*
X106538667Y-120485000D01*
X106120091Y-120568260D01*
X105645423Y-120885423D01*
X105410000Y-121237758D01*
X105174577Y-120885423D01*
X104699909Y-120568260D01*
X104281333Y-120485000D01*
X103998667Y-120485000D01*
X103580091Y-120568260D01*
X103105423Y-120885423D01*
X103024785Y-121006106D01*
X102998157Y-120872235D01*
X102857809Y-120662191D01*
X102647765Y-120521843D01*
X102400000Y-120472560D01*
X100800000Y-120472560D01*
X100552235Y-120521843D01*
X100342191Y-120662191D01*
X100201843Y-120872235D01*
X100152560Y-121120000D01*
X75672238Y-121120000D01*
X74913984Y-120299726D01*
X73180313Y-118192871D01*
X72925776Y-117844452D01*
X76135000Y-117844452D01*
X76135000Y-118375548D01*
X76338242Y-118866217D01*
X76713783Y-119241758D01*
X77204452Y-119445000D01*
X77735548Y-119445000D01*
X78226217Y-119241758D01*
X78475000Y-118992975D01*
X78475000Y-119136310D01*
X78571673Y-119369699D01*
X78750302Y-119548327D01*
X78983691Y-119645000D01*
X79724250Y-119645000D01*
X79883000Y-119486250D01*
X79883000Y-118237000D01*
X79863000Y-118237000D01*
X79863000Y-117983000D01*
X79883000Y-117983000D01*
X79883000Y-116733750D01*
X80137000Y-116733750D01*
X80137000Y-117983000D01*
X80157000Y-117983000D01*
X80157000Y-118237000D01*
X80137000Y-118237000D01*
X80137000Y-119486250D01*
X80295750Y-119645000D01*
X81036309Y-119645000D01*
X81269698Y-119548327D01*
X81448327Y-119369699D01*
X81504139Y-119234956D01*
X81680493Y-119411310D01*
X82244670Y-119645000D01*
X82855330Y-119645000D01*
X83419507Y-119411310D01*
X83851310Y-118979507D01*
X83933237Y-118781718D01*
X84127519Y-119072481D01*
X84569109Y-119367542D01*
X84958515Y-119445000D01*
X85221485Y-119445000D01*
X85610891Y-119367542D01*
X86052481Y-119072481D01*
X86347542Y-118630891D01*
X86451154Y-118110000D01*
X86347542Y-117589109D01*
X86052481Y-117147519D01*
X85610891Y-116852458D01*
X85221485Y-116775000D01*
X84958515Y-116775000D01*
X84569109Y-116852458D01*
X84127519Y-117147519D01*
X83933237Y-117438282D01*
X83851310Y-117240493D01*
X83419507Y-116808690D01*
X82855330Y-116575000D01*
X82244670Y-116575000D01*
X81680493Y-116808690D01*
X81504139Y-116985044D01*
X81448327Y-116850301D01*
X81269698Y-116671673D01*
X81036309Y-116575000D01*
X80295750Y-116575000D01*
X80137000Y-116733750D01*
X79883000Y-116733750D01*
X79724250Y-116575000D01*
X78983691Y-116575000D01*
X78750302Y-116671673D01*
X78571673Y-116850301D01*
X78475000Y-117083690D01*
X78475000Y-117227025D01*
X78226217Y-116978242D01*
X77735548Y-116775000D01*
X77204452Y-116775000D01*
X76713783Y-116978242D01*
X76338242Y-117353783D01*
X76135000Y-117844452D01*
X72925776Y-117844452D01*
X71570795Y-115989713D01*
X70479761Y-114300000D01*
X100136887Y-114300000D01*
X100248260Y-114859909D01*
X100565423Y-115334577D01*
X101040091Y-115651740D01*
X101458667Y-115735000D01*
X101741333Y-115735000D01*
X102159909Y-115651740D01*
X102634577Y-115334577D01*
X102870000Y-114982242D01*
X103105423Y-115334577D01*
X103580091Y-115651740D01*
X103998667Y-115735000D01*
X104281333Y-115735000D01*
X104699909Y-115651740D01*
X105174577Y-115334577D01*
X105410000Y-114982242D01*
X105645423Y-115334577D01*
X106120091Y-115651740D01*
X106538667Y-115735000D01*
X106821333Y-115735000D01*
X107239909Y-115651740D01*
X107714577Y-115334577D01*
X107970947Y-114950892D01*
X108067611Y-115155134D01*
X108482577Y-115531041D01*
X108870961Y-115691904D01*
X109093000Y-115569915D01*
X109093000Y-114427000D01*
X109073000Y-114427000D01*
X109073000Y-114173000D01*
X109093000Y-114173000D01*
X109093000Y-113030085D01*
X108870961Y-112908096D01*
X108482577Y-113068959D01*
X108067611Y-113444866D01*
X107970947Y-113649108D01*
X107714577Y-113265423D01*
X107239909Y-112948260D01*
X106821333Y-112865000D01*
X106538667Y-112865000D01*
X106120091Y-112948260D01*
X105645423Y-113265423D01*
X105410000Y-113617758D01*
X105174577Y-113265423D01*
X104699909Y-112948260D01*
X104281333Y-112865000D01*
X103998667Y-112865000D01*
X103580091Y-112948260D01*
X103105423Y-113265423D01*
X102870000Y-113617758D01*
X102634577Y-113265423D01*
X102159909Y-112948260D01*
X101741333Y-112865000D01*
X101458667Y-112865000D01*
X101040091Y-112948260D01*
X100565423Y-113265423D01*
X100248260Y-113740091D01*
X100136887Y-114300000D01*
X70479761Y-114300000D01*
X70090769Y-113697558D01*
X68992319Y-111760000D01*
X91348846Y-111760000D01*
X91452458Y-112280891D01*
X91747519Y-112722481D01*
X92189109Y-113017542D01*
X92578515Y-113095000D01*
X92841485Y-113095000D01*
X93230891Y-113017542D01*
X93672481Y-112722481D01*
X93967542Y-112280891D01*
X94071154Y-111760000D01*
X94018334Y-111494452D01*
X98995000Y-111494452D01*
X98995000Y-112025548D01*
X99198242Y-112516217D01*
X99573783Y-112891758D01*
X100064452Y-113095000D01*
X100595548Y-113095000D01*
X101086217Y-112891758D01*
X101461758Y-112516217D01*
X101665000Y-112025548D01*
X101665000Y-111494452D01*
X101461758Y-111003783D01*
X101086217Y-110628242D01*
X100595548Y-110425000D01*
X100064452Y-110425000D01*
X99573783Y-110628242D01*
X99198242Y-111003783D01*
X98995000Y-111494452D01*
X94018334Y-111494452D01*
X93967542Y-111239109D01*
X93672481Y-110797519D01*
X93230891Y-110502458D01*
X92841485Y-110425000D01*
X92578515Y-110425000D01*
X92189109Y-110502458D01*
X91747519Y-110797519D01*
X91452458Y-111239109D01*
X91348846Y-111760000D01*
X68992319Y-111760000D01*
X68745143Y-111324007D01*
X67538380Y-108876932D01*
X67266875Y-108235750D01*
X105245000Y-108235750D01*
X105245000Y-108876309D01*
X105341673Y-109109698D01*
X105520301Y-109288327D01*
X105753690Y-109385000D01*
X106394250Y-109385000D01*
X106553000Y-109226250D01*
X106553000Y-108077000D01*
X105403750Y-108077000D01*
X105245000Y-108235750D01*
X67266875Y-108235750D01*
X66753635Y-107023691D01*
X105245000Y-107023691D01*
X105245000Y-107664250D01*
X105403750Y-107823000D01*
X106553000Y-107823000D01*
X106553000Y-106673750D01*
X106394250Y-106515000D01*
X105753690Y-106515000D01*
X105520301Y-106611673D01*
X105341673Y-106790302D01*
X105245000Y-107023691D01*
X66753635Y-107023691D01*
X66474481Y-106364449D01*
X65931759Y-104844506D01*
X81725000Y-104844506D01*
X81725000Y-105395494D01*
X81935853Y-105904540D01*
X82325460Y-106294147D01*
X82834506Y-106505000D01*
X83385494Y-106505000D01*
X83894540Y-106294147D01*
X84284147Y-105904540D01*
X84495000Y-105395494D01*
X84495000Y-104844506D01*
X88225000Y-104844506D01*
X88225000Y-105395494D01*
X88435853Y-105904540D01*
X88825460Y-106294147D01*
X89334506Y-106505000D01*
X89885494Y-106505000D01*
X90394540Y-106294147D01*
X90784147Y-105904540D01*
X90995000Y-105395494D01*
X90995000Y-104844506D01*
X90784147Y-104335460D01*
X90394540Y-103945853D01*
X89885494Y-103735000D01*
X89334506Y-103735000D01*
X88825460Y-103945853D01*
X88435853Y-104335460D01*
X88225000Y-104844506D01*
X84495000Y-104844506D01*
X84284147Y-104335460D01*
X83894540Y-103945853D01*
X83385494Y-103735000D01*
X82834506Y-103735000D01*
X82325460Y-103945853D01*
X81935853Y-104335460D01*
X81725000Y-104844506D01*
X65931759Y-104844506D01*
X65556974Y-103794890D01*
X64788903Y-101176776D01*
X64595994Y-100344506D01*
X81725000Y-100344506D01*
X81725000Y-100895494D01*
X81935853Y-101404540D01*
X82325460Y-101794147D01*
X82834506Y-102005000D01*
X83385494Y-102005000D01*
X83894540Y-101794147D01*
X84284147Y-101404540D01*
X84495000Y-100895494D01*
X84495000Y-100344506D01*
X88225000Y-100344506D01*
X88225000Y-100895494D01*
X88435853Y-101404540D01*
X88825460Y-101794147D01*
X89334506Y-102005000D01*
X89885494Y-102005000D01*
X90394540Y-101794147D01*
X90784147Y-101404540D01*
X90995000Y-100895494D01*
X90995000Y-100344506D01*
X90784147Y-99835460D01*
X90394540Y-99445853D01*
X89885494Y-99235000D01*
X89334506Y-99235000D01*
X88825460Y-99445853D01*
X88435853Y-99835460D01*
X88225000Y-100344506D01*
X84495000Y-100344506D01*
X84284147Y-99835460D01*
X83894540Y-99445853D01*
X83385494Y-99235000D01*
X82834506Y-99235000D01*
X82325460Y-99445853D01*
X81935853Y-99835460D01*
X81725000Y-100344506D01*
X64595994Y-100344506D01*
X64172815Y-98518790D01*
X63783731Y-96254452D01*
X100265000Y-96254452D01*
X100265000Y-96785548D01*
X100468242Y-97276217D01*
X100843783Y-97651758D01*
X101334452Y-97855000D01*
X101865548Y-97855000D01*
X102356217Y-97651758D01*
X102731758Y-97276217D01*
X102935000Y-96785548D01*
X102935000Y-96254452D01*
X102731758Y-95763783D01*
X102356217Y-95388242D01*
X101865548Y-95185000D01*
X101334452Y-95185000D01*
X100843783Y-95388242D01*
X100468242Y-95763783D01*
X100265000Y-96254452D01*
X63783731Y-96254452D01*
X63710753Y-95829747D01*
X63404250Y-93118565D01*
X63367152Y-92444452D01*
X96455000Y-92444452D01*
X96455000Y-92975548D01*
X96658242Y-93466217D01*
X97033783Y-93841758D01*
X97524452Y-94045000D01*
X98055548Y-94045000D01*
X98546217Y-93841758D01*
X98921758Y-93466217D01*
X99125000Y-92975548D01*
X99125000Y-92444452D01*
X98921758Y-91953783D01*
X98546217Y-91578242D01*
X98055548Y-91375000D01*
X97524452Y-91375000D01*
X97033783Y-91578242D01*
X96658242Y-91953783D01*
X96455000Y-92444452D01*
X63367152Y-92444452D01*
X63254321Y-90394235D01*
X63258928Y-88634452D01*
X63435000Y-88634452D01*
X63435000Y-89165548D01*
X63638242Y-89656217D01*
X64013783Y-90031758D01*
X64504452Y-90235000D01*
X65035548Y-90235000D01*
X65526217Y-90031758D01*
X65775000Y-89782975D01*
X65775000Y-89926310D01*
X65871673Y-90159699D01*
X66050302Y-90338327D01*
X66283691Y-90435000D01*
X67024250Y-90435000D01*
X67183000Y-90276250D01*
X67183000Y-89027000D01*
X67163000Y-89027000D01*
X67163000Y-88773000D01*
X67183000Y-88773000D01*
X67183000Y-87523750D01*
X67437000Y-87523750D01*
X67437000Y-88773000D01*
X67457000Y-88773000D01*
X67457000Y-89027000D01*
X67437000Y-89027000D01*
X67437000Y-90276250D01*
X67595750Y-90435000D01*
X68336309Y-90435000D01*
X68569698Y-90338327D01*
X68748327Y-90159699D01*
X68804139Y-90024956D01*
X68980493Y-90201310D01*
X69544670Y-90435000D01*
X70155330Y-90435000D01*
X70719507Y-90201310D01*
X71151310Y-89769507D01*
X71233237Y-89571718D01*
X71427519Y-89862481D01*
X71869109Y-90157542D01*
X72258515Y-90235000D01*
X72521485Y-90235000D01*
X72910891Y-90157542D01*
X73352481Y-89862481D01*
X73647542Y-89420891D01*
X73751154Y-88900000D01*
X73647542Y-88379109D01*
X73352481Y-87937519D01*
X72910891Y-87642458D01*
X72521485Y-87565000D01*
X72258515Y-87565000D01*
X71869109Y-87642458D01*
X71427519Y-87937519D01*
X71233237Y-88228282D01*
X71151310Y-88030493D01*
X70719507Y-87598690D01*
X70155330Y-87365000D01*
X69544670Y-87365000D01*
X68980493Y-87598690D01*
X68804139Y-87775044D01*
X68748327Y-87640301D01*
X68569698Y-87461673D01*
X68336309Y-87365000D01*
X67595750Y-87365000D01*
X67437000Y-87523750D01*
X67183000Y-87523750D01*
X67024250Y-87365000D01*
X66283691Y-87365000D01*
X66050302Y-87461673D01*
X65871673Y-87640301D01*
X65775000Y-87873690D01*
X65775000Y-88017025D01*
X65526217Y-87768242D01*
X65035548Y-87565000D01*
X64504452Y-87565000D01*
X64013783Y-87768242D01*
X63638242Y-88143783D01*
X63435000Y-88634452D01*
X63258928Y-88634452D01*
X63261464Y-87665792D01*
X63425655Y-84942285D01*
X63674979Y-82835750D01*
X100215000Y-82835750D01*
X100215000Y-83201309D01*
X100311673Y-83434698D01*
X100490301Y-83613327D01*
X100723690Y-83710000D01*
X101314250Y-83710000D01*
X101473000Y-83551250D01*
X101473000Y-82677000D01*
X101727000Y-82677000D01*
X101727000Y-83551250D01*
X101885750Y-83710000D01*
X102476310Y-83710000D01*
X102709699Y-83613327D01*
X102888327Y-83434698D01*
X102985000Y-83201309D01*
X102985000Y-82835750D01*
X102826250Y-82677000D01*
X101727000Y-82677000D01*
X101473000Y-82677000D01*
X100373750Y-82677000D01*
X100215000Y-82835750D01*
X63674979Y-82835750D01*
X63746350Y-82232745D01*
X64140280Y-80010000D01*
X84998846Y-80010000D01*
X85102458Y-80530891D01*
X85397519Y-80972481D01*
X85839109Y-81267542D01*
X86228515Y-81345000D01*
X86491485Y-81345000D01*
X86880891Y-81267542D01*
X87322481Y-80972481D01*
X87617542Y-80530891D01*
X87721154Y-80010000D01*
X87668334Y-79744452D01*
X92645000Y-79744452D01*
X92645000Y-80275548D01*
X92848242Y-80766217D01*
X93223783Y-81141758D01*
X93714452Y-81345000D01*
X94245548Y-81345000D01*
X94736217Y-81141758D01*
X95111758Y-80766217D01*
X95315000Y-80275548D01*
X95315000Y-79747500D01*
X100202560Y-79747500D01*
X100202560Y-80272500D01*
X100271825Y-80620719D01*
X100288049Y-80645000D01*
X100271825Y-80669281D01*
X100202560Y-81017500D01*
X100202560Y-81542500D01*
X100254461Y-81803424D01*
X100215000Y-81898691D01*
X100215000Y-82264250D01*
X100373750Y-82423000D01*
X100964495Y-82423000D01*
X101112500Y-82452440D01*
X102087500Y-82452440D01*
X102235505Y-82423000D01*
X102826250Y-82423000D01*
X102985000Y-82264250D01*
X102985000Y-81898691D01*
X102945539Y-81803424D01*
X102997440Y-81542500D01*
X102997440Y-81017500D01*
X102928175Y-80669281D01*
X102911951Y-80645000D01*
X102928175Y-80620719D01*
X102997440Y-80272500D01*
X102997440Y-79747500D01*
X102928175Y-79399281D01*
X102730925Y-79104075D01*
X102435719Y-78906825D01*
X102087500Y-78837560D01*
X101112500Y-78837560D01*
X100764281Y-78906825D01*
X100469075Y-79104075D01*
X100271825Y-79399281D01*
X100202560Y-79747500D01*
X95315000Y-79747500D01*
X95315000Y-79744452D01*
X95111758Y-79253783D01*
X94736217Y-78878242D01*
X94245548Y-78675000D01*
X93714452Y-78675000D01*
X93223783Y-78878242D01*
X92848242Y-79253783D01*
X92645000Y-79744452D01*
X87668334Y-79744452D01*
X87617542Y-79489109D01*
X87322481Y-79047519D01*
X86880891Y-78752458D01*
X86491485Y-78675000D01*
X86228515Y-78675000D01*
X85839109Y-78752458D01*
X85397519Y-79047519D01*
X85102458Y-79489109D01*
X84998846Y-80010000D01*
X64140280Y-80010000D01*
X64222486Y-79546158D01*
X64852482Y-76891434D01*
X65138680Y-75934452D01*
X85025000Y-75934452D01*
X85025000Y-76465548D01*
X85228242Y-76956217D01*
X85603783Y-77331758D01*
X86094452Y-77535000D01*
X86625548Y-77535000D01*
X87116217Y-77331758D01*
X87491758Y-76956217D01*
X87666924Y-76533329D01*
X92687284Y-76533329D01*
X92830203Y-76878396D01*
X93177337Y-77266764D01*
X93646669Y-77492727D01*
X93853000Y-77370206D01*
X93853000Y-76327000D01*
X94107000Y-76327000D01*
X94107000Y-77370206D01*
X94313331Y-77492727D01*
X94782663Y-77266764D01*
X95129797Y-76878396D01*
X95272716Y-76533329D01*
X95149374Y-76327000D01*
X94107000Y-76327000D01*
X93853000Y-76327000D01*
X92810626Y-76327000D01*
X92687284Y-76533329D01*
X87666924Y-76533329D01*
X87695000Y-76465548D01*
X87695000Y-75934452D01*
X87666925Y-75866671D01*
X92687284Y-75866671D01*
X92810626Y-76073000D01*
X93853000Y-76073000D01*
X93853000Y-75029794D01*
X94107000Y-75029794D01*
X94107000Y-76073000D01*
X95149374Y-76073000D01*
X95232197Y-75934452D01*
X96455000Y-75934452D01*
X96455000Y-76465548D01*
X96658242Y-76956217D01*
X97033783Y-77331758D01*
X97524452Y-77535000D01*
X98055548Y-77535000D01*
X98546217Y-77331758D01*
X98921758Y-76956217D01*
X99125000Y-76465548D01*
X99125000Y-76200000D01*
X104048846Y-76200000D01*
X104152458Y-76720891D01*
X104447519Y-77162481D01*
X104889109Y-77457542D01*
X105278515Y-77535000D01*
X105541485Y-77535000D01*
X105930891Y-77457542D01*
X106372481Y-77162481D01*
X106667542Y-76720891D01*
X106771154Y-76200000D01*
X119288846Y-76200000D01*
X119392458Y-76720891D01*
X119687519Y-77162481D01*
X120129109Y-77457542D01*
X120518515Y-77535000D01*
X120781485Y-77535000D01*
X121170891Y-77457542D01*
X121612481Y-77162481D01*
X121907542Y-76720891D01*
X122011154Y-76200000D01*
X121958334Y-75934452D01*
X126935000Y-75934452D01*
X126935000Y-76465548D01*
X127138242Y-76956217D01*
X127513783Y-77331758D01*
X128004452Y-77535000D01*
X128535548Y-77535000D01*
X128692471Y-77470000D01*
X138338846Y-77470000D01*
X138442458Y-77990891D01*
X138737519Y-78432481D01*
X139179109Y-78727542D01*
X139568515Y-78805000D01*
X139831485Y-78805000D01*
X140220891Y-78727542D01*
X140662481Y-78432481D01*
X140680659Y-78405275D01*
X146564331Y-78405275D01*
X146626169Y-78641042D01*
X147127122Y-78817419D01*
X147657440Y-78788664D01*
X148013831Y-78641042D01*
X148075669Y-78405275D01*
X147320000Y-77649605D01*
X146564331Y-78405275D01*
X140680659Y-78405275D01*
X140957542Y-77990891D01*
X141061154Y-77470000D01*
X141022789Y-77277122D01*
X145972581Y-77277122D01*
X146001336Y-77807440D01*
X146148958Y-78163831D01*
X146384725Y-78225669D01*
X147140395Y-77470000D01*
X147499605Y-77470000D01*
X148255275Y-78225669D01*
X148491042Y-78163831D01*
X148667419Y-77662878D01*
X148638664Y-77132560D01*
X148491042Y-76776169D01*
X148255275Y-76714331D01*
X147499605Y-77470000D01*
X147140395Y-77470000D01*
X146384725Y-76714331D01*
X146148958Y-76776169D01*
X145972581Y-77277122D01*
X141022789Y-77277122D01*
X140957542Y-76949109D01*
X140680660Y-76534725D01*
X146564331Y-76534725D01*
X147320000Y-77290395D01*
X148075669Y-76534725D01*
X148013831Y-76298958D01*
X147512878Y-76122581D01*
X146982560Y-76151336D01*
X146626169Y-76298958D01*
X146564331Y-76534725D01*
X140680660Y-76534725D01*
X140662481Y-76507519D01*
X140220891Y-76212458D01*
X139831485Y-76135000D01*
X139568515Y-76135000D01*
X139179109Y-76212458D01*
X138737519Y-76507519D01*
X138442458Y-76949109D01*
X138338846Y-77470000D01*
X128692471Y-77470000D01*
X129026217Y-77331758D01*
X129401758Y-76956217D01*
X129605000Y-76465548D01*
X129605000Y-75934452D01*
X129401758Y-75443783D01*
X129026217Y-75068242D01*
X128535548Y-74865000D01*
X128004452Y-74865000D01*
X127513783Y-75068242D01*
X127138242Y-75443783D01*
X126935000Y-75934452D01*
X121958334Y-75934452D01*
X121907542Y-75679109D01*
X121612481Y-75237519D01*
X121170891Y-74942458D01*
X120781485Y-74865000D01*
X120518515Y-74865000D01*
X120129109Y-74942458D01*
X119687519Y-75237519D01*
X119392458Y-75679109D01*
X119288846Y-76200000D01*
X106771154Y-76200000D01*
X106667542Y-75679109D01*
X106372481Y-75237519D01*
X105930891Y-74942458D01*
X105541485Y-74865000D01*
X105278515Y-74865000D01*
X104889109Y-74942458D01*
X104447519Y-75237519D01*
X104152458Y-75679109D01*
X104048846Y-76200000D01*
X99125000Y-76200000D01*
X99125000Y-75934452D01*
X98921758Y-75443783D01*
X98546217Y-75068242D01*
X98055548Y-74865000D01*
X97524452Y-74865000D01*
X97033783Y-75068242D01*
X96658242Y-75443783D01*
X96455000Y-75934452D01*
X95232197Y-75934452D01*
X95272716Y-75866671D01*
X95129797Y-75521604D01*
X94782663Y-75133236D01*
X94313331Y-74907273D01*
X94107000Y-75029794D01*
X93853000Y-75029794D01*
X93646669Y-74907273D01*
X93177337Y-75133236D01*
X92830203Y-75521604D01*
X92687284Y-75866671D01*
X87666925Y-75866671D01*
X87491758Y-75443783D01*
X87116217Y-75068242D01*
X86625548Y-74865000D01*
X86094452Y-74865000D01*
X85603783Y-75068242D01*
X85228242Y-75443783D01*
X85025000Y-75934452D01*
X65138680Y-75934452D01*
X65634251Y-74277378D01*
X65858348Y-73660000D01*
X106588846Y-73660000D01*
X106692458Y-74180891D01*
X106987519Y-74622481D01*
X107429109Y-74917542D01*
X107818515Y-74995000D01*
X108081485Y-74995000D01*
X108470891Y-74917542D01*
X108912481Y-74622481D01*
X109207542Y-74180891D01*
X109311154Y-73660000D01*
X109258334Y-73394452D01*
X114235000Y-73394452D01*
X114235000Y-73925548D01*
X114438242Y-74416217D01*
X114813783Y-74791758D01*
X115304452Y-74995000D01*
X115835548Y-74995000D01*
X116326217Y-74791758D01*
X116701758Y-74416217D01*
X116896632Y-73945750D01*
X134505000Y-73945750D01*
X134505000Y-74311309D01*
X134601673Y-74544698D01*
X134780301Y-74723327D01*
X135013690Y-74820000D01*
X135604250Y-74820000D01*
X135763000Y-74661250D01*
X135763000Y-73787000D01*
X136017000Y-73787000D01*
X136017000Y-74661250D01*
X136175750Y-74820000D01*
X136766310Y-74820000D01*
X136999699Y-74723327D01*
X137178327Y-74544698D01*
X137275000Y-74311309D01*
X137275000Y-73945750D01*
X137116250Y-73787000D01*
X136017000Y-73787000D01*
X135763000Y-73787000D01*
X134663750Y-73787000D01*
X134505000Y-73945750D01*
X116896632Y-73945750D01*
X116905000Y-73925548D01*
X116905000Y-73394452D01*
X116701758Y-72903783D01*
X116326217Y-72528242D01*
X115992472Y-72390000D01*
X119288846Y-72390000D01*
X119392458Y-72910891D01*
X119687519Y-73352481D01*
X120129109Y-73647542D01*
X120518515Y-73725000D01*
X120781485Y-73725000D01*
X121170891Y-73647542D01*
X121612481Y-73352481D01*
X121907542Y-72910891D01*
X122011154Y-72390000D01*
X121958334Y-72124452D01*
X126935000Y-72124452D01*
X126935000Y-72655548D01*
X127138242Y-73146217D01*
X127513783Y-73521758D01*
X128004452Y-73725000D01*
X128535548Y-73725000D01*
X129026217Y-73521758D01*
X129401758Y-73146217D01*
X129605000Y-72655548D01*
X129605000Y-72124452D01*
X129401758Y-71633783D01*
X129026217Y-71258242D01*
X128535548Y-71055000D01*
X128004452Y-71055000D01*
X127513783Y-71258242D01*
X127138242Y-71633783D01*
X126935000Y-72124452D01*
X121958334Y-72124452D01*
X121907542Y-71869109D01*
X121612481Y-71427519D01*
X121170891Y-71132458D01*
X120781485Y-71055000D01*
X120518515Y-71055000D01*
X120129109Y-71132458D01*
X119687519Y-71427519D01*
X119392458Y-71869109D01*
X119288846Y-72390000D01*
X115992472Y-72390000D01*
X115835548Y-72325000D01*
X115304452Y-72325000D01*
X114813783Y-72528242D01*
X114438242Y-72903783D01*
X114235000Y-73394452D01*
X109258334Y-73394452D01*
X109207542Y-73139109D01*
X108912481Y-72697519D01*
X108470891Y-72402458D01*
X108081485Y-72325000D01*
X107818515Y-72325000D01*
X107429109Y-72402458D01*
X106987519Y-72697519D01*
X106692458Y-73139109D01*
X106588846Y-73660000D01*
X65858348Y-73660000D01*
X66565199Y-71712658D01*
X67365460Y-69850000D01*
X104048846Y-69850000D01*
X104152458Y-70370891D01*
X104447519Y-70812481D01*
X104889109Y-71107542D01*
X105278515Y-71185000D01*
X105541485Y-71185000D01*
X105930891Y-71107542D01*
X106372481Y-70812481D01*
X106667542Y-70370891D01*
X106771154Y-69850000D01*
X106718334Y-69584452D01*
X111695000Y-69584452D01*
X111695000Y-70115548D01*
X111898242Y-70606217D01*
X112273783Y-70981758D01*
X112764452Y-71185000D01*
X113295548Y-71185000D01*
X113786217Y-70981758D01*
X113910475Y-70857500D01*
X134492560Y-70857500D01*
X134492560Y-71382500D01*
X134561825Y-71730719D01*
X134578049Y-71755000D01*
X134561825Y-71779281D01*
X134492560Y-72127500D01*
X134492560Y-72652500D01*
X134544461Y-72913424D01*
X134505000Y-73008691D01*
X134505000Y-73374250D01*
X134663750Y-73533000D01*
X135254495Y-73533000D01*
X135402500Y-73562440D01*
X136377500Y-73562440D01*
X136525505Y-73533000D01*
X137116250Y-73533000D01*
X137275000Y-73374250D01*
X137275000Y-73008691D01*
X137235539Y-72913424D01*
X137287440Y-72652500D01*
X137287440Y-72127500D01*
X137218175Y-71779281D01*
X137201951Y-71755000D01*
X137218175Y-71730719D01*
X137287440Y-71382500D01*
X137287440Y-70857500D01*
X137218175Y-70509281D01*
X137020925Y-70214075D01*
X136725719Y-70016825D01*
X136377500Y-69947560D01*
X135402500Y-69947560D01*
X135054281Y-70016825D01*
X134759075Y-70214075D01*
X134561825Y-70509281D01*
X134492560Y-70857500D01*
X113910475Y-70857500D01*
X114161758Y-70606217D01*
X114365000Y-70115548D01*
X114365000Y-69584452D01*
X114161758Y-69093783D01*
X113786217Y-68718242D01*
X113295548Y-68515000D01*
X112764452Y-68515000D01*
X112273783Y-68718242D01*
X111898242Y-69093783D01*
X111695000Y-69584452D01*
X106718334Y-69584452D01*
X106667542Y-69329109D01*
X106372481Y-68887519D01*
X105930891Y-68592458D01*
X105541485Y-68515000D01*
X105278515Y-68515000D01*
X104889109Y-68592458D01*
X104447519Y-68887519D01*
X104152458Y-69329109D01*
X104048846Y-69850000D01*
X67365460Y-69850000D01*
X67642239Y-69205780D01*
X68589506Y-67310000D01*
X84998846Y-67310000D01*
X85102458Y-67830891D01*
X85397519Y-68272481D01*
X85839109Y-68567542D01*
X86228515Y-68645000D01*
X86491485Y-68645000D01*
X86880891Y-68567542D01*
X87322481Y-68272481D01*
X87617542Y-67830891D01*
X87721154Y-67310000D01*
X87668334Y-67044452D01*
X92645000Y-67044452D01*
X92645000Y-67575548D01*
X92848242Y-68066217D01*
X93223783Y-68441758D01*
X93714452Y-68645000D01*
X94245548Y-68645000D01*
X94736217Y-68441758D01*
X95111758Y-68066217D01*
X95315000Y-67575548D01*
X95315000Y-67044452D01*
X95111758Y-66553783D01*
X94883725Y-66325750D01*
X100215000Y-66325750D01*
X100215000Y-66691309D01*
X100311673Y-66924698D01*
X100490301Y-67103327D01*
X100723690Y-67200000D01*
X101314250Y-67200000D01*
X101473000Y-67041250D01*
X101473000Y-66167000D01*
X101727000Y-66167000D01*
X101727000Y-67041250D01*
X101885750Y-67200000D01*
X102476310Y-67200000D01*
X102709699Y-67103327D01*
X102888327Y-66924698D01*
X102985000Y-66691309D01*
X102985000Y-66325750D01*
X116725000Y-66325750D01*
X116725000Y-66691309D01*
X116821673Y-66924698D01*
X117000301Y-67103327D01*
X117233690Y-67200000D01*
X117824250Y-67200000D01*
X117983000Y-67041250D01*
X117983000Y-66167000D01*
X118237000Y-66167000D01*
X118237000Y-67041250D01*
X118395750Y-67200000D01*
X118986310Y-67200000D01*
X119219699Y-67103327D01*
X119278573Y-67044452D01*
X128205000Y-67044452D01*
X128205000Y-67575548D01*
X128408242Y-68066217D01*
X128783783Y-68441758D01*
X129274452Y-68645000D01*
X129805548Y-68645000D01*
X130296217Y-68441758D01*
X130671758Y-68066217D01*
X130875000Y-67575548D01*
X130875000Y-67310000D01*
X135798846Y-67310000D01*
X135902458Y-67830891D01*
X136197519Y-68272481D01*
X136639109Y-68567542D01*
X137028515Y-68645000D01*
X137291485Y-68645000D01*
X137680891Y-68567542D01*
X138122481Y-68272481D01*
X138417542Y-67830891D01*
X138521154Y-67310000D01*
X138417542Y-66789109D01*
X138122481Y-66347519D01*
X137680891Y-66052458D01*
X137291485Y-65975000D01*
X137028515Y-65975000D01*
X136639109Y-66052458D01*
X136197519Y-66347519D01*
X135902458Y-66789109D01*
X135798846Y-67310000D01*
X130875000Y-67310000D01*
X130875000Y-67044452D01*
X130671758Y-66553783D01*
X130296217Y-66178242D01*
X129805548Y-65975000D01*
X129274452Y-65975000D01*
X128783783Y-66178242D01*
X128408242Y-66553783D01*
X128205000Y-67044452D01*
X119278573Y-67044452D01*
X119398327Y-66924698D01*
X119495000Y-66691309D01*
X119495000Y-66325750D01*
X119336250Y-66167000D01*
X118237000Y-66167000D01*
X117983000Y-66167000D01*
X116883750Y-66167000D01*
X116725000Y-66325750D01*
X102985000Y-66325750D01*
X102826250Y-66167000D01*
X101727000Y-66167000D01*
X101473000Y-66167000D01*
X100373750Y-66167000D01*
X100215000Y-66325750D01*
X94883725Y-66325750D01*
X94736217Y-66178242D01*
X94245548Y-65975000D01*
X93714452Y-65975000D01*
X93223783Y-66178242D01*
X92848242Y-66553783D01*
X92645000Y-67044452D01*
X87668334Y-67044452D01*
X87617542Y-66789109D01*
X87322481Y-66347519D01*
X86880891Y-66052458D01*
X86491485Y-65975000D01*
X86228515Y-65975000D01*
X85839109Y-66052458D01*
X85397519Y-66347519D01*
X85102458Y-66789109D01*
X84998846Y-67310000D01*
X68589506Y-67310000D01*
X68861799Y-66765057D01*
X70219834Y-64398585D01*
X70980170Y-63234452D01*
X85025000Y-63234452D01*
X85025000Y-63765548D01*
X85228242Y-64256217D01*
X85603783Y-64631758D01*
X86094452Y-64835000D01*
X86625548Y-64835000D01*
X87116217Y-64631758D01*
X87491758Y-64256217D01*
X87666924Y-63833329D01*
X92687284Y-63833329D01*
X92830203Y-64178396D01*
X93177337Y-64566764D01*
X93646669Y-64792727D01*
X93853000Y-64670206D01*
X93853000Y-63627000D01*
X94107000Y-63627000D01*
X94107000Y-64670206D01*
X94313331Y-64792727D01*
X94782663Y-64566764D01*
X95129797Y-64178396D01*
X95272716Y-63833329D01*
X95149374Y-63627000D01*
X94107000Y-63627000D01*
X93853000Y-63627000D01*
X92810626Y-63627000D01*
X92687284Y-63833329D01*
X87666924Y-63833329D01*
X87695000Y-63765548D01*
X87695000Y-63234452D01*
X87666925Y-63166671D01*
X92687284Y-63166671D01*
X92810626Y-63373000D01*
X93853000Y-63373000D01*
X93853000Y-62329794D01*
X94107000Y-62329794D01*
X94107000Y-63373000D01*
X95149374Y-63373000D01*
X95230374Y-63237500D01*
X100202560Y-63237500D01*
X100202560Y-63762500D01*
X100271825Y-64110719D01*
X100288049Y-64135000D01*
X100271825Y-64159281D01*
X100202560Y-64507500D01*
X100202560Y-65032500D01*
X100254461Y-65293424D01*
X100215000Y-65388691D01*
X100215000Y-65754250D01*
X100373750Y-65913000D01*
X100964495Y-65913000D01*
X101112500Y-65942440D01*
X102087500Y-65942440D01*
X102235505Y-65913000D01*
X102826250Y-65913000D01*
X102985000Y-65754250D01*
X102985000Y-65388691D01*
X102945539Y-65293424D01*
X102997440Y-65032500D01*
X102997440Y-64507500D01*
X102928175Y-64159281D01*
X102911951Y-64135000D01*
X102928175Y-64110719D01*
X102997440Y-63762500D01*
X102997440Y-63237500D01*
X116712560Y-63237500D01*
X116712560Y-63762500D01*
X116781825Y-64110719D01*
X116798049Y-64135000D01*
X116781825Y-64159281D01*
X116712560Y-64507500D01*
X116712560Y-65032500D01*
X116764461Y-65293424D01*
X116725000Y-65388691D01*
X116725000Y-65754250D01*
X116883750Y-65913000D01*
X117474495Y-65913000D01*
X117622500Y-65942440D01*
X118597500Y-65942440D01*
X118745505Y-65913000D01*
X119336250Y-65913000D01*
X119495000Y-65754250D01*
X119495000Y-65388691D01*
X119455539Y-65293424D01*
X119507440Y-65032500D01*
X119507440Y-64507500D01*
X119438175Y-64159281D01*
X119421951Y-64135000D01*
X119438175Y-64110719D01*
X119507440Y-63762500D01*
X119507440Y-63237500D01*
X119438175Y-62889281D01*
X119240925Y-62594075D01*
X118945719Y-62396825D01*
X118597500Y-62327560D01*
X117622500Y-62327560D01*
X117274281Y-62396825D01*
X116979075Y-62594075D01*
X116781825Y-62889281D01*
X116712560Y-63237500D01*
X102997440Y-63237500D01*
X102928175Y-62889281D01*
X102730925Y-62594075D01*
X102435719Y-62396825D01*
X102087500Y-62327560D01*
X101112500Y-62327560D01*
X100764281Y-62396825D01*
X100469075Y-62594075D01*
X100271825Y-62889281D01*
X100202560Y-63237500D01*
X95230374Y-63237500D01*
X95272716Y-63166671D01*
X95129797Y-62821604D01*
X94782663Y-62433236D01*
X94313331Y-62207273D01*
X94107000Y-62329794D01*
X93853000Y-62329794D01*
X93646669Y-62207273D01*
X93177337Y-62433236D01*
X92830203Y-62821604D01*
X92687284Y-63166671D01*
X87666925Y-63166671D01*
X87491758Y-62743783D01*
X87116217Y-62368242D01*
X86625548Y-62165000D01*
X86094452Y-62165000D01*
X85603783Y-62368242D01*
X85228242Y-62743783D01*
X85025000Y-63234452D01*
X70980170Y-63234452D01*
X71711841Y-62114210D01*
X73332872Y-59919510D01*
X73744607Y-59424452D01*
X76135000Y-59424452D01*
X76135000Y-59955548D01*
X76338242Y-60446217D01*
X76713783Y-60821758D01*
X77204452Y-61025000D01*
X77735548Y-61025000D01*
X78226217Y-60821758D01*
X78475000Y-60572975D01*
X78475000Y-60716310D01*
X78571673Y-60949699D01*
X78750302Y-61128327D01*
X78983691Y-61225000D01*
X79724250Y-61225000D01*
X79883000Y-61066250D01*
X79883000Y-59817000D01*
X79863000Y-59817000D01*
X79863000Y-59563000D01*
X79883000Y-59563000D01*
X79883000Y-58313750D01*
X80137000Y-58313750D01*
X80137000Y-59563000D01*
X80157000Y-59563000D01*
X80157000Y-59817000D01*
X80137000Y-59817000D01*
X80137000Y-61066250D01*
X80295750Y-61225000D01*
X81036309Y-61225000D01*
X81269698Y-61128327D01*
X81448327Y-60949699D01*
X81504139Y-60814956D01*
X81680493Y-60991310D01*
X82244670Y-61225000D01*
X82855330Y-61225000D01*
X83419507Y-60991310D01*
X83851310Y-60559507D01*
X83933237Y-60361718D01*
X84127519Y-60652481D01*
X84569109Y-60947542D01*
X84958515Y-61025000D01*
X85221485Y-61025000D01*
X85610891Y-60947542D01*
X86052481Y-60652481D01*
X86347542Y-60210891D01*
X86451154Y-59690000D01*
X86398334Y-59424452D01*
X134555000Y-59424452D01*
X134555000Y-59955548D01*
X134758242Y-60446217D01*
X135133783Y-60821758D01*
X135624452Y-61025000D01*
X136155548Y-61025000D01*
X136646217Y-60821758D01*
X136895000Y-60572975D01*
X136895000Y-60716310D01*
X136991673Y-60949699D01*
X137170302Y-61128327D01*
X137403691Y-61225000D01*
X138144250Y-61225000D01*
X138303000Y-61066250D01*
X138303000Y-59817000D01*
X138283000Y-59817000D01*
X138283000Y-59563000D01*
X138303000Y-59563000D01*
X138303000Y-58313750D01*
X138557000Y-58313750D01*
X138557000Y-59563000D01*
X138577000Y-59563000D01*
X138577000Y-59817000D01*
X138557000Y-59817000D01*
X138557000Y-61066250D01*
X138715750Y-61225000D01*
X139456309Y-61225000D01*
X139689698Y-61128327D01*
X139868327Y-60949699D01*
X139924139Y-60814956D01*
X140100493Y-60991310D01*
X140664670Y-61225000D01*
X141275330Y-61225000D01*
X141839507Y-60991310D01*
X142271310Y-60559507D01*
X142353237Y-60361718D01*
X142547519Y-60652481D01*
X142989109Y-60947542D01*
X143378515Y-61025000D01*
X143641485Y-61025000D01*
X144030891Y-60947542D01*
X144472481Y-60652481D01*
X144767542Y-60210891D01*
X144871154Y-59690000D01*
X144767542Y-59169109D01*
X144472481Y-58727519D01*
X144030891Y-58432458D01*
X143641485Y-58355000D01*
X143378515Y-58355000D01*
X142989109Y-58432458D01*
X142547519Y-58727519D01*
X142353237Y-59018282D01*
X142271310Y-58820493D01*
X141839507Y-58388690D01*
X141275330Y-58155000D01*
X140664670Y-58155000D01*
X140100493Y-58388690D01*
X139924139Y-58565044D01*
X139868327Y-58430301D01*
X139689698Y-58251673D01*
X139456309Y-58155000D01*
X138715750Y-58155000D01*
X138557000Y-58313750D01*
X138303000Y-58313750D01*
X138144250Y-58155000D01*
X137403691Y-58155000D01*
X137170302Y-58251673D01*
X136991673Y-58430301D01*
X136895000Y-58663690D01*
X136895000Y-58807025D01*
X136646217Y-58558242D01*
X136155548Y-58355000D01*
X135624452Y-58355000D01*
X135133783Y-58558242D01*
X134758242Y-58933783D01*
X134555000Y-59424452D01*
X86398334Y-59424452D01*
X86347542Y-59169109D01*
X86052481Y-58727519D01*
X85610891Y-58432458D01*
X85221485Y-58355000D01*
X84958515Y-58355000D01*
X84569109Y-58432458D01*
X84127519Y-58727519D01*
X83933237Y-59018282D01*
X83851310Y-58820493D01*
X83419507Y-58388690D01*
X82855330Y-58155000D01*
X82244670Y-58155000D01*
X81680493Y-58388690D01*
X81504139Y-58565044D01*
X81448327Y-58430301D01*
X81269698Y-58251673D01*
X81036309Y-58155000D01*
X80295750Y-58155000D01*
X80137000Y-58313750D01*
X79883000Y-58313750D01*
X79724250Y-58155000D01*
X78983691Y-58155000D01*
X78750302Y-58251673D01*
X78571673Y-58430301D01*
X78475000Y-58663690D01*
X78475000Y-58807025D01*
X78226217Y-58558242D01*
X77735548Y-58355000D01*
X77204452Y-58355000D01*
X76713783Y-58558242D01*
X76338242Y-58933783D01*
X76135000Y-59424452D01*
X73744607Y-59424452D01*
X75077551Y-57821761D01*
X75953136Y-56884452D01*
X97725000Y-56884452D01*
X97725000Y-57415548D01*
X97928242Y-57906217D01*
X98303783Y-58281758D01*
X98794452Y-58485000D01*
X99325548Y-58485000D01*
X99816217Y-58281758D01*
X100191758Y-57906217D01*
X100395000Y-57415548D01*
X100395000Y-57150000D01*
X105318846Y-57150000D01*
X105422458Y-57670891D01*
X105717519Y-58112481D01*
X106159109Y-58407542D01*
X106548515Y-58485000D01*
X106811485Y-58485000D01*
X107200891Y-58407542D01*
X107642481Y-58112481D01*
X107937542Y-57670891D01*
X108041154Y-57150000D01*
X107988334Y-56884452D01*
X111695000Y-56884452D01*
X111695000Y-57415548D01*
X111898242Y-57906217D01*
X112273783Y-58281758D01*
X112764452Y-58485000D01*
X113295548Y-58485000D01*
X113786217Y-58281758D01*
X114161758Y-57906217D01*
X114365000Y-57415548D01*
X114365000Y-57150000D01*
X119288846Y-57150000D01*
X119392458Y-57670891D01*
X119687519Y-58112481D01*
X120129109Y-58407542D01*
X120518515Y-58485000D01*
X120781485Y-58485000D01*
X121170891Y-58407542D01*
X121612481Y-58112481D01*
X121907542Y-57670891D01*
X122011154Y-57150000D01*
X121907542Y-56629109D01*
X121612481Y-56187519D01*
X121170891Y-55892458D01*
X120781485Y-55815000D01*
X120518515Y-55815000D01*
X120129109Y-55892458D01*
X119687519Y-56187519D01*
X119392458Y-56629109D01*
X119288846Y-57150000D01*
X114365000Y-57150000D01*
X114365000Y-56884452D01*
X114161758Y-56393783D01*
X113786217Y-56018242D01*
X113295548Y-55815000D01*
X112764452Y-55815000D01*
X112273783Y-56018242D01*
X111898242Y-56393783D01*
X111695000Y-56884452D01*
X107988334Y-56884452D01*
X107937542Y-56629109D01*
X107642481Y-56187519D01*
X107200891Y-55892458D01*
X106811485Y-55815000D01*
X106548515Y-55815000D01*
X106159109Y-55892458D01*
X105717519Y-56187519D01*
X105422458Y-56629109D01*
X105318846Y-57150000D01*
X100395000Y-57150000D01*
X100395000Y-56884452D01*
X100191758Y-56393783D01*
X99816217Y-56018242D01*
X99325548Y-55815000D01*
X98794452Y-55815000D01*
X98303783Y-56018242D01*
X97928242Y-56393783D01*
X97725000Y-56884452D01*
X75953136Y-56884452D01*
X76940092Y-55827922D01*
X78914318Y-53944604D01*
X80993681Y-52178054D01*
X83171287Y-50534129D01*
X85439912Y-49018282D01*
X87792034Y-47635540D01*
X89756217Y-46628253D01*
X98057320Y-46628253D01*
X98065751Y-47433292D01*
X98290362Y-48206409D01*
X98714605Y-48890643D01*
X99307225Y-49435584D01*
X100024559Y-49801085D01*
X100813759Y-49960215D01*
X101616680Y-49901252D01*
X102374168Y-49628540D01*
X103030413Y-49162171D01*
X103537069Y-48536503D01*
X103856806Y-47797634D01*
X103966068Y-47000000D01*
X103965417Y-46937883D01*
X103931614Y-46724452D01*
X105345000Y-46724452D01*
X105345000Y-47255548D01*
X105548242Y-47746217D01*
X105923783Y-48121758D01*
X106414452Y-48325000D01*
X106945548Y-48325000D01*
X107436217Y-48121758D01*
X107685000Y-47872975D01*
X107685000Y-48016310D01*
X107781673Y-48249699D01*
X107960302Y-48428327D01*
X108193691Y-48525000D01*
X108934250Y-48525000D01*
X109093000Y-48366250D01*
X109093000Y-47117000D01*
X109073000Y-47117000D01*
X109073000Y-46863000D01*
X109093000Y-46863000D01*
X109093000Y-45613750D01*
X109347000Y-45613750D01*
X109347000Y-46863000D01*
X109367000Y-46863000D01*
X109367000Y-47117000D01*
X109347000Y-47117000D01*
X109347000Y-48366250D01*
X109505750Y-48525000D01*
X110246309Y-48525000D01*
X110479698Y-48428327D01*
X110658327Y-48249699D01*
X110714139Y-48114956D01*
X110890493Y-48291310D01*
X111454670Y-48525000D01*
X112065330Y-48525000D01*
X112629507Y-48291310D01*
X113061310Y-47859507D01*
X113143237Y-47661718D01*
X113337519Y-47952481D01*
X113779109Y-48247542D01*
X114168515Y-48325000D01*
X114431485Y-48325000D01*
X114820891Y-48247542D01*
X115262481Y-47952481D01*
X115557542Y-47510891D01*
X115661154Y-46990000D01*
X115589198Y-46628253D01*
X118057320Y-46628253D01*
X118065751Y-47433292D01*
X118290362Y-48206409D01*
X118714605Y-48890643D01*
X119307225Y-49435584D01*
X120024559Y-49801085D01*
X120813759Y-49960215D01*
X121616680Y-49901252D01*
X122374168Y-49628540D01*
X123030413Y-49162171D01*
X123537069Y-48536503D01*
X123856806Y-47797634D01*
X123966068Y-47000000D01*
X123965417Y-46937883D01*
X123839475Y-46142712D01*
X123504334Y-45410701D01*
X122984687Y-44795782D01*
X122318818Y-44343258D01*
X121555786Y-44086469D01*
X120751806Y-44044334D01*
X119966112Y-44219958D01*
X119256589Y-44600401D01*
X118675512Y-45157633D01*
X118265691Y-45850602D01*
X118057320Y-46628253D01*
X115589198Y-46628253D01*
X115557542Y-46469109D01*
X115262481Y-46027519D01*
X114820891Y-45732458D01*
X114431485Y-45655000D01*
X114168515Y-45655000D01*
X113779109Y-45732458D01*
X113337519Y-46027519D01*
X113143237Y-46318282D01*
X113061310Y-46120493D01*
X112629507Y-45688690D01*
X112065330Y-45455000D01*
X111454670Y-45455000D01*
X110890493Y-45688690D01*
X110714139Y-45865044D01*
X110658327Y-45730301D01*
X110479698Y-45551673D01*
X110246309Y-45455000D01*
X109505750Y-45455000D01*
X109347000Y-45613750D01*
X109093000Y-45613750D01*
X108934250Y-45455000D01*
X108193691Y-45455000D01*
X107960302Y-45551673D01*
X107781673Y-45730301D01*
X107685000Y-45963690D01*
X107685000Y-46107025D01*
X107436217Y-45858242D01*
X106945548Y-45655000D01*
X106414452Y-45655000D01*
X105923783Y-45858242D01*
X105548242Y-46233783D01*
X105345000Y-46724452D01*
X103931614Y-46724452D01*
X103839475Y-46142712D01*
X103504334Y-45410701D01*
X102984687Y-44795782D01*
X102318818Y-44343258D01*
X101555786Y-44086469D01*
X100751806Y-44044334D01*
X99966112Y-44219958D01*
X99256589Y-44600401D01*
X98675512Y-45157633D01*
X98265691Y-45850602D01*
X98057320Y-46628253D01*
X89756217Y-46628253D01*
X90219851Y-46390489D01*
X92715313Y-45287256D01*
X95270144Y-44329502D01*
X97875871Y-43520403D01*
X100523851Y-42862641D01*
X103205305Y-42358398D01*
X105911338Y-42009347D01*
X108632977Y-41816644D01*
X111361196Y-41780930D01*
X114086946Y-41902322D01*
G04 #@! TD*
M02*
