G04 #@! TF.GenerationSoftware,KiCad,Pcbnew,(5.0.0-3-g5ebb6b6)*
G04 #@! TF.CreationDate,2018-09-25T19:29:36-07:00*
G04 #@! TF.ProjectId,christmas-board,6368726973746D61732D626F6172642E,rev?*
G04 #@! TF.SameCoordinates,Original*
G04 #@! TF.FileFunction,Legend,Bot*
G04 #@! TF.FilePolarity,Positive*
%FSLAX46Y46*%
G04 Gerber Fmt 4.6, Leading zero omitted, Abs format (unit mm)*
G04 Created by KiCad (PCBNEW (5.0.0-3-g5ebb6b6)) date Tuesday, September 25, 2018 at 07:29:36 PM*
%MOMM*%
%LPD*%
G01*
G04 APERTURE LIST*
%ADD10C,0.150000*%
%ADD11C,0.120000*%
G04 APERTURE END LIST*
D10*
G04 #@! TO.C,J1*
X136350000Y-94870000D02*
X133350000Y-94870000D01*
X136350000Y-110870000D02*
X136350000Y-94870000D01*
X133350000Y-110870000D02*
X136350000Y-110870000D01*
X78350000Y-94870000D02*
X133350000Y-94870000D01*
X78350000Y-110870000D02*
X78350000Y-94870000D01*
X133350000Y-110870000D02*
X78350000Y-110870000D01*
D11*
G04 #@! TO.C,R16*
X79360000Y-60610000D02*
X79360000Y-58770000D01*
X79360000Y-58770000D02*
X83200000Y-58770000D01*
X83200000Y-58770000D02*
X83200000Y-60610000D01*
X83200000Y-60610000D02*
X79360000Y-60610000D01*
X78410000Y-59690000D02*
X79360000Y-59690000D01*
X84150000Y-59690000D02*
X83200000Y-59690000D01*
G04 #@! TO.C,R17*
X66660000Y-89820000D02*
X66660000Y-87980000D01*
X66660000Y-87980000D02*
X70500000Y-87980000D01*
X70500000Y-87980000D02*
X70500000Y-89820000D01*
X70500000Y-89820000D02*
X66660000Y-89820000D01*
X65710000Y-88900000D02*
X66660000Y-88900000D01*
X71450000Y-88900000D02*
X70500000Y-88900000D01*
G04 #@! TO.C,R18*
X84150000Y-118110000D02*
X83200000Y-118110000D01*
X78410000Y-118110000D02*
X79360000Y-118110000D01*
X83200000Y-119030000D02*
X79360000Y-119030000D01*
X83200000Y-117190000D02*
X83200000Y-119030000D01*
X79360000Y-117190000D02*
X83200000Y-117190000D01*
X79360000Y-119030000D02*
X79360000Y-117190000D01*
G04 #@! TO.C,R19*
X108570000Y-131730000D02*
X108570000Y-129890000D01*
X108570000Y-129890000D02*
X112410000Y-129890000D01*
X112410000Y-129890000D02*
X112410000Y-131730000D01*
X112410000Y-131730000D02*
X108570000Y-131730000D01*
X107620000Y-130810000D02*
X108570000Y-130810000D01*
X113360000Y-130810000D02*
X112410000Y-130810000D01*
G04 #@! TO.C,R20*
X142570000Y-119380000D02*
X141620000Y-119380000D01*
X136830000Y-119380000D02*
X137780000Y-119380000D01*
X141620000Y-120300000D02*
X137780000Y-120300000D01*
X141620000Y-118460000D02*
X141620000Y-120300000D01*
X137780000Y-118460000D02*
X141620000Y-118460000D01*
X137780000Y-120300000D02*
X137780000Y-118460000D01*
G04 #@! TO.C,R21*
X150480000Y-89820000D02*
X150480000Y-87980000D01*
X150480000Y-87980000D02*
X154320000Y-87980000D01*
X154320000Y-87980000D02*
X154320000Y-89820000D01*
X154320000Y-89820000D02*
X150480000Y-89820000D01*
X149530000Y-88900000D02*
X150480000Y-88900000D01*
X155270000Y-88900000D02*
X154320000Y-88900000D01*
G04 #@! TO.C,R22*
X142570000Y-59690000D02*
X141620000Y-59690000D01*
X136830000Y-59690000D02*
X137780000Y-59690000D01*
X141620000Y-60610000D02*
X137780000Y-60610000D01*
X141620000Y-58770000D02*
X141620000Y-60610000D01*
X137780000Y-58770000D02*
X141620000Y-58770000D01*
X137780000Y-60610000D02*
X137780000Y-58770000D01*
G04 #@! TO.C,R23*
X108570000Y-47910000D02*
X108570000Y-46070000D01*
X108570000Y-46070000D02*
X112410000Y-46070000D01*
X112410000Y-46070000D02*
X112410000Y-47910000D01*
X112410000Y-47910000D02*
X108570000Y-47910000D01*
X107620000Y-46990000D02*
X108570000Y-46990000D01*
X113360000Y-46990000D02*
X112410000Y-46990000D01*
G04 #@! TO.C,J1*
D10*
X104683333Y-92322380D02*
X104683333Y-93036666D01*
X104730952Y-93179523D01*
X104826190Y-93274761D01*
X104969047Y-93322380D01*
X105064285Y-93322380D01*
X103683333Y-93322380D02*
X104254761Y-93322380D01*
X103969047Y-93322380D02*
X103969047Y-92322380D01*
X104064285Y-92465238D01*
X104159523Y-92560476D01*
X104254761Y-92608095D01*
G04 #@! TO.C,R16*
X81922857Y-62062380D02*
X82256190Y-61586190D01*
X82494285Y-62062380D02*
X82494285Y-61062380D01*
X82113333Y-61062380D01*
X82018095Y-61110000D01*
X81970476Y-61157619D01*
X81922857Y-61252857D01*
X81922857Y-61395714D01*
X81970476Y-61490952D01*
X82018095Y-61538571D01*
X82113333Y-61586190D01*
X82494285Y-61586190D01*
X80970476Y-62062380D02*
X81541904Y-62062380D01*
X81256190Y-62062380D02*
X81256190Y-61062380D01*
X81351428Y-61205238D01*
X81446666Y-61300476D01*
X81541904Y-61348095D01*
X80113333Y-61062380D02*
X80303809Y-61062380D01*
X80399047Y-61110000D01*
X80446666Y-61157619D01*
X80541904Y-61300476D01*
X80589523Y-61490952D01*
X80589523Y-61871904D01*
X80541904Y-61967142D01*
X80494285Y-62014761D01*
X80399047Y-62062380D01*
X80208571Y-62062380D01*
X80113333Y-62014761D01*
X80065714Y-61967142D01*
X80018095Y-61871904D01*
X80018095Y-61633809D01*
X80065714Y-61538571D01*
X80113333Y-61490952D01*
X80208571Y-61443333D01*
X80399047Y-61443333D01*
X80494285Y-61490952D01*
X80541904Y-61538571D01*
X80589523Y-61633809D01*
G04 #@! TO.C,R17*
X69222857Y-91272380D02*
X69556190Y-90796190D01*
X69794285Y-91272380D02*
X69794285Y-90272380D01*
X69413333Y-90272380D01*
X69318095Y-90320000D01*
X69270476Y-90367619D01*
X69222857Y-90462857D01*
X69222857Y-90605714D01*
X69270476Y-90700952D01*
X69318095Y-90748571D01*
X69413333Y-90796190D01*
X69794285Y-90796190D01*
X68270476Y-91272380D02*
X68841904Y-91272380D01*
X68556190Y-91272380D02*
X68556190Y-90272380D01*
X68651428Y-90415238D01*
X68746666Y-90510476D01*
X68841904Y-90558095D01*
X67937142Y-90272380D02*
X67270476Y-90272380D01*
X67699047Y-91272380D01*
G04 #@! TO.C,R18*
X81922857Y-120482380D02*
X82256190Y-120006190D01*
X82494285Y-120482380D02*
X82494285Y-119482380D01*
X82113333Y-119482380D01*
X82018095Y-119530000D01*
X81970476Y-119577619D01*
X81922857Y-119672857D01*
X81922857Y-119815714D01*
X81970476Y-119910952D01*
X82018095Y-119958571D01*
X82113333Y-120006190D01*
X82494285Y-120006190D01*
X80970476Y-120482380D02*
X81541904Y-120482380D01*
X81256190Y-120482380D02*
X81256190Y-119482380D01*
X81351428Y-119625238D01*
X81446666Y-119720476D01*
X81541904Y-119768095D01*
X80399047Y-119910952D02*
X80494285Y-119863333D01*
X80541904Y-119815714D01*
X80589523Y-119720476D01*
X80589523Y-119672857D01*
X80541904Y-119577619D01*
X80494285Y-119530000D01*
X80399047Y-119482380D01*
X80208571Y-119482380D01*
X80113333Y-119530000D01*
X80065714Y-119577619D01*
X80018095Y-119672857D01*
X80018095Y-119720476D01*
X80065714Y-119815714D01*
X80113333Y-119863333D01*
X80208571Y-119910952D01*
X80399047Y-119910952D01*
X80494285Y-119958571D01*
X80541904Y-120006190D01*
X80589523Y-120101428D01*
X80589523Y-120291904D01*
X80541904Y-120387142D01*
X80494285Y-120434761D01*
X80399047Y-120482380D01*
X80208571Y-120482380D01*
X80113333Y-120434761D01*
X80065714Y-120387142D01*
X80018095Y-120291904D01*
X80018095Y-120101428D01*
X80065714Y-120006190D01*
X80113333Y-119958571D01*
X80208571Y-119910952D01*
G04 #@! TO.C,R19*
X111132857Y-133182380D02*
X111466190Y-132706190D01*
X111704285Y-133182380D02*
X111704285Y-132182380D01*
X111323333Y-132182380D01*
X111228095Y-132230000D01*
X111180476Y-132277619D01*
X111132857Y-132372857D01*
X111132857Y-132515714D01*
X111180476Y-132610952D01*
X111228095Y-132658571D01*
X111323333Y-132706190D01*
X111704285Y-132706190D01*
X110180476Y-133182380D02*
X110751904Y-133182380D01*
X110466190Y-133182380D02*
X110466190Y-132182380D01*
X110561428Y-132325238D01*
X110656666Y-132420476D01*
X110751904Y-132468095D01*
X109704285Y-133182380D02*
X109513809Y-133182380D01*
X109418571Y-133134761D01*
X109370952Y-133087142D01*
X109275714Y-132944285D01*
X109228095Y-132753809D01*
X109228095Y-132372857D01*
X109275714Y-132277619D01*
X109323333Y-132230000D01*
X109418571Y-132182380D01*
X109609047Y-132182380D01*
X109704285Y-132230000D01*
X109751904Y-132277619D01*
X109799523Y-132372857D01*
X109799523Y-132610952D01*
X109751904Y-132706190D01*
X109704285Y-132753809D01*
X109609047Y-132801428D01*
X109418571Y-132801428D01*
X109323333Y-132753809D01*
X109275714Y-132706190D01*
X109228095Y-132610952D01*
G04 #@! TO.C,R20*
X140342857Y-121752380D02*
X140676190Y-121276190D01*
X140914285Y-121752380D02*
X140914285Y-120752380D01*
X140533333Y-120752380D01*
X140438095Y-120800000D01*
X140390476Y-120847619D01*
X140342857Y-120942857D01*
X140342857Y-121085714D01*
X140390476Y-121180952D01*
X140438095Y-121228571D01*
X140533333Y-121276190D01*
X140914285Y-121276190D01*
X139961904Y-120847619D02*
X139914285Y-120800000D01*
X139819047Y-120752380D01*
X139580952Y-120752380D01*
X139485714Y-120800000D01*
X139438095Y-120847619D01*
X139390476Y-120942857D01*
X139390476Y-121038095D01*
X139438095Y-121180952D01*
X140009523Y-121752380D01*
X139390476Y-121752380D01*
X138771428Y-120752380D02*
X138676190Y-120752380D01*
X138580952Y-120800000D01*
X138533333Y-120847619D01*
X138485714Y-120942857D01*
X138438095Y-121133333D01*
X138438095Y-121371428D01*
X138485714Y-121561904D01*
X138533333Y-121657142D01*
X138580952Y-121704761D01*
X138676190Y-121752380D01*
X138771428Y-121752380D01*
X138866666Y-121704761D01*
X138914285Y-121657142D01*
X138961904Y-121561904D01*
X139009523Y-121371428D01*
X139009523Y-121133333D01*
X138961904Y-120942857D01*
X138914285Y-120847619D01*
X138866666Y-120800000D01*
X138771428Y-120752380D01*
G04 #@! TO.C,R21*
X153042857Y-91272380D02*
X153376190Y-90796190D01*
X153614285Y-91272380D02*
X153614285Y-90272380D01*
X153233333Y-90272380D01*
X153138095Y-90320000D01*
X153090476Y-90367619D01*
X153042857Y-90462857D01*
X153042857Y-90605714D01*
X153090476Y-90700952D01*
X153138095Y-90748571D01*
X153233333Y-90796190D01*
X153614285Y-90796190D01*
X152661904Y-90367619D02*
X152614285Y-90320000D01*
X152519047Y-90272380D01*
X152280952Y-90272380D01*
X152185714Y-90320000D01*
X152138095Y-90367619D01*
X152090476Y-90462857D01*
X152090476Y-90558095D01*
X152138095Y-90700952D01*
X152709523Y-91272380D01*
X152090476Y-91272380D01*
X151138095Y-91272380D02*
X151709523Y-91272380D01*
X151423809Y-91272380D02*
X151423809Y-90272380D01*
X151519047Y-90415238D01*
X151614285Y-90510476D01*
X151709523Y-90558095D01*
G04 #@! TO.C,R22*
X140342857Y-62062380D02*
X140676190Y-61586190D01*
X140914285Y-62062380D02*
X140914285Y-61062380D01*
X140533333Y-61062380D01*
X140438095Y-61110000D01*
X140390476Y-61157619D01*
X140342857Y-61252857D01*
X140342857Y-61395714D01*
X140390476Y-61490952D01*
X140438095Y-61538571D01*
X140533333Y-61586190D01*
X140914285Y-61586190D01*
X139961904Y-61157619D02*
X139914285Y-61110000D01*
X139819047Y-61062380D01*
X139580952Y-61062380D01*
X139485714Y-61110000D01*
X139438095Y-61157619D01*
X139390476Y-61252857D01*
X139390476Y-61348095D01*
X139438095Y-61490952D01*
X140009523Y-62062380D01*
X139390476Y-62062380D01*
X139009523Y-61157619D02*
X138961904Y-61110000D01*
X138866666Y-61062380D01*
X138628571Y-61062380D01*
X138533333Y-61110000D01*
X138485714Y-61157619D01*
X138438095Y-61252857D01*
X138438095Y-61348095D01*
X138485714Y-61490952D01*
X139057142Y-62062380D01*
X138438095Y-62062380D01*
G04 #@! TO.C,R23*
X111132857Y-49362380D02*
X111466190Y-48886190D01*
X111704285Y-49362380D02*
X111704285Y-48362380D01*
X111323333Y-48362380D01*
X111228095Y-48410000D01*
X111180476Y-48457619D01*
X111132857Y-48552857D01*
X111132857Y-48695714D01*
X111180476Y-48790952D01*
X111228095Y-48838571D01*
X111323333Y-48886190D01*
X111704285Y-48886190D01*
X110751904Y-48457619D02*
X110704285Y-48410000D01*
X110609047Y-48362380D01*
X110370952Y-48362380D01*
X110275714Y-48410000D01*
X110228095Y-48457619D01*
X110180476Y-48552857D01*
X110180476Y-48648095D01*
X110228095Y-48790952D01*
X110799523Y-49362380D01*
X110180476Y-49362380D01*
X109847142Y-48362380D02*
X109228095Y-48362380D01*
X109561428Y-48743333D01*
X109418571Y-48743333D01*
X109323333Y-48790952D01*
X109275714Y-48838571D01*
X109228095Y-48933809D01*
X109228095Y-49171904D01*
X109275714Y-49267142D01*
X109323333Y-49314761D01*
X109418571Y-49362380D01*
X109704285Y-49362380D01*
X109799523Y-49314761D01*
X109847142Y-49267142D01*
G04 #@! TD*
M02*
