G04 #@! TF.GenerationSoftware,KiCad,Pcbnew,(5.0.0-3-g5ebb6b6)*
G04 #@! TF.CreationDate,2018-09-25T19:29:36-07:00*
G04 #@! TF.ProjectId,christmas-board,6368726973746D61732D626F6172642E,rev?*
G04 #@! TF.SameCoordinates,Original*
G04 #@! TF.FileFunction,Legend,Top*
G04 #@! TF.FilePolarity,Positive*
%FSLAX46Y46*%
G04 Gerber Fmt 4.6, Leading zero omitted, Abs format (unit mm)*
G04 Created by KiCad (PCBNEW (5.0.0-3-g5ebb6b6)) date Tuesday, September 25, 2018 at 07:29:36 PM*
%MOMM*%
%LPD*%
G01*
G04 APERTURE LIST*
%ADD10C,0.120000*%
%ADD11C,0.150000*%
G04 APERTURE END LIST*
D10*
G04 #@! TO.C,C1*
X129120000Y-101080000D02*
G75*
G03X129120000Y-101080000I-2120000J0D01*
G01*
X126160000Y-101080000D02*
X124920000Y-101080000D01*
X129080000Y-101080000D02*
X127840000Y-101080000D01*
X126160000Y-101120000D02*
X124920000Y-101120000D01*
X129080000Y-101120000D02*
X127840000Y-101120000D01*
X126160000Y-101160000D02*
X124921000Y-101160000D01*
X129079000Y-101160000D02*
X127840000Y-101160000D01*
X129077000Y-101200000D02*
X127840000Y-101200000D01*
X126160000Y-101200000D02*
X124923000Y-101200000D01*
X129074000Y-101240000D02*
X127840000Y-101240000D01*
X126160000Y-101240000D02*
X124926000Y-101240000D01*
X129071000Y-101280000D02*
X127840000Y-101280000D01*
X126160000Y-101280000D02*
X124929000Y-101280000D01*
X129067000Y-101320000D02*
X127840000Y-101320000D01*
X126160000Y-101320000D02*
X124933000Y-101320000D01*
X129062000Y-101360000D02*
X127840000Y-101360000D01*
X126160000Y-101360000D02*
X124938000Y-101360000D01*
X129056000Y-101400000D02*
X127840000Y-101400000D01*
X126160000Y-101400000D02*
X124944000Y-101400000D01*
X129050000Y-101440000D02*
X127840000Y-101440000D01*
X126160000Y-101440000D02*
X124950000Y-101440000D01*
X129042000Y-101480000D02*
X127840000Y-101480000D01*
X126160000Y-101480000D02*
X124958000Y-101480000D01*
X129034000Y-101520000D02*
X127840000Y-101520000D01*
X126160000Y-101520000D02*
X124966000Y-101520000D01*
X129025000Y-101560000D02*
X127840000Y-101560000D01*
X126160000Y-101560000D02*
X124975000Y-101560000D01*
X129016000Y-101600000D02*
X127840000Y-101600000D01*
X126160000Y-101600000D02*
X124984000Y-101600000D01*
X129005000Y-101640000D02*
X127840000Y-101640000D01*
X126160000Y-101640000D02*
X124995000Y-101640000D01*
X128994000Y-101680000D02*
X127840000Y-101680000D01*
X126160000Y-101680000D02*
X125006000Y-101680000D01*
X128982000Y-101720000D02*
X127840000Y-101720000D01*
X126160000Y-101720000D02*
X125018000Y-101720000D01*
X128968000Y-101760000D02*
X127840000Y-101760000D01*
X126160000Y-101760000D02*
X125032000Y-101760000D01*
X128954000Y-101801000D02*
X127840000Y-101801000D01*
X126160000Y-101801000D02*
X125046000Y-101801000D01*
X128940000Y-101841000D02*
X127840000Y-101841000D01*
X126160000Y-101841000D02*
X125060000Y-101841000D01*
X128924000Y-101881000D02*
X127840000Y-101881000D01*
X126160000Y-101881000D02*
X125076000Y-101881000D01*
X128907000Y-101921000D02*
X127840000Y-101921000D01*
X126160000Y-101921000D02*
X125093000Y-101921000D01*
X128889000Y-101961000D02*
X127840000Y-101961000D01*
X126160000Y-101961000D02*
X125111000Y-101961000D01*
X128870000Y-102001000D02*
X127840000Y-102001000D01*
X126160000Y-102001000D02*
X125130000Y-102001000D01*
X128851000Y-102041000D02*
X127840000Y-102041000D01*
X126160000Y-102041000D02*
X125149000Y-102041000D01*
X128830000Y-102081000D02*
X127840000Y-102081000D01*
X126160000Y-102081000D02*
X125170000Y-102081000D01*
X128808000Y-102121000D02*
X127840000Y-102121000D01*
X126160000Y-102121000D02*
X125192000Y-102121000D01*
X128785000Y-102161000D02*
X127840000Y-102161000D01*
X126160000Y-102161000D02*
X125215000Y-102161000D01*
X128760000Y-102201000D02*
X127840000Y-102201000D01*
X126160000Y-102201000D02*
X125240000Y-102201000D01*
X128735000Y-102241000D02*
X127840000Y-102241000D01*
X126160000Y-102241000D02*
X125265000Y-102241000D01*
X128708000Y-102281000D02*
X127840000Y-102281000D01*
X126160000Y-102281000D02*
X125292000Y-102281000D01*
X128680000Y-102321000D02*
X127840000Y-102321000D01*
X126160000Y-102321000D02*
X125320000Y-102321000D01*
X128650000Y-102361000D02*
X127840000Y-102361000D01*
X126160000Y-102361000D02*
X125350000Y-102361000D01*
X128619000Y-102401000D02*
X127840000Y-102401000D01*
X126160000Y-102401000D02*
X125381000Y-102401000D01*
X128587000Y-102441000D02*
X127840000Y-102441000D01*
X126160000Y-102441000D02*
X125413000Y-102441000D01*
X128552000Y-102481000D02*
X127840000Y-102481000D01*
X126160000Y-102481000D02*
X125448000Y-102481000D01*
X128516000Y-102521000D02*
X127840000Y-102521000D01*
X126160000Y-102521000D02*
X125484000Y-102521000D01*
X128478000Y-102561000D02*
X127840000Y-102561000D01*
X126160000Y-102561000D02*
X125522000Y-102561000D01*
X128438000Y-102601000D02*
X127840000Y-102601000D01*
X126160000Y-102601000D02*
X125562000Y-102601000D01*
X128396000Y-102641000D02*
X127840000Y-102641000D01*
X126160000Y-102641000D02*
X125604000Y-102641000D01*
X128351000Y-102681000D02*
X125649000Y-102681000D01*
X128304000Y-102721000D02*
X125696000Y-102721000D01*
X128254000Y-102761000D02*
X125746000Y-102761000D01*
X128200000Y-102801000D02*
X125800000Y-102801000D01*
X128142000Y-102841000D02*
X125858000Y-102841000D01*
X128080000Y-102881000D02*
X125920000Y-102881000D01*
X128013000Y-102921000D02*
X125987000Y-102921000D01*
X127940000Y-102961000D02*
X126060000Y-102961000D01*
X127859000Y-103001000D02*
X126141000Y-103001000D01*
X127768000Y-103041000D02*
X126232000Y-103041000D01*
X127664000Y-103081000D02*
X126336000Y-103081000D01*
X127537000Y-103121000D02*
X126463000Y-103121000D01*
X127370000Y-103161000D02*
X126630000Y-103161000D01*
X128195000Y-98810199D02*
X128195000Y-99210199D01*
X128395000Y-99010199D02*
X127995000Y-99010199D01*
G04 #@! TO.C,D1*
X78720000Y-58145000D02*
X78720000Y-61235000D01*
X83780000Y-59690000D02*
G75*
G03X83780000Y-59690000I-2500000J0D01*
G01*
X84270000Y-59689538D02*
G75*
G02X78720000Y-61234830I-2990000J-462D01*
G01*
X84270000Y-59690462D02*
G75*
G03X78720000Y-58145170I-2990000J462D01*
G01*
G04 #@! TO.C,D2*
X71570000Y-88900462D02*
G75*
G03X66020000Y-87355170I-2990000J462D01*
G01*
X71570000Y-88899538D02*
G75*
G02X66020000Y-90444830I-2990000J-462D01*
G01*
X71080000Y-88900000D02*
G75*
G03X71080000Y-88900000I-2500000J0D01*
G01*
X66020000Y-87355000D02*
X66020000Y-90445000D01*
G04 #@! TO.C,D3*
X78720000Y-116565000D02*
X78720000Y-119655000D01*
X83780000Y-118110000D02*
G75*
G03X83780000Y-118110000I-2500000J0D01*
G01*
X84270000Y-118109538D02*
G75*
G02X78720000Y-119654830I-2990000J-462D01*
G01*
X84270000Y-118110462D02*
G75*
G03X78720000Y-116565170I-2990000J462D01*
G01*
G04 #@! TO.C,D4*
X113480000Y-130810462D02*
G75*
G03X107930000Y-129265170I-2990000J462D01*
G01*
X113480000Y-130809538D02*
G75*
G02X107930000Y-132354830I-2990000J-462D01*
G01*
X112990000Y-130810000D02*
G75*
G03X112990000Y-130810000I-2500000J0D01*
G01*
X107930000Y-129265000D02*
X107930000Y-132355000D01*
G04 #@! TO.C,D5*
X142690000Y-119380462D02*
G75*
G03X137140000Y-117835170I-2990000J462D01*
G01*
X142690000Y-119379538D02*
G75*
G02X137140000Y-120924830I-2990000J-462D01*
G01*
X142200000Y-119380000D02*
G75*
G03X142200000Y-119380000I-2500000J0D01*
G01*
X137140000Y-117835000D02*
X137140000Y-120925000D01*
G04 #@! TO.C,D6*
X149840000Y-87355000D02*
X149840000Y-90445000D01*
X154900000Y-88900000D02*
G75*
G03X154900000Y-88900000I-2500000J0D01*
G01*
X155390000Y-88899538D02*
G75*
G02X149840000Y-90444830I-2990000J-462D01*
G01*
X155390000Y-88900462D02*
G75*
G03X149840000Y-87355170I-2990000J462D01*
G01*
G04 #@! TO.C,D7*
X142690000Y-59690462D02*
G75*
G03X137140000Y-58145170I-2990000J462D01*
G01*
X142690000Y-59689538D02*
G75*
G02X137140000Y-61234830I-2990000J-462D01*
G01*
X142200000Y-59690000D02*
G75*
G03X142200000Y-59690000I-2500000J0D01*
G01*
X137140000Y-58145000D02*
X137140000Y-61235000D01*
G04 #@! TO.C,D8*
X107930000Y-45445000D02*
X107930000Y-48535000D01*
X112990000Y-46990000D02*
G75*
G03X112990000Y-46990000I-2500000J0D01*
G01*
X113480000Y-46989538D02*
G75*
G02X107930000Y-48534830I-2990000J-462D01*
G01*
X113480000Y-46990462D02*
G75*
G03X107930000Y-45445170I-2990000J462D01*
G01*
G04 #@! TO.C,Q1*
X103300000Y-66790000D02*
X103300000Y-62940000D01*
X103290122Y-62901389D02*
G75*
G03X103300000Y-66790000I-1690122J-1948611D01*
G01*
G04 #@! TO.C,Q2*
X103300000Y-83300000D02*
X103300000Y-79450000D01*
X103290122Y-79411389D02*
G75*
G03X103300000Y-83300000I-1690122J-1948611D01*
G01*
G04 #@! TO.C,Q3*
X119800122Y-62901389D02*
G75*
G03X119810000Y-66790000I-1690122J-1948611D01*
G01*
X119810000Y-66790000D02*
X119810000Y-62940000D01*
G04 #@! TO.C,Q4*
X129960122Y-84491389D02*
G75*
G03X129970000Y-88380000I-1690122J-1948611D01*
G01*
X129970000Y-88380000D02*
X129970000Y-84530000D01*
G04 #@! TO.C,Q5*
X137590000Y-74410000D02*
X137590000Y-70560000D01*
X137580122Y-70521389D02*
G75*
G03X137590000Y-74410000I-1690122J-1948611D01*
G01*
G04 #@! TO.C,R1*
X88250000Y-62580000D02*
X88250000Y-64420000D01*
X88250000Y-64420000D02*
X92090000Y-64420000D01*
X92090000Y-64420000D02*
X92090000Y-62580000D01*
X92090000Y-62580000D02*
X88250000Y-62580000D01*
X87300000Y-63500000D02*
X88250000Y-63500000D01*
X93040000Y-63500000D02*
X92090000Y-63500000D01*
G04 #@! TO.C,R2*
X93040000Y-76200000D02*
X92090000Y-76200000D01*
X87300000Y-76200000D02*
X88250000Y-76200000D01*
X92090000Y-75280000D02*
X88250000Y-75280000D01*
X92090000Y-77120000D02*
X92090000Y-75280000D01*
X88250000Y-77120000D02*
X92090000Y-77120000D01*
X88250000Y-75280000D02*
X88250000Y-77120000D01*
G04 #@! TO.C,R3*
X92090000Y-68230000D02*
X92090000Y-66390000D01*
X92090000Y-66390000D02*
X88250000Y-66390000D01*
X88250000Y-66390000D02*
X88250000Y-68230000D01*
X88250000Y-68230000D02*
X92090000Y-68230000D01*
X93040000Y-67310000D02*
X92090000Y-67310000D01*
X87300000Y-67310000D02*
X88250000Y-67310000D01*
G04 #@! TO.C,R4*
X92090000Y-80930000D02*
X92090000Y-79090000D01*
X92090000Y-79090000D02*
X88250000Y-79090000D01*
X88250000Y-79090000D02*
X88250000Y-80930000D01*
X88250000Y-80930000D02*
X92090000Y-80930000D01*
X93040000Y-80010000D02*
X92090000Y-80010000D01*
X87300000Y-80010000D02*
X88250000Y-80010000D01*
G04 #@! TO.C,R5*
X105740000Y-57150000D02*
X104790000Y-57150000D01*
X100000000Y-57150000D02*
X100950000Y-57150000D01*
X104790000Y-56230000D02*
X100950000Y-56230000D01*
X104790000Y-58070000D02*
X104790000Y-56230000D01*
X100950000Y-58070000D02*
X104790000Y-58070000D01*
X100950000Y-56230000D02*
X100950000Y-58070000D01*
G04 #@! TO.C,R6*
X104470000Y-76200000D02*
X103520000Y-76200000D01*
X98730000Y-76200000D02*
X99680000Y-76200000D01*
X103520000Y-75280000D02*
X99680000Y-75280000D01*
X103520000Y-77120000D02*
X103520000Y-75280000D01*
X99680000Y-77120000D02*
X103520000Y-77120000D01*
X99680000Y-75280000D02*
X99680000Y-77120000D01*
G04 #@! TO.C,R7*
X106350000Y-69850000D02*
X107300000Y-69850000D01*
X112090000Y-69850000D02*
X111140000Y-69850000D01*
X107300000Y-70770000D02*
X111140000Y-70770000D01*
X107300000Y-68930000D02*
X107300000Y-70770000D01*
X111140000Y-68930000D02*
X107300000Y-68930000D01*
X111140000Y-70770000D02*
X111140000Y-68930000D01*
G04 #@! TO.C,R8*
X108890000Y-73660000D02*
X109840000Y-73660000D01*
X114630000Y-73660000D02*
X113680000Y-73660000D01*
X109840000Y-74580000D02*
X113680000Y-74580000D01*
X109840000Y-72740000D02*
X109840000Y-74580000D01*
X113680000Y-72740000D02*
X109840000Y-72740000D01*
X113680000Y-74580000D02*
X113680000Y-72740000D01*
G04 #@! TO.C,R9*
X111140000Y-88550000D02*
X111140000Y-86710000D01*
X111140000Y-86710000D02*
X107300000Y-86710000D01*
X107300000Y-86710000D02*
X107300000Y-88550000D01*
X107300000Y-88550000D02*
X111140000Y-88550000D01*
X112090000Y-87630000D02*
X111140000Y-87630000D01*
X106350000Y-87630000D02*
X107300000Y-87630000D01*
G04 #@! TO.C,R10*
X106350000Y-85090000D02*
X107300000Y-85090000D01*
X112090000Y-85090000D02*
X111140000Y-85090000D01*
X107300000Y-86010000D02*
X111140000Y-86010000D01*
X107300000Y-84170000D02*
X107300000Y-86010000D01*
X111140000Y-84170000D02*
X107300000Y-84170000D01*
X111140000Y-86010000D02*
X111140000Y-84170000D01*
G04 #@! TO.C,R11*
X119710000Y-57150000D02*
X118760000Y-57150000D01*
X113970000Y-57150000D02*
X114920000Y-57150000D01*
X118760000Y-56230000D02*
X114920000Y-56230000D01*
X118760000Y-58070000D02*
X118760000Y-56230000D01*
X114920000Y-58070000D02*
X118760000Y-58070000D01*
X114920000Y-56230000D02*
X114920000Y-58070000D01*
G04 #@! TO.C,R12*
X123840000Y-82200000D02*
X123840000Y-80360000D01*
X123840000Y-80360000D02*
X120000000Y-80360000D01*
X120000000Y-80360000D02*
X120000000Y-82200000D01*
X120000000Y-82200000D02*
X123840000Y-82200000D01*
X124790000Y-81280000D02*
X123840000Y-81280000D01*
X119050000Y-81280000D02*
X120000000Y-81280000D01*
G04 #@! TO.C,R13*
X126380000Y-73310000D02*
X126380000Y-71470000D01*
X126380000Y-71470000D02*
X122540000Y-71470000D01*
X122540000Y-71470000D02*
X122540000Y-73310000D01*
X122540000Y-73310000D02*
X126380000Y-73310000D01*
X127330000Y-72390000D02*
X126380000Y-72390000D01*
X121590000Y-72390000D02*
X122540000Y-72390000D01*
G04 #@! TO.C,R14*
X121590000Y-76200000D02*
X122540000Y-76200000D01*
X127330000Y-76200000D02*
X126380000Y-76200000D01*
X122540000Y-77120000D02*
X126380000Y-77120000D01*
X122540000Y-75280000D02*
X122540000Y-77120000D01*
X126380000Y-75280000D02*
X122540000Y-75280000D01*
X126380000Y-77120000D02*
X126380000Y-75280000D01*
G04 #@! TO.C,R15*
X136220000Y-67310000D02*
X135270000Y-67310000D01*
X130480000Y-67310000D02*
X131430000Y-67310000D01*
X135270000Y-66390000D02*
X131430000Y-66390000D01*
X135270000Y-68230000D02*
X135270000Y-66390000D01*
X131430000Y-68230000D02*
X135270000Y-68230000D01*
X131430000Y-66390000D02*
X131430000Y-68230000D01*
G04 #@! TO.C,R24*
X98440000Y-112680000D02*
X98440000Y-110840000D01*
X98440000Y-110840000D02*
X94600000Y-110840000D01*
X94600000Y-110840000D02*
X94600000Y-112680000D01*
X94600000Y-112680000D02*
X98440000Y-112680000D01*
X99390000Y-111760000D02*
X98440000Y-111760000D01*
X93650000Y-111760000D02*
X94600000Y-111760000D01*
G04 #@! TO.C,R25*
X99680000Y-91790000D02*
X99680000Y-93630000D01*
X99680000Y-93630000D02*
X103520000Y-93630000D01*
X103520000Y-93630000D02*
X103520000Y-91790000D01*
X103520000Y-91790000D02*
X99680000Y-91790000D01*
X98730000Y-92710000D02*
X99680000Y-92710000D01*
X104470000Y-92710000D02*
X103520000Y-92710000D01*
G04 #@! TO.C,R26*
X118730000Y-95600000D02*
X118730000Y-97440000D01*
X118730000Y-97440000D02*
X122570000Y-97440000D01*
X122570000Y-97440000D02*
X122570000Y-95600000D01*
X122570000Y-95600000D02*
X118730000Y-95600000D01*
X117780000Y-96520000D02*
X118730000Y-96520000D01*
X123520000Y-96520000D02*
X122570000Y-96520000D01*
G04 #@! TO.C,R27*
X140640000Y-77470000D02*
X141590000Y-77470000D01*
X146380000Y-77470000D02*
X145430000Y-77470000D01*
X141590000Y-78390000D02*
X145430000Y-78390000D01*
X141590000Y-76550000D02*
X141590000Y-78390000D01*
X145430000Y-76550000D02*
X141590000Y-76550000D01*
X145430000Y-78390000D02*
X145430000Y-76550000D01*
G04 #@! TO.C,R28*
X108280000Y-96520000D02*
X107330000Y-96520000D01*
X102540000Y-96520000D02*
X103490000Y-96520000D01*
X107330000Y-95600000D02*
X103490000Y-95600000D01*
X107330000Y-97440000D02*
X107330000Y-95600000D01*
X103490000Y-97440000D02*
X107330000Y-97440000D01*
X103490000Y-95600000D02*
X103490000Y-97440000D01*
G04 #@! TO.C,U1*
X100270000Y-117110000D02*
G75*
G02X100270000Y-119110000I0J-1000000D01*
G01*
X100270000Y-119110000D02*
X100270000Y-120760000D01*
X100270000Y-120760000D02*
X120710000Y-120760000D01*
X120710000Y-120760000D02*
X120710000Y-115460000D01*
X120710000Y-115460000D02*
X100270000Y-115460000D01*
X100270000Y-115460000D02*
X100270000Y-117110000D01*
G04 #@! TO.C,U2*
X105350000Y-103140000D02*
G75*
G02X105350000Y-105140000I0J-1000000D01*
G01*
X105350000Y-105140000D02*
X105350000Y-106790000D01*
X105350000Y-106790000D02*
X115630000Y-106790000D01*
X115630000Y-106790000D02*
X115630000Y-101490000D01*
X115630000Y-101490000D02*
X105350000Y-101490000D01*
X105350000Y-101490000D02*
X105350000Y-103140000D01*
G04 #@! TO.C,SW3*
X130870000Y-108010000D02*
X130870000Y-105350000D01*
X125730000Y-108010000D02*
X130870000Y-108010000D01*
X125730000Y-105350000D02*
X130870000Y-105350000D01*
X125730000Y-108010000D02*
X125730000Y-105350000D01*
X124460000Y-108010000D02*
X123130000Y-108010000D01*
X123130000Y-108010000D02*
X123130000Y-106680000D01*
G04 #@! TO.C,SW2*
D11*
X138366666Y-93114761D02*
X138509523Y-93162380D01*
X138747619Y-93162380D01*
X138842857Y-93114761D01*
X138890476Y-93067142D01*
X138938095Y-92971904D01*
X138938095Y-92876666D01*
X138890476Y-92781428D01*
X138842857Y-92733809D01*
X138747619Y-92686190D01*
X138557142Y-92638571D01*
X138461904Y-92590952D01*
X138414285Y-92543333D01*
X138366666Y-92448095D01*
X138366666Y-92352857D01*
X138414285Y-92257619D01*
X138461904Y-92210000D01*
X138557142Y-92162380D01*
X138795238Y-92162380D01*
X138938095Y-92210000D01*
X139271428Y-92162380D02*
X139509523Y-93162380D01*
X139700000Y-92448095D01*
X139890476Y-93162380D01*
X140128571Y-92162380D01*
X140461904Y-92257619D02*
X140509523Y-92210000D01*
X140604761Y-92162380D01*
X140842857Y-92162380D01*
X140938095Y-92210000D01*
X140985714Y-92257619D01*
X141033333Y-92352857D01*
X141033333Y-92448095D01*
X140985714Y-92590952D01*
X140414285Y-93162380D01*
X141033333Y-93162380D01*
G04 #@! TO.C,SW1*
X85026666Y-96924761D02*
X85169523Y-96972380D01*
X85407619Y-96972380D01*
X85502857Y-96924761D01*
X85550476Y-96877142D01*
X85598095Y-96781904D01*
X85598095Y-96686666D01*
X85550476Y-96591428D01*
X85502857Y-96543809D01*
X85407619Y-96496190D01*
X85217142Y-96448571D01*
X85121904Y-96400952D01*
X85074285Y-96353333D01*
X85026666Y-96258095D01*
X85026666Y-96162857D01*
X85074285Y-96067619D01*
X85121904Y-96020000D01*
X85217142Y-95972380D01*
X85455238Y-95972380D01*
X85598095Y-96020000D01*
X85931428Y-95972380D02*
X86169523Y-96972380D01*
X86360000Y-96258095D01*
X86550476Y-96972380D01*
X86788571Y-95972380D01*
X87693333Y-96972380D02*
X87121904Y-96972380D01*
X87407619Y-96972380D02*
X87407619Y-95972380D01*
X87312380Y-96115238D01*
X87217142Y-96210476D01*
X87121904Y-96258095D01*
G04 #@! TO.C,C1*
X130607142Y-101246666D02*
X130654761Y-101294285D01*
X130702380Y-101437142D01*
X130702380Y-101532380D01*
X130654761Y-101675238D01*
X130559523Y-101770476D01*
X130464285Y-101818095D01*
X130273809Y-101865714D01*
X130130952Y-101865714D01*
X129940476Y-101818095D01*
X129845238Y-101770476D01*
X129750000Y-101675238D01*
X129702380Y-101532380D01*
X129702380Y-101437142D01*
X129750000Y-101294285D01*
X129797619Y-101246666D01*
X130702380Y-100294285D02*
X130702380Y-100865714D01*
X130702380Y-100580000D02*
X129702380Y-100580000D01*
X129845238Y-100675238D01*
X129940476Y-100770476D01*
X129988095Y-100865714D01*
G04 #@! TO.C,D1*
X80541904Y-56182380D02*
X80541904Y-55182380D01*
X80780000Y-55182380D01*
X80922857Y-55230000D01*
X81018095Y-55325238D01*
X81065714Y-55420476D01*
X81113333Y-55610952D01*
X81113333Y-55753809D01*
X81065714Y-55944285D01*
X81018095Y-56039523D01*
X80922857Y-56134761D01*
X80780000Y-56182380D01*
X80541904Y-56182380D01*
X82065714Y-56182380D02*
X81494285Y-56182380D01*
X81780000Y-56182380D02*
X81780000Y-55182380D01*
X81684761Y-55325238D01*
X81589523Y-55420476D01*
X81494285Y-55468095D01*
G04 #@! TO.C,D2*
X67841904Y-85392380D02*
X67841904Y-84392380D01*
X68080000Y-84392380D01*
X68222857Y-84440000D01*
X68318095Y-84535238D01*
X68365714Y-84630476D01*
X68413333Y-84820952D01*
X68413333Y-84963809D01*
X68365714Y-85154285D01*
X68318095Y-85249523D01*
X68222857Y-85344761D01*
X68080000Y-85392380D01*
X67841904Y-85392380D01*
X68794285Y-84487619D02*
X68841904Y-84440000D01*
X68937142Y-84392380D01*
X69175238Y-84392380D01*
X69270476Y-84440000D01*
X69318095Y-84487619D01*
X69365714Y-84582857D01*
X69365714Y-84678095D01*
X69318095Y-84820952D01*
X68746666Y-85392380D01*
X69365714Y-85392380D01*
G04 #@! TO.C,D3*
X80541904Y-114602380D02*
X80541904Y-113602380D01*
X80780000Y-113602380D01*
X80922857Y-113650000D01*
X81018095Y-113745238D01*
X81065714Y-113840476D01*
X81113333Y-114030952D01*
X81113333Y-114173809D01*
X81065714Y-114364285D01*
X81018095Y-114459523D01*
X80922857Y-114554761D01*
X80780000Y-114602380D01*
X80541904Y-114602380D01*
X81446666Y-113602380D02*
X82065714Y-113602380D01*
X81732380Y-113983333D01*
X81875238Y-113983333D01*
X81970476Y-114030952D01*
X82018095Y-114078571D01*
X82065714Y-114173809D01*
X82065714Y-114411904D01*
X82018095Y-114507142D01*
X81970476Y-114554761D01*
X81875238Y-114602380D01*
X81589523Y-114602380D01*
X81494285Y-114554761D01*
X81446666Y-114507142D01*
G04 #@! TO.C,D4*
X109751904Y-127302380D02*
X109751904Y-126302380D01*
X109990000Y-126302380D01*
X110132857Y-126350000D01*
X110228095Y-126445238D01*
X110275714Y-126540476D01*
X110323333Y-126730952D01*
X110323333Y-126873809D01*
X110275714Y-127064285D01*
X110228095Y-127159523D01*
X110132857Y-127254761D01*
X109990000Y-127302380D01*
X109751904Y-127302380D01*
X111180476Y-126635714D02*
X111180476Y-127302380D01*
X110942380Y-126254761D02*
X110704285Y-126969047D01*
X111323333Y-126969047D01*
G04 #@! TO.C,D5*
X138961904Y-115872380D02*
X138961904Y-114872380D01*
X139200000Y-114872380D01*
X139342857Y-114920000D01*
X139438095Y-115015238D01*
X139485714Y-115110476D01*
X139533333Y-115300952D01*
X139533333Y-115443809D01*
X139485714Y-115634285D01*
X139438095Y-115729523D01*
X139342857Y-115824761D01*
X139200000Y-115872380D01*
X138961904Y-115872380D01*
X140438095Y-114872380D02*
X139961904Y-114872380D01*
X139914285Y-115348571D01*
X139961904Y-115300952D01*
X140057142Y-115253333D01*
X140295238Y-115253333D01*
X140390476Y-115300952D01*
X140438095Y-115348571D01*
X140485714Y-115443809D01*
X140485714Y-115681904D01*
X140438095Y-115777142D01*
X140390476Y-115824761D01*
X140295238Y-115872380D01*
X140057142Y-115872380D01*
X139961904Y-115824761D01*
X139914285Y-115777142D01*
G04 #@! TO.C,D6*
X151661904Y-85392380D02*
X151661904Y-84392380D01*
X151900000Y-84392380D01*
X152042857Y-84440000D01*
X152138095Y-84535238D01*
X152185714Y-84630476D01*
X152233333Y-84820952D01*
X152233333Y-84963809D01*
X152185714Y-85154285D01*
X152138095Y-85249523D01*
X152042857Y-85344761D01*
X151900000Y-85392380D01*
X151661904Y-85392380D01*
X153090476Y-84392380D02*
X152900000Y-84392380D01*
X152804761Y-84440000D01*
X152757142Y-84487619D01*
X152661904Y-84630476D01*
X152614285Y-84820952D01*
X152614285Y-85201904D01*
X152661904Y-85297142D01*
X152709523Y-85344761D01*
X152804761Y-85392380D01*
X152995238Y-85392380D01*
X153090476Y-85344761D01*
X153138095Y-85297142D01*
X153185714Y-85201904D01*
X153185714Y-84963809D01*
X153138095Y-84868571D01*
X153090476Y-84820952D01*
X152995238Y-84773333D01*
X152804761Y-84773333D01*
X152709523Y-84820952D01*
X152661904Y-84868571D01*
X152614285Y-84963809D01*
G04 #@! TO.C,D7*
X138961904Y-56182380D02*
X138961904Y-55182380D01*
X139200000Y-55182380D01*
X139342857Y-55230000D01*
X139438095Y-55325238D01*
X139485714Y-55420476D01*
X139533333Y-55610952D01*
X139533333Y-55753809D01*
X139485714Y-55944285D01*
X139438095Y-56039523D01*
X139342857Y-56134761D01*
X139200000Y-56182380D01*
X138961904Y-56182380D01*
X139866666Y-55182380D02*
X140533333Y-55182380D01*
X140104761Y-56182380D01*
G04 #@! TO.C,D8*
X109751904Y-43482380D02*
X109751904Y-42482380D01*
X109990000Y-42482380D01*
X110132857Y-42530000D01*
X110228095Y-42625238D01*
X110275714Y-42720476D01*
X110323333Y-42910952D01*
X110323333Y-43053809D01*
X110275714Y-43244285D01*
X110228095Y-43339523D01*
X110132857Y-43434761D01*
X109990000Y-43482380D01*
X109751904Y-43482380D01*
X110894761Y-42910952D02*
X110799523Y-42863333D01*
X110751904Y-42815714D01*
X110704285Y-42720476D01*
X110704285Y-42672857D01*
X110751904Y-42577619D01*
X110799523Y-42530000D01*
X110894761Y-42482380D01*
X111085238Y-42482380D01*
X111180476Y-42530000D01*
X111228095Y-42577619D01*
X111275714Y-42672857D01*
X111275714Y-42720476D01*
X111228095Y-42815714D01*
X111180476Y-42863333D01*
X111085238Y-42910952D01*
X110894761Y-42910952D01*
X110799523Y-42958571D01*
X110751904Y-43006190D01*
X110704285Y-43101428D01*
X110704285Y-43291904D01*
X110751904Y-43387142D01*
X110799523Y-43434761D01*
X110894761Y-43482380D01*
X111085238Y-43482380D01*
X111180476Y-43434761D01*
X111228095Y-43387142D01*
X111275714Y-43291904D01*
X111275714Y-43101428D01*
X111228095Y-43006190D01*
X111180476Y-42958571D01*
X111085238Y-42910952D01*
G04 #@! TO.C,Q1*
X98587619Y-64945238D02*
X98540000Y-65040476D01*
X98444761Y-65135714D01*
X98301904Y-65278571D01*
X98254285Y-65373809D01*
X98254285Y-65469047D01*
X98492380Y-65421428D02*
X98444761Y-65516666D01*
X98349523Y-65611904D01*
X98159047Y-65659523D01*
X97825714Y-65659523D01*
X97635238Y-65611904D01*
X97540000Y-65516666D01*
X97492380Y-65421428D01*
X97492380Y-65230952D01*
X97540000Y-65135714D01*
X97635238Y-65040476D01*
X97825714Y-64992857D01*
X98159047Y-64992857D01*
X98349523Y-65040476D01*
X98444761Y-65135714D01*
X98492380Y-65230952D01*
X98492380Y-65421428D01*
X98492380Y-64040476D02*
X98492380Y-64611904D01*
X98492380Y-64326190D02*
X97492380Y-64326190D01*
X97635238Y-64421428D01*
X97730476Y-64516666D01*
X97778095Y-64611904D01*
G04 #@! TO.C,Q2*
X98587619Y-81455238D02*
X98540000Y-81550476D01*
X98444761Y-81645714D01*
X98301904Y-81788571D01*
X98254285Y-81883809D01*
X98254285Y-81979047D01*
X98492380Y-81931428D02*
X98444761Y-82026666D01*
X98349523Y-82121904D01*
X98159047Y-82169523D01*
X97825714Y-82169523D01*
X97635238Y-82121904D01*
X97540000Y-82026666D01*
X97492380Y-81931428D01*
X97492380Y-81740952D01*
X97540000Y-81645714D01*
X97635238Y-81550476D01*
X97825714Y-81502857D01*
X98159047Y-81502857D01*
X98349523Y-81550476D01*
X98444761Y-81645714D01*
X98492380Y-81740952D01*
X98492380Y-81931428D01*
X97587619Y-81121904D02*
X97540000Y-81074285D01*
X97492380Y-80979047D01*
X97492380Y-80740952D01*
X97540000Y-80645714D01*
X97587619Y-80598095D01*
X97682857Y-80550476D01*
X97778095Y-80550476D01*
X97920952Y-80598095D01*
X98492380Y-81169523D01*
X98492380Y-80550476D01*
G04 #@! TO.C,Q3*
X115097619Y-64945238D02*
X115050000Y-65040476D01*
X114954761Y-65135714D01*
X114811904Y-65278571D01*
X114764285Y-65373809D01*
X114764285Y-65469047D01*
X115002380Y-65421428D02*
X114954761Y-65516666D01*
X114859523Y-65611904D01*
X114669047Y-65659523D01*
X114335714Y-65659523D01*
X114145238Y-65611904D01*
X114050000Y-65516666D01*
X114002380Y-65421428D01*
X114002380Y-65230952D01*
X114050000Y-65135714D01*
X114145238Y-65040476D01*
X114335714Y-64992857D01*
X114669047Y-64992857D01*
X114859523Y-65040476D01*
X114954761Y-65135714D01*
X115002380Y-65230952D01*
X115002380Y-65421428D01*
X114002380Y-64659523D02*
X114002380Y-64040476D01*
X114383333Y-64373809D01*
X114383333Y-64230952D01*
X114430952Y-64135714D01*
X114478571Y-64088095D01*
X114573809Y-64040476D01*
X114811904Y-64040476D01*
X114907142Y-64088095D01*
X114954761Y-64135714D01*
X115002380Y-64230952D01*
X115002380Y-64516666D01*
X114954761Y-64611904D01*
X114907142Y-64659523D01*
G04 #@! TO.C,Q4*
X125257619Y-86535238D02*
X125210000Y-86630476D01*
X125114761Y-86725714D01*
X124971904Y-86868571D01*
X124924285Y-86963809D01*
X124924285Y-87059047D01*
X125162380Y-87011428D02*
X125114761Y-87106666D01*
X125019523Y-87201904D01*
X124829047Y-87249523D01*
X124495714Y-87249523D01*
X124305238Y-87201904D01*
X124210000Y-87106666D01*
X124162380Y-87011428D01*
X124162380Y-86820952D01*
X124210000Y-86725714D01*
X124305238Y-86630476D01*
X124495714Y-86582857D01*
X124829047Y-86582857D01*
X125019523Y-86630476D01*
X125114761Y-86725714D01*
X125162380Y-86820952D01*
X125162380Y-87011428D01*
X124495714Y-85725714D02*
X125162380Y-85725714D01*
X124114761Y-85963809D02*
X124829047Y-86201904D01*
X124829047Y-85582857D01*
G04 #@! TO.C,Q5*
X132877619Y-72565238D02*
X132830000Y-72660476D01*
X132734761Y-72755714D01*
X132591904Y-72898571D01*
X132544285Y-72993809D01*
X132544285Y-73089047D01*
X132782380Y-73041428D02*
X132734761Y-73136666D01*
X132639523Y-73231904D01*
X132449047Y-73279523D01*
X132115714Y-73279523D01*
X131925238Y-73231904D01*
X131830000Y-73136666D01*
X131782380Y-73041428D01*
X131782380Y-72850952D01*
X131830000Y-72755714D01*
X131925238Y-72660476D01*
X132115714Y-72612857D01*
X132449047Y-72612857D01*
X132639523Y-72660476D01*
X132734761Y-72755714D01*
X132782380Y-72850952D01*
X132782380Y-73041428D01*
X131782380Y-71708095D02*
X131782380Y-72184285D01*
X132258571Y-72231904D01*
X132210952Y-72184285D01*
X132163333Y-72089047D01*
X132163333Y-71850952D01*
X132210952Y-71755714D01*
X132258571Y-71708095D01*
X132353809Y-71660476D01*
X132591904Y-71660476D01*
X132687142Y-71708095D01*
X132734761Y-71755714D01*
X132782380Y-71850952D01*
X132782380Y-72089047D01*
X132734761Y-72184285D01*
X132687142Y-72231904D01*
G04 #@! TO.C,R1*
X90003333Y-62032380D02*
X89670000Y-61556190D01*
X89431904Y-62032380D02*
X89431904Y-61032380D01*
X89812857Y-61032380D01*
X89908095Y-61080000D01*
X89955714Y-61127619D01*
X90003333Y-61222857D01*
X90003333Y-61365714D01*
X89955714Y-61460952D01*
X89908095Y-61508571D01*
X89812857Y-61556190D01*
X89431904Y-61556190D01*
X90955714Y-62032380D02*
X90384285Y-62032380D01*
X90670000Y-62032380D02*
X90670000Y-61032380D01*
X90574761Y-61175238D01*
X90479523Y-61270476D01*
X90384285Y-61318095D01*
G04 #@! TO.C,R2*
X90003333Y-74732380D02*
X89670000Y-74256190D01*
X89431904Y-74732380D02*
X89431904Y-73732380D01*
X89812857Y-73732380D01*
X89908095Y-73780000D01*
X89955714Y-73827619D01*
X90003333Y-73922857D01*
X90003333Y-74065714D01*
X89955714Y-74160952D01*
X89908095Y-74208571D01*
X89812857Y-74256190D01*
X89431904Y-74256190D01*
X90384285Y-73827619D02*
X90431904Y-73780000D01*
X90527142Y-73732380D01*
X90765238Y-73732380D01*
X90860476Y-73780000D01*
X90908095Y-73827619D01*
X90955714Y-73922857D01*
X90955714Y-74018095D01*
X90908095Y-74160952D01*
X90336666Y-74732380D01*
X90955714Y-74732380D01*
G04 #@! TO.C,R3*
X90003333Y-69682380D02*
X89670000Y-69206190D01*
X89431904Y-69682380D02*
X89431904Y-68682380D01*
X89812857Y-68682380D01*
X89908095Y-68730000D01*
X89955714Y-68777619D01*
X90003333Y-68872857D01*
X90003333Y-69015714D01*
X89955714Y-69110952D01*
X89908095Y-69158571D01*
X89812857Y-69206190D01*
X89431904Y-69206190D01*
X90336666Y-68682380D02*
X90955714Y-68682380D01*
X90622380Y-69063333D01*
X90765238Y-69063333D01*
X90860476Y-69110952D01*
X90908095Y-69158571D01*
X90955714Y-69253809D01*
X90955714Y-69491904D01*
X90908095Y-69587142D01*
X90860476Y-69634761D01*
X90765238Y-69682380D01*
X90479523Y-69682380D01*
X90384285Y-69634761D01*
X90336666Y-69587142D01*
G04 #@! TO.C,R4*
X90003333Y-82382380D02*
X89670000Y-81906190D01*
X89431904Y-82382380D02*
X89431904Y-81382380D01*
X89812857Y-81382380D01*
X89908095Y-81430000D01*
X89955714Y-81477619D01*
X90003333Y-81572857D01*
X90003333Y-81715714D01*
X89955714Y-81810952D01*
X89908095Y-81858571D01*
X89812857Y-81906190D01*
X89431904Y-81906190D01*
X90860476Y-81715714D02*
X90860476Y-82382380D01*
X90622380Y-81334761D02*
X90384285Y-82049047D01*
X91003333Y-82049047D01*
G04 #@! TO.C,R5*
X102703333Y-55682380D02*
X102370000Y-55206190D01*
X102131904Y-55682380D02*
X102131904Y-54682380D01*
X102512857Y-54682380D01*
X102608095Y-54730000D01*
X102655714Y-54777619D01*
X102703333Y-54872857D01*
X102703333Y-55015714D01*
X102655714Y-55110952D01*
X102608095Y-55158571D01*
X102512857Y-55206190D01*
X102131904Y-55206190D01*
X103608095Y-54682380D02*
X103131904Y-54682380D01*
X103084285Y-55158571D01*
X103131904Y-55110952D01*
X103227142Y-55063333D01*
X103465238Y-55063333D01*
X103560476Y-55110952D01*
X103608095Y-55158571D01*
X103655714Y-55253809D01*
X103655714Y-55491904D01*
X103608095Y-55587142D01*
X103560476Y-55634761D01*
X103465238Y-55682380D01*
X103227142Y-55682380D01*
X103131904Y-55634761D01*
X103084285Y-55587142D01*
G04 #@! TO.C,R6*
X101433333Y-74732380D02*
X101100000Y-74256190D01*
X100861904Y-74732380D02*
X100861904Y-73732380D01*
X101242857Y-73732380D01*
X101338095Y-73780000D01*
X101385714Y-73827619D01*
X101433333Y-73922857D01*
X101433333Y-74065714D01*
X101385714Y-74160952D01*
X101338095Y-74208571D01*
X101242857Y-74256190D01*
X100861904Y-74256190D01*
X102290476Y-73732380D02*
X102100000Y-73732380D01*
X102004761Y-73780000D01*
X101957142Y-73827619D01*
X101861904Y-73970476D01*
X101814285Y-74160952D01*
X101814285Y-74541904D01*
X101861904Y-74637142D01*
X101909523Y-74684761D01*
X102004761Y-74732380D01*
X102195238Y-74732380D01*
X102290476Y-74684761D01*
X102338095Y-74637142D01*
X102385714Y-74541904D01*
X102385714Y-74303809D01*
X102338095Y-74208571D01*
X102290476Y-74160952D01*
X102195238Y-74113333D01*
X102004761Y-74113333D01*
X101909523Y-74160952D01*
X101861904Y-74208571D01*
X101814285Y-74303809D01*
G04 #@! TO.C,R7*
X109053333Y-72222380D02*
X108720000Y-71746190D01*
X108481904Y-72222380D02*
X108481904Y-71222380D01*
X108862857Y-71222380D01*
X108958095Y-71270000D01*
X109005714Y-71317619D01*
X109053333Y-71412857D01*
X109053333Y-71555714D01*
X109005714Y-71650952D01*
X108958095Y-71698571D01*
X108862857Y-71746190D01*
X108481904Y-71746190D01*
X109386666Y-71222380D02*
X110053333Y-71222380D01*
X109624761Y-72222380D01*
G04 #@! TO.C,R8*
X111593333Y-76032380D02*
X111260000Y-75556190D01*
X111021904Y-76032380D02*
X111021904Y-75032380D01*
X111402857Y-75032380D01*
X111498095Y-75080000D01*
X111545714Y-75127619D01*
X111593333Y-75222857D01*
X111593333Y-75365714D01*
X111545714Y-75460952D01*
X111498095Y-75508571D01*
X111402857Y-75556190D01*
X111021904Y-75556190D01*
X112164761Y-75460952D02*
X112069523Y-75413333D01*
X112021904Y-75365714D01*
X111974285Y-75270476D01*
X111974285Y-75222857D01*
X112021904Y-75127619D01*
X112069523Y-75080000D01*
X112164761Y-75032380D01*
X112355238Y-75032380D01*
X112450476Y-75080000D01*
X112498095Y-75127619D01*
X112545714Y-75222857D01*
X112545714Y-75270476D01*
X112498095Y-75365714D01*
X112450476Y-75413333D01*
X112355238Y-75460952D01*
X112164761Y-75460952D01*
X112069523Y-75508571D01*
X112021904Y-75556190D01*
X111974285Y-75651428D01*
X111974285Y-75841904D01*
X112021904Y-75937142D01*
X112069523Y-75984761D01*
X112164761Y-76032380D01*
X112355238Y-76032380D01*
X112450476Y-75984761D01*
X112498095Y-75937142D01*
X112545714Y-75841904D01*
X112545714Y-75651428D01*
X112498095Y-75556190D01*
X112450476Y-75508571D01*
X112355238Y-75460952D01*
G04 #@! TO.C,R9*
X109053333Y-90002380D02*
X108720000Y-89526190D01*
X108481904Y-90002380D02*
X108481904Y-89002380D01*
X108862857Y-89002380D01*
X108958095Y-89050000D01*
X109005714Y-89097619D01*
X109053333Y-89192857D01*
X109053333Y-89335714D01*
X109005714Y-89430952D01*
X108958095Y-89478571D01*
X108862857Y-89526190D01*
X108481904Y-89526190D01*
X109529523Y-90002380D02*
X109720000Y-90002380D01*
X109815238Y-89954761D01*
X109862857Y-89907142D01*
X109958095Y-89764285D01*
X110005714Y-89573809D01*
X110005714Y-89192857D01*
X109958095Y-89097619D01*
X109910476Y-89050000D01*
X109815238Y-89002380D01*
X109624761Y-89002380D01*
X109529523Y-89050000D01*
X109481904Y-89097619D01*
X109434285Y-89192857D01*
X109434285Y-89430952D01*
X109481904Y-89526190D01*
X109529523Y-89573809D01*
X109624761Y-89621428D01*
X109815238Y-89621428D01*
X109910476Y-89573809D01*
X109958095Y-89526190D01*
X110005714Y-89430952D01*
G04 #@! TO.C,R10*
X108577142Y-87462380D02*
X108243809Y-86986190D01*
X108005714Y-87462380D02*
X108005714Y-86462380D01*
X108386666Y-86462380D01*
X108481904Y-86510000D01*
X108529523Y-86557619D01*
X108577142Y-86652857D01*
X108577142Y-86795714D01*
X108529523Y-86890952D01*
X108481904Y-86938571D01*
X108386666Y-86986190D01*
X108005714Y-86986190D01*
X109529523Y-87462380D02*
X108958095Y-87462380D01*
X109243809Y-87462380D02*
X109243809Y-86462380D01*
X109148571Y-86605238D01*
X109053333Y-86700476D01*
X108958095Y-86748095D01*
X110148571Y-86462380D02*
X110243809Y-86462380D01*
X110339047Y-86510000D01*
X110386666Y-86557619D01*
X110434285Y-86652857D01*
X110481904Y-86843333D01*
X110481904Y-87081428D01*
X110434285Y-87271904D01*
X110386666Y-87367142D01*
X110339047Y-87414761D01*
X110243809Y-87462380D01*
X110148571Y-87462380D01*
X110053333Y-87414761D01*
X110005714Y-87367142D01*
X109958095Y-87271904D01*
X109910476Y-87081428D01*
X109910476Y-86843333D01*
X109958095Y-86652857D01*
X110005714Y-86557619D01*
X110053333Y-86510000D01*
X110148571Y-86462380D01*
G04 #@! TO.C,R11*
X116197142Y-55682380D02*
X115863809Y-55206190D01*
X115625714Y-55682380D02*
X115625714Y-54682380D01*
X116006666Y-54682380D01*
X116101904Y-54730000D01*
X116149523Y-54777619D01*
X116197142Y-54872857D01*
X116197142Y-55015714D01*
X116149523Y-55110952D01*
X116101904Y-55158571D01*
X116006666Y-55206190D01*
X115625714Y-55206190D01*
X117149523Y-55682380D02*
X116578095Y-55682380D01*
X116863809Y-55682380D02*
X116863809Y-54682380D01*
X116768571Y-54825238D01*
X116673333Y-54920476D01*
X116578095Y-54968095D01*
X118101904Y-55682380D02*
X117530476Y-55682380D01*
X117816190Y-55682380D02*
X117816190Y-54682380D01*
X117720952Y-54825238D01*
X117625714Y-54920476D01*
X117530476Y-54968095D01*
G04 #@! TO.C,R12*
X121277142Y-83652380D02*
X120943809Y-83176190D01*
X120705714Y-83652380D02*
X120705714Y-82652380D01*
X121086666Y-82652380D01*
X121181904Y-82700000D01*
X121229523Y-82747619D01*
X121277142Y-82842857D01*
X121277142Y-82985714D01*
X121229523Y-83080952D01*
X121181904Y-83128571D01*
X121086666Y-83176190D01*
X120705714Y-83176190D01*
X122229523Y-83652380D02*
X121658095Y-83652380D01*
X121943809Y-83652380D02*
X121943809Y-82652380D01*
X121848571Y-82795238D01*
X121753333Y-82890476D01*
X121658095Y-82938095D01*
X122610476Y-82747619D02*
X122658095Y-82700000D01*
X122753333Y-82652380D01*
X122991428Y-82652380D01*
X123086666Y-82700000D01*
X123134285Y-82747619D01*
X123181904Y-82842857D01*
X123181904Y-82938095D01*
X123134285Y-83080952D01*
X122562857Y-83652380D01*
X123181904Y-83652380D01*
G04 #@! TO.C,R13*
X123817142Y-74762380D02*
X123483809Y-74286190D01*
X123245714Y-74762380D02*
X123245714Y-73762380D01*
X123626666Y-73762380D01*
X123721904Y-73810000D01*
X123769523Y-73857619D01*
X123817142Y-73952857D01*
X123817142Y-74095714D01*
X123769523Y-74190952D01*
X123721904Y-74238571D01*
X123626666Y-74286190D01*
X123245714Y-74286190D01*
X124769523Y-74762380D02*
X124198095Y-74762380D01*
X124483809Y-74762380D02*
X124483809Y-73762380D01*
X124388571Y-73905238D01*
X124293333Y-74000476D01*
X124198095Y-74048095D01*
X125102857Y-73762380D02*
X125721904Y-73762380D01*
X125388571Y-74143333D01*
X125531428Y-74143333D01*
X125626666Y-74190952D01*
X125674285Y-74238571D01*
X125721904Y-74333809D01*
X125721904Y-74571904D01*
X125674285Y-74667142D01*
X125626666Y-74714761D01*
X125531428Y-74762380D01*
X125245714Y-74762380D01*
X125150476Y-74714761D01*
X125102857Y-74667142D01*
G04 #@! TO.C,R14*
X123817142Y-78572380D02*
X123483809Y-78096190D01*
X123245714Y-78572380D02*
X123245714Y-77572380D01*
X123626666Y-77572380D01*
X123721904Y-77620000D01*
X123769523Y-77667619D01*
X123817142Y-77762857D01*
X123817142Y-77905714D01*
X123769523Y-78000952D01*
X123721904Y-78048571D01*
X123626666Y-78096190D01*
X123245714Y-78096190D01*
X124769523Y-78572380D02*
X124198095Y-78572380D01*
X124483809Y-78572380D02*
X124483809Y-77572380D01*
X124388571Y-77715238D01*
X124293333Y-77810476D01*
X124198095Y-77858095D01*
X125626666Y-77905714D02*
X125626666Y-78572380D01*
X125388571Y-77524761D02*
X125150476Y-78239047D01*
X125769523Y-78239047D01*
G04 #@! TO.C,R15*
X132707142Y-65842380D02*
X132373809Y-65366190D01*
X132135714Y-65842380D02*
X132135714Y-64842380D01*
X132516666Y-64842380D01*
X132611904Y-64890000D01*
X132659523Y-64937619D01*
X132707142Y-65032857D01*
X132707142Y-65175714D01*
X132659523Y-65270952D01*
X132611904Y-65318571D01*
X132516666Y-65366190D01*
X132135714Y-65366190D01*
X133659523Y-65842380D02*
X133088095Y-65842380D01*
X133373809Y-65842380D02*
X133373809Y-64842380D01*
X133278571Y-64985238D01*
X133183333Y-65080476D01*
X133088095Y-65128095D01*
X134564285Y-64842380D02*
X134088095Y-64842380D01*
X134040476Y-65318571D01*
X134088095Y-65270952D01*
X134183333Y-65223333D01*
X134421428Y-65223333D01*
X134516666Y-65270952D01*
X134564285Y-65318571D01*
X134611904Y-65413809D01*
X134611904Y-65651904D01*
X134564285Y-65747142D01*
X134516666Y-65794761D01*
X134421428Y-65842380D01*
X134183333Y-65842380D01*
X134088095Y-65794761D01*
X134040476Y-65747142D01*
G04 #@! TO.C,R24*
X95877142Y-114132380D02*
X95543809Y-113656190D01*
X95305714Y-114132380D02*
X95305714Y-113132380D01*
X95686666Y-113132380D01*
X95781904Y-113180000D01*
X95829523Y-113227619D01*
X95877142Y-113322857D01*
X95877142Y-113465714D01*
X95829523Y-113560952D01*
X95781904Y-113608571D01*
X95686666Y-113656190D01*
X95305714Y-113656190D01*
X96258095Y-113227619D02*
X96305714Y-113180000D01*
X96400952Y-113132380D01*
X96639047Y-113132380D01*
X96734285Y-113180000D01*
X96781904Y-113227619D01*
X96829523Y-113322857D01*
X96829523Y-113418095D01*
X96781904Y-113560952D01*
X96210476Y-114132380D01*
X96829523Y-114132380D01*
X97686666Y-113465714D02*
X97686666Y-114132380D01*
X97448571Y-113084761D02*
X97210476Y-113799047D01*
X97829523Y-113799047D01*
G04 #@! TO.C,R25*
X100957142Y-91242380D02*
X100623809Y-90766190D01*
X100385714Y-91242380D02*
X100385714Y-90242380D01*
X100766666Y-90242380D01*
X100861904Y-90290000D01*
X100909523Y-90337619D01*
X100957142Y-90432857D01*
X100957142Y-90575714D01*
X100909523Y-90670952D01*
X100861904Y-90718571D01*
X100766666Y-90766190D01*
X100385714Y-90766190D01*
X101338095Y-90337619D02*
X101385714Y-90290000D01*
X101480952Y-90242380D01*
X101719047Y-90242380D01*
X101814285Y-90290000D01*
X101861904Y-90337619D01*
X101909523Y-90432857D01*
X101909523Y-90528095D01*
X101861904Y-90670952D01*
X101290476Y-91242380D01*
X101909523Y-91242380D01*
X102814285Y-90242380D02*
X102338095Y-90242380D01*
X102290476Y-90718571D01*
X102338095Y-90670952D01*
X102433333Y-90623333D01*
X102671428Y-90623333D01*
X102766666Y-90670952D01*
X102814285Y-90718571D01*
X102861904Y-90813809D01*
X102861904Y-91051904D01*
X102814285Y-91147142D01*
X102766666Y-91194761D01*
X102671428Y-91242380D01*
X102433333Y-91242380D01*
X102338095Y-91194761D01*
X102290476Y-91147142D01*
G04 #@! TO.C,R26*
X120007142Y-95052380D02*
X119673809Y-94576190D01*
X119435714Y-95052380D02*
X119435714Y-94052380D01*
X119816666Y-94052380D01*
X119911904Y-94100000D01*
X119959523Y-94147619D01*
X120007142Y-94242857D01*
X120007142Y-94385714D01*
X119959523Y-94480952D01*
X119911904Y-94528571D01*
X119816666Y-94576190D01*
X119435714Y-94576190D01*
X120388095Y-94147619D02*
X120435714Y-94100000D01*
X120530952Y-94052380D01*
X120769047Y-94052380D01*
X120864285Y-94100000D01*
X120911904Y-94147619D01*
X120959523Y-94242857D01*
X120959523Y-94338095D01*
X120911904Y-94480952D01*
X120340476Y-95052380D01*
X120959523Y-95052380D01*
X121816666Y-94052380D02*
X121626190Y-94052380D01*
X121530952Y-94100000D01*
X121483333Y-94147619D01*
X121388095Y-94290476D01*
X121340476Y-94480952D01*
X121340476Y-94861904D01*
X121388095Y-94957142D01*
X121435714Y-95004761D01*
X121530952Y-95052380D01*
X121721428Y-95052380D01*
X121816666Y-95004761D01*
X121864285Y-94957142D01*
X121911904Y-94861904D01*
X121911904Y-94623809D01*
X121864285Y-94528571D01*
X121816666Y-94480952D01*
X121721428Y-94433333D01*
X121530952Y-94433333D01*
X121435714Y-94480952D01*
X121388095Y-94528571D01*
X121340476Y-94623809D01*
G04 #@! TO.C,R27*
X142867142Y-79842380D02*
X142533809Y-79366190D01*
X142295714Y-79842380D02*
X142295714Y-78842380D01*
X142676666Y-78842380D01*
X142771904Y-78890000D01*
X142819523Y-78937619D01*
X142867142Y-79032857D01*
X142867142Y-79175714D01*
X142819523Y-79270952D01*
X142771904Y-79318571D01*
X142676666Y-79366190D01*
X142295714Y-79366190D01*
X143248095Y-78937619D02*
X143295714Y-78890000D01*
X143390952Y-78842380D01*
X143629047Y-78842380D01*
X143724285Y-78890000D01*
X143771904Y-78937619D01*
X143819523Y-79032857D01*
X143819523Y-79128095D01*
X143771904Y-79270952D01*
X143200476Y-79842380D01*
X143819523Y-79842380D01*
X144152857Y-78842380D02*
X144819523Y-78842380D01*
X144390952Y-79842380D01*
G04 #@! TO.C,R28*
X104767142Y-95052380D02*
X104433809Y-94576190D01*
X104195714Y-95052380D02*
X104195714Y-94052380D01*
X104576666Y-94052380D01*
X104671904Y-94100000D01*
X104719523Y-94147619D01*
X104767142Y-94242857D01*
X104767142Y-94385714D01*
X104719523Y-94480952D01*
X104671904Y-94528571D01*
X104576666Y-94576190D01*
X104195714Y-94576190D01*
X105148095Y-94147619D02*
X105195714Y-94100000D01*
X105290952Y-94052380D01*
X105529047Y-94052380D01*
X105624285Y-94100000D01*
X105671904Y-94147619D01*
X105719523Y-94242857D01*
X105719523Y-94338095D01*
X105671904Y-94480952D01*
X105100476Y-95052380D01*
X105719523Y-95052380D01*
X106290952Y-94480952D02*
X106195714Y-94433333D01*
X106148095Y-94385714D01*
X106100476Y-94290476D01*
X106100476Y-94242857D01*
X106148095Y-94147619D01*
X106195714Y-94100000D01*
X106290952Y-94052380D01*
X106481428Y-94052380D01*
X106576666Y-94100000D01*
X106624285Y-94147619D01*
X106671904Y-94242857D01*
X106671904Y-94290476D01*
X106624285Y-94385714D01*
X106576666Y-94433333D01*
X106481428Y-94480952D01*
X106290952Y-94480952D01*
X106195714Y-94528571D01*
X106148095Y-94576190D01*
X106100476Y-94671428D01*
X106100476Y-94861904D01*
X106148095Y-94957142D01*
X106195714Y-95004761D01*
X106290952Y-95052380D01*
X106481428Y-95052380D01*
X106576666Y-95004761D01*
X106624285Y-94957142D01*
X106671904Y-94861904D01*
X106671904Y-94671428D01*
X106624285Y-94576190D01*
X106576666Y-94528571D01*
X106481428Y-94480952D01*
G04 #@! TO.C,U1*
X98722380Y-118871904D02*
X99531904Y-118871904D01*
X99627142Y-118824285D01*
X99674761Y-118776666D01*
X99722380Y-118681428D01*
X99722380Y-118490952D01*
X99674761Y-118395714D01*
X99627142Y-118348095D01*
X99531904Y-118300476D01*
X98722380Y-118300476D01*
X99722380Y-117300476D02*
X99722380Y-117871904D01*
X99722380Y-117586190D02*
X98722380Y-117586190D01*
X98865238Y-117681428D01*
X98960476Y-117776666D01*
X99008095Y-117871904D01*
G04 #@! TO.C,U2*
X103802380Y-104901904D02*
X104611904Y-104901904D01*
X104707142Y-104854285D01*
X104754761Y-104806666D01*
X104802380Y-104711428D01*
X104802380Y-104520952D01*
X104754761Y-104425714D01*
X104707142Y-104378095D01*
X104611904Y-104330476D01*
X103802380Y-104330476D01*
X103897619Y-103901904D02*
X103850000Y-103854285D01*
X103802380Y-103759047D01*
X103802380Y-103520952D01*
X103850000Y-103425714D01*
X103897619Y-103378095D01*
X103992857Y-103330476D01*
X104088095Y-103330476D01*
X104230952Y-103378095D01*
X104802380Y-103949523D01*
X104802380Y-103330476D01*
G04 #@! TO.C,SW3*
X122534761Y-108013333D02*
X122582380Y-107870476D01*
X122582380Y-107632380D01*
X122534761Y-107537142D01*
X122487142Y-107489523D01*
X122391904Y-107441904D01*
X122296666Y-107441904D01*
X122201428Y-107489523D01*
X122153809Y-107537142D01*
X122106190Y-107632380D01*
X122058571Y-107822857D01*
X122010952Y-107918095D01*
X121963333Y-107965714D01*
X121868095Y-108013333D01*
X121772857Y-108013333D01*
X121677619Y-107965714D01*
X121630000Y-107918095D01*
X121582380Y-107822857D01*
X121582380Y-107584761D01*
X121630000Y-107441904D01*
X121582380Y-107108571D02*
X122582380Y-106870476D01*
X121868095Y-106680000D01*
X122582380Y-106489523D01*
X121582380Y-106251428D01*
X121582380Y-105965714D02*
X121582380Y-105346666D01*
X121963333Y-105680000D01*
X121963333Y-105537142D01*
X122010952Y-105441904D01*
X122058571Y-105394285D01*
X122153809Y-105346666D01*
X122391904Y-105346666D01*
X122487142Y-105394285D01*
X122534761Y-105441904D01*
X122582380Y-105537142D01*
X122582380Y-105822857D01*
X122534761Y-105918095D01*
X122487142Y-105965714D01*
G04 #@! TD*
M02*
