M48
;DRILL file {KiCad (5.0.0-3-g5ebb6b6)} date Tuesday, September 25, 2018 at 07:23:51 PM
;FORMAT={-:-/ absolute / inch / decimal}
FMAT,2
INCH,TZ
T1C0.0157
T2C0.0236
T3C0.0276
T4C0.0295
T5C0.0315
T6C0.0354
T7C0.0394
T8C0.0492
%
G90
G05
M72
T1
X4.8Y-3.95
T2
X5.Y-3.95
X5.Y-4.0091
T3
X3.4Y-2.5
X3.7Y-2.5
X4.45Y-2.25
X4.75Y-2.25
X3.65Y-4.4
X3.95Y-4.4
X3.4Y-2.65
X3.7Y-2.65
X4.75Y-2.85
X5.05Y-2.85
X4.6Y-3.8
X4.9Y-3.8
X5.1Y-2.65
X5.4Y-2.65
X4.Y-3.8
X4.3Y-3.8
X3.4Y-3.15
X3.7Y-3.15
X2.55Y-3.5
X2.85Y-3.5
X3.85Y-3.
X4.15Y-3.
X4.2Y-5.15
X4.5Y-5.15
X4.25Y-2.9
X4.55Y-2.9
X5.85Y-3.5
X6.15Y-3.5
X4.15Y-3.35
X4.45Y-3.35
X4.2Y-1.85
X4.5Y-1.85
X3.4Y-3.
X3.7Y-3.
X4.65Y-3.2
X4.95Y-3.2
X3.85Y-3.65
X4.15Y-3.65
X4.75Y-3.
X5.05Y-3.
X5.5Y-3.05
X5.8Y-3.05
X3.05Y-2.35
X3.35Y-2.35
X3.9Y-2.25
X4.2Y-2.25
X3.05Y-4.65
X3.35Y-4.65
X4.15Y-2.75
X4.45Y-2.75
X5.35Y-4.7
X5.65Y-4.7
X4.15Y-3.45
X4.45Y-3.45
X5.35Y-2.35
X5.65Y-2.35
T4
X5.05Y-3.35
X5.05Y-3.4
X5.05Y-3.45
X4.65Y-2.5
X4.65Y-2.55
X4.65Y-2.6
X4.Y-2.5
X4.Y-2.55
X4.Y-2.6
X4.Y-3.15
X4.Y-3.2
X4.Y-3.25
X5.35Y-2.8
X5.35Y-2.85
X5.35Y-2.9
T5
X4.2Y-3.95
X4.2Y-4.25
X4.3Y-3.95
X4.3Y-4.25
X4.4Y-3.95
X4.4Y-4.25
X4.5Y-3.95
X4.5Y-4.25
X4.Y-4.5
X4.Y-4.8
X4.1Y-4.5
X4.1Y-4.8
X4.2Y-4.5
X4.2Y-4.8
X4.3Y-4.5
X4.3Y-4.8
X4.4Y-4.5
X4.4Y-4.8
X4.5Y-4.5
X4.5Y-4.8
X4.6Y-4.5
X4.6Y-4.8
X4.7Y-4.5
X4.7Y-4.8
T6
X2.65Y-3.5
X2.75Y-3.5
X5.45Y-2.35
X5.55Y-2.35
X4.3Y-1.85
X4.4Y-1.85
X4.3Y-5.15
X4.4Y-5.15
X3.15Y-2.35
X3.25Y-2.35
X5.95Y-3.5
X6.05Y-3.5
X3.15Y-4.65
X3.25Y-4.65
X5.45Y-4.7
X5.55Y-4.7
T7
X4.9Y-4.2
X5.Y-4.2
X5.1Y-4.2
X3.272Y-3.9614
X3.272Y-4.1386
X3.528Y-3.9614
X3.528Y-4.1386
X5.372Y-3.8114
X5.372Y-3.9886
X5.628Y-3.8114
X5.628Y-3.9886
T8
X5.25Y-3.8
X5.25Y-4.3
T0
M30
